%TF.GenerationSoftware,KiCad,Pcbnew,(5.1.6-0-10_14)*%
%TF.CreationDate,2020-12-25T20:14:25+01:00*%
%TF.ProjectId,USBPowerSupplyEurorack,55534250-6f77-4657-9253-7570706c7945,rev?*%
%TF.SameCoordinates,Original*%
%TF.FileFunction,Legend,Top*%
%TF.FilePolarity,Positive*%
%FSLAX46Y46*%
G04 Gerber Fmt 4.6, Leading zero omitted, Abs format (unit mm)*
G04 Created by KiCad (PCBNEW (5.1.6-0-10_14)) date 2020-12-25 20:14:25*
%MOMM*%
%LPD*%
G01*
G04 APERTURE LIST*
%ADD10C,0.200000*%
%ADD11C,0.120000*%
%ADD12C,0.150000*%
%ADD13C,0.250000*%
%ADD14C,0.100000*%
%ADD15C,0.254000*%
G04 APERTURE END LIST*
D10*
%TO.C,J2*%
X129115000Y-61495000D02*
X129115000Y-72925000D01*
X133945000Y-61495000D02*
X129115000Y-61495000D01*
X133945000Y-74195000D02*
X133945000Y-61495000D01*
X132800000Y-74195000D02*
X133945000Y-74195000D01*
D11*
%TO.C,C1*%
X136715000Y-138360000D02*
X139665000Y-138360000D01*
X145235000Y-138360000D02*
X142285000Y-138360000D01*
X145235000Y-130904437D02*
X145235000Y-138360000D01*
X136715000Y-130904437D02*
X136715000Y-138360000D01*
X137779437Y-129840000D02*
X139665000Y-129840000D01*
X144170563Y-129840000D02*
X142285000Y-129840000D01*
X144170563Y-129840000D02*
X145235000Y-130904437D01*
X137779437Y-129840000D02*
X136715000Y-130904437D01*
%TO.C,C2*%
X142322936Y-116040000D02*
X143527064Y-116040000D01*
X142322936Y-118760000D02*
X143527064Y-118760000D01*
%TO.C,C3*%
X137760000Y-63522936D02*
X137760000Y-64727064D01*
X135940000Y-63522936D02*
X135940000Y-64727064D01*
%TO.C,C4*%
X136015000Y-86697936D02*
X136015000Y-87902064D01*
X137835000Y-86697936D02*
X137835000Y-87902064D01*
%TO.C,C5*%
X141115000Y-88660000D02*
X142315000Y-88660000D01*
X145635000Y-88660000D02*
X144435000Y-88660000D01*
X145635000Y-85204437D02*
X145635000Y-88660000D01*
X141115000Y-85204437D02*
X141115000Y-88660000D01*
X142179437Y-84140000D02*
X142315000Y-84140000D01*
X144570563Y-84140000D02*
X144435000Y-84140000D01*
X144570563Y-84140000D02*
X145635000Y-85204437D01*
X142179437Y-84140000D02*
X141115000Y-85204437D01*
%TO.C,C6*%
X142329437Y-62040000D02*
X141265000Y-63104437D01*
X144720563Y-62040000D02*
X145785000Y-63104437D01*
X144720563Y-62040000D02*
X144585000Y-62040000D01*
X142329437Y-62040000D02*
X142465000Y-62040000D01*
X141265000Y-63104437D02*
X141265000Y-66560000D01*
X145785000Y-63104437D02*
X145785000Y-66560000D01*
X145785000Y-66560000D02*
X144585000Y-66560000D01*
X141265000Y-66560000D02*
X142465000Y-66560000D01*
%TO.C,C7*%
X144535000Y-127035000D02*
X144535000Y-124685000D01*
X144535000Y-120215000D02*
X144535000Y-122565000D01*
X138779437Y-120215000D02*
X144535000Y-120215000D01*
X138779437Y-127035000D02*
X144535000Y-127035000D01*
X137715000Y-125970563D02*
X137715000Y-124685000D01*
X137715000Y-121279437D02*
X137715000Y-122565000D01*
X137715000Y-121279437D02*
X138779437Y-120215000D01*
X137715000Y-125970563D02*
X138779437Y-127035000D01*
D10*
%TO.C,D1*%
X139573000Y-118470000D02*
X139573000Y-113430000D01*
X136977000Y-113430000D02*
X136977000Y-118470000D01*
D11*
%TO.C,D3*%
X141025000Y-90775000D02*
X141025000Y-92775000D01*
X141025000Y-92775000D02*
X144875000Y-92775000D01*
X141025000Y-90775000D02*
X144875000Y-90775000D01*
%TO.C,D4*%
X145450000Y-71100000D02*
X141600000Y-71100000D01*
X145450000Y-69100000D02*
X141600000Y-69100000D01*
X145450000Y-71100000D02*
X145450000Y-69100000D01*
D10*
%TO.C,F1*%
X136680000Y-148650000D02*
X139720000Y-148650000D01*
D12*
%TO.C,L1*%
X140950000Y-114100000D02*
X140950000Y-109400000D01*
X145450000Y-114100000D02*
X145450000Y-109400000D01*
X145450000Y-114100000D02*
X145100000Y-114100000D01*
X145450000Y-109400000D02*
X145100000Y-109400000D01*
X140950000Y-114100000D02*
X141300000Y-114100000D01*
X140950000Y-109400000D02*
X141300000Y-109400000D01*
D13*
X142375000Y-115350000D02*
G75*
G03*
X142375000Y-115350000I-125000J0D01*
G01*
D14*
%TO.C,Q1*%
X136900000Y-110150000D02*
X136900000Y-110425000D01*
X136900000Y-110425000D02*
X137175000Y-110800000D01*
X137175000Y-110800000D02*
X137225000Y-110800000D01*
X137225000Y-110800000D02*
X137225000Y-111575000D01*
X140200000Y-110325000D02*
X140200000Y-110800000D01*
X140200000Y-110800000D02*
X139850000Y-110800000D01*
X139975000Y-109150000D02*
X139850000Y-109150000D01*
X139900000Y-109150000D02*
X140200000Y-109150000D01*
X140200000Y-109150000D02*
X140200000Y-109600000D01*
X136900000Y-109525000D02*
X136900000Y-109150000D01*
X136900000Y-109150000D02*
X137200000Y-109150000D01*
D11*
%TO.C,R1*%
X136215000Y-94832983D02*
X136215000Y-94467017D01*
X139635000Y-94832983D02*
X139635000Y-94467017D01*
%TO.C,J2*%
D15*
X132104523Y-73348333D02*
X133011666Y-73348333D01*
X133193095Y-73408809D01*
X133314047Y-73529761D01*
X133374523Y-73711190D01*
X133374523Y-73832142D01*
X132225476Y-72804047D02*
X132165000Y-72743571D01*
X132104523Y-72622619D01*
X132104523Y-72320238D01*
X132165000Y-72199285D01*
X132225476Y-72138809D01*
X132346428Y-72078333D01*
X132467380Y-72078333D01*
X132648809Y-72138809D01*
X133374523Y-72864523D01*
X133374523Y-72078333D01*
%TO.C,C2*%
D12*
X142508333Y-120182142D02*
X142460714Y-120229761D01*
X142317857Y-120277380D01*
X142222619Y-120277380D01*
X142079761Y-120229761D01*
X141984523Y-120134523D01*
X141936904Y-120039285D01*
X141889285Y-119848809D01*
X141889285Y-119705952D01*
X141936904Y-119515476D01*
X141984523Y-119420238D01*
X142079761Y-119325000D01*
X142222619Y-119277380D01*
X142317857Y-119277380D01*
X142460714Y-119325000D01*
X142508333Y-119372619D01*
X142889285Y-119372619D02*
X142936904Y-119325000D01*
X143032142Y-119277380D01*
X143270238Y-119277380D01*
X143365476Y-119325000D01*
X143413095Y-119372619D01*
X143460714Y-119467857D01*
X143460714Y-119563095D01*
X143413095Y-119705952D01*
X142841666Y-120277380D01*
X143460714Y-120277380D01*
%TO.C,C3*%
X137432142Y-60991666D02*
X137479761Y-61039285D01*
X137527380Y-61182142D01*
X137527380Y-61277380D01*
X137479761Y-61420238D01*
X137384523Y-61515476D01*
X137289285Y-61563095D01*
X137098809Y-61610714D01*
X136955952Y-61610714D01*
X136765476Y-61563095D01*
X136670238Y-61515476D01*
X136575000Y-61420238D01*
X136527380Y-61277380D01*
X136527380Y-61182142D01*
X136575000Y-61039285D01*
X136622619Y-60991666D01*
X136527380Y-60658333D02*
X136527380Y-60039285D01*
X136908333Y-60372619D01*
X136908333Y-60229761D01*
X136955952Y-60134523D01*
X137003571Y-60086904D01*
X137098809Y-60039285D01*
X137336904Y-60039285D01*
X137432142Y-60086904D01*
X137479761Y-60134523D01*
X137527380Y-60229761D01*
X137527380Y-60515476D01*
X137479761Y-60610714D01*
X137432142Y-60658333D01*
%TO.C,C4*%
X137332142Y-84141666D02*
X137379761Y-84189285D01*
X137427380Y-84332142D01*
X137427380Y-84427380D01*
X137379761Y-84570238D01*
X137284523Y-84665476D01*
X137189285Y-84713095D01*
X136998809Y-84760714D01*
X136855952Y-84760714D01*
X136665476Y-84713095D01*
X136570238Y-84665476D01*
X136475000Y-84570238D01*
X136427380Y-84427380D01*
X136427380Y-84332142D01*
X136475000Y-84189285D01*
X136522619Y-84141666D01*
X136760714Y-83284523D02*
X137427380Y-83284523D01*
X136379761Y-83522619D02*
X137094047Y-83760714D01*
X137094047Y-83141666D01*
%TO.C,C5*%
X141782142Y-83766666D02*
X141829761Y-83814285D01*
X141877380Y-83957142D01*
X141877380Y-84052380D01*
X141829761Y-84195238D01*
X141734523Y-84290476D01*
X141639285Y-84338095D01*
X141448809Y-84385714D01*
X141305952Y-84385714D01*
X141115476Y-84338095D01*
X141020238Y-84290476D01*
X140925000Y-84195238D01*
X140877380Y-84052380D01*
X140877380Y-83957142D01*
X140925000Y-83814285D01*
X140972619Y-83766666D01*
X140877380Y-82861904D02*
X140877380Y-83338095D01*
X141353571Y-83385714D01*
X141305952Y-83338095D01*
X141258333Y-83242857D01*
X141258333Y-83004761D01*
X141305952Y-82909523D01*
X141353571Y-82861904D01*
X141448809Y-82814285D01*
X141686904Y-82814285D01*
X141782142Y-82861904D01*
X141829761Y-82909523D01*
X141877380Y-83004761D01*
X141877380Y-83242857D01*
X141829761Y-83338095D01*
X141782142Y-83385714D01*
%TO.C,C6*%
X141882142Y-61191666D02*
X141929761Y-61239285D01*
X141977380Y-61382142D01*
X141977380Y-61477380D01*
X141929761Y-61620238D01*
X141834523Y-61715476D01*
X141739285Y-61763095D01*
X141548809Y-61810714D01*
X141405952Y-61810714D01*
X141215476Y-61763095D01*
X141120238Y-61715476D01*
X141025000Y-61620238D01*
X140977380Y-61477380D01*
X140977380Y-61382142D01*
X141025000Y-61239285D01*
X141072619Y-61191666D01*
X140977380Y-60334523D02*
X140977380Y-60525000D01*
X141025000Y-60620238D01*
X141072619Y-60667857D01*
X141215476Y-60763095D01*
X141405952Y-60810714D01*
X141786904Y-60810714D01*
X141882142Y-60763095D01*
X141929761Y-60715476D01*
X141977380Y-60620238D01*
X141977380Y-60429761D01*
X141929761Y-60334523D01*
X141882142Y-60286904D01*
X141786904Y-60239285D01*
X141548809Y-60239285D01*
X141453571Y-60286904D01*
X141405952Y-60334523D01*
X141358333Y-60429761D01*
X141358333Y-60620238D01*
X141405952Y-60715476D01*
X141453571Y-60763095D01*
X141548809Y-60810714D01*
%TO.C,C7*%
X137433333Y-128632142D02*
X137385714Y-128679761D01*
X137242857Y-128727380D01*
X137147619Y-128727380D01*
X137004761Y-128679761D01*
X136909523Y-128584523D01*
X136861904Y-128489285D01*
X136814285Y-128298809D01*
X136814285Y-128155952D01*
X136861904Y-127965476D01*
X136909523Y-127870238D01*
X137004761Y-127775000D01*
X137147619Y-127727380D01*
X137242857Y-127727380D01*
X137385714Y-127775000D01*
X137433333Y-127822619D01*
X137766666Y-127727380D02*
X138433333Y-127727380D01*
X138004761Y-128727380D01*
%TO.C,D1*%
D15*
X138849523Y-116887380D02*
X137579523Y-116887380D01*
X137579523Y-116585000D01*
X137640000Y-116403571D01*
X137760952Y-116282619D01*
X137881904Y-116222142D01*
X138123809Y-116161666D01*
X138305238Y-116161666D01*
X138547142Y-116222142D01*
X138668095Y-116282619D01*
X138789047Y-116403571D01*
X138849523Y-116585000D01*
X138849523Y-116887380D01*
X138849523Y-114952142D02*
X138849523Y-115677857D01*
X138849523Y-115315000D02*
X137579523Y-115315000D01*
X137760952Y-115435952D01*
X137881904Y-115556904D01*
X137942380Y-115677857D01*
%TO.C,D3*%
D12*
X142936904Y-94152380D02*
X142936904Y-93152380D01*
X143175000Y-93152380D01*
X143317857Y-93200000D01*
X143413095Y-93295238D01*
X143460714Y-93390476D01*
X143508333Y-93580952D01*
X143508333Y-93723809D01*
X143460714Y-93914285D01*
X143413095Y-94009523D01*
X143317857Y-94104761D01*
X143175000Y-94152380D01*
X142936904Y-94152380D01*
X143841666Y-93152380D02*
X144460714Y-93152380D01*
X144127380Y-93533333D01*
X144270238Y-93533333D01*
X144365476Y-93580952D01*
X144413095Y-93628571D01*
X144460714Y-93723809D01*
X144460714Y-93961904D01*
X144413095Y-94057142D01*
X144365476Y-94104761D01*
X144270238Y-94152380D01*
X143984523Y-94152380D01*
X143889285Y-94104761D01*
X143841666Y-94057142D01*
%TO.C,D4*%
X143061904Y-68377380D02*
X143061904Y-67377380D01*
X143300000Y-67377380D01*
X143442857Y-67425000D01*
X143538095Y-67520238D01*
X143585714Y-67615476D01*
X143633333Y-67805952D01*
X143633333Y-67948809D01*
X143585714Y-68139285D01*
X143538095Y-68234523D01*
X143442857Y-68329761D01*
X143300000Y-68377380D01*
X143061904Y-68377380D01*
X144490476Y-67710714D02*
X144490476Y-68377380D01*
X144252380Y-67329761D02*
X144014285Y-68044047D01*
X144633333Y-68044047D01*
%TO.C,F1*%
D15*
X138109285Y-149073333D02*
X138109285Y-149496666D01*
X138774523Y-149496666D02*
X137504523Y-149496666D01*
X137504523Y-148891904D01*
X138774523Y-147742857D02*
X138774523Y-148468571D01*
X138774523Y-148105714D02*
X137504523Y-148105714D01*
X137685952Y-148226666D01*
X137806904Y-148347619D01*
X137867380Y-148468571D01*
%TO.C,L1*%
D12*
X143452380Y-111738214D02*
X143452380Y-112214404D01*
X142452380Y-112214404D01*
X143452380Y-110881071D02*
X143452380Y-111452500D01*
X143452380Y-111166785D02*
X142452380Y-111166785D01*
X142595238Y-111262023D01*
X142690476Y-111357261D01*
X142738095Y-111452500D01*
%TO.C,Q1*%
X137654761Y-107797619D02*
X137559523Y-107750000D01*
X137464285Y-107654761D01*
X137321428Y-107511904D01*
X137226190Y-107464285D01*
X137130952Y-107464285D01*
X137178571Y-107702380D02*
X137083333Y-107654761D01*
X136988095Y-107559523D01*
X136940476Y-107369047D01*
X136940476Y-107035714D01*
X136988095Y-106845238D01*
X137083333Y-106750000D01*
X137178571Y-106702380D01*
X137369047Y-106702380D01*
X137464285Y-106750000D01*
X137559523Y-106845238D01*
X137607142Y-107035714D01*
X137607142Y-107369047D01*
X137559523Y-107559523D01*
X137464285Y-107654761D01*
X137369047Y-107702380D01*
X137178571Y-107702380D01*
X138559523Y-107702380D02*
X137988095Y-107702380D01*
X138273809Y-107702380D02*
X138273809Y-106702380D01*
X138178571Y-106845238D01*
X138083333Y-106940476D01*
X137988095Y-106988095D01*
%TO.C,R1*%
X137008333Y-92752380D02*
X136675000Y-92276190D01*
X136436904Y-92752380D02*
X136436904Y-91752380D01*
X136817857Y-91752380D01*
X136913095Y-91800000D01*
X136960714Y-91847619D01*
X137008333Y-91942857D01*
X137008333Y-92085714D01*
X136960714Y-92180952D01*
X136913095Y-92228571D01*
X136817857Y-92276190D01*
X136436904Y-92276190D01*
X137960714Y-92752380D02*
X137389285Y-92752380D01*
X137675000Y-92752380D02*
X137675000Y-91752380D01*
X137579761Y-91895238D01*
X137484523Y-91990476D01*
X137389285Y-92038095D01*
%TD*%
M02*
