%TF.GenerationSoftware,KiCad,Pcbnew,(5.1.6-0-10_14)*%
%TF.CreationDate,2020-12-30T18:05:34+01:00*%
%TF.ProjectId,USBPowerSupplyEurorack,55534250-6f77-4657-9253-7570706c7945,rev?*%
%TF.SameCoordinates,Original*%
%TF.FileFunction,Copper,L1,Top*%
%TF.FilePolarity,Positive*%
%FSLAX46Y46*%
G04 Gerber Fmt 4.6, Leading zero omitted, Abs format (unit mm)*
G04 Created by KiCad (PCBNEW (5.1.6-0-10_14)) date 2020-12-30 18:05:34*
%MOMM*%
%LPD*%
G01*
G04 APERTURE LIST*
%TA.AperFunction,ComponentPad*%
%ADD10C,1.725000*%
%TD*%
%TA.AperFunction,SMDPad,CuDef*%
%ADD11R,1.100000X1.100000*%
%TD*%
%TA.AperFunction,SMDPad,CuDef*%
%ADD12R,0.400000X0.900000*%
%TD*%
%TA.AperFunction,ComponentPad*%
%ADD13R,1.428000X1.428000*%
%TD*%
%TA.AperFunction,ComponentPad*%
%ADD14C,1.428000*%
%TD*%
%TA.AperFunction,ComponentPad*%
%ADD15C,3.316000*%
%TD*%
%TA.AperFunction,SMDPad,CuDef*%
%ADD16R,1.300000X0.600000*%
%TD*%
%TA.AperFunction,ComponentPad*%
%ADD17C,1.400000*%
%TD*%
%TA.AperFunction,ComponentPad*%
%ADD18C,1.200000*%
%TD*%
%TA.AperFunction,SMDPad,CuDef*%
%ADD19R,1.700000X2.500000*%
%TD*%
%TA.AperFunction,SMDPad,CuDef*%
%ADD20R,2.540000X1.270000*%
%TD*%
%TA.AperFunction,ViaPad*%
%ADD21C,0.800000*%
%TD*%
%TA.AperFunction,Conductor*%
%ADD22C,0.300000*%
%TD*%
%TA.AperFunction,Conductor*%
%ADD23C,0.250000*%
%TD*%
%TA.AperFunction,Conductor*%
%ADD24C,0.254000*%
%TD*%
G04 APERTURE END LIST*
%TO.P,R1,1*%
%TO.N,Net-(R1-Pad1)*%
%TA.AperFunction,SMDPad,CuDef*%
G36*
G01*
X138375000Y-92318750D02*
X138375000Y-93231250D01*
G75*
G02*
X138131250Y-93475000I-243750J0D01*
G01*
X137643750Y-93475000D01*
G75*
G02*
X137400000Y-93231250I0J243750D01*
G01*
X137400000Y-92318750D01*
G75*
G02*
X137643750Y-92075000I243750J0D01*
G01*
X138131250Y-92075000D01*
G75*
G02*
X138375000Y-92318750I0J-243750D01*
G01*
G37*
%TD.AperFunction*%
%TO.P,R1,2*%
%TO.N,0V*%
%TA.AperFunction,SMDPad,CuDef*%
G36*
G01*
X136500000Y-92318750D02*
X136500000Y-93231250D01*
G75*
G02*
X136256250Y-93475000I-243750J0D01*
G01*
X135768750Y-93475000D01*
G75*
G02*
X135525000Y-93231250I0J243750D01*
G01*
X135525000Y-92318750D01*
G75*
G02*
X135768750Y-92075000I243750J0D01*
G01*
X136256250Y-92075000D01*
G75*
G02*
X136500000Y-92318750I0J-243750D01*
G01*
G37*
%TD.AperFunction*%
%TD*%
D10*
%TO.P,PS2,8*%
%TO.N,Net-(PS2-Pad8)*%
X140725000Y-79395000D03*
%TO.P,PS2,7*%
%TO.N,-12V*%
X140725000Y-81935000D03*
%TO.P,PS2,6*%
%TO.N,0V*%
X140725000Y-84475000D03*
%TO.P,PS2,5*%
%TO.N,Net-(PS2-Pad5)*%
X140725000Y-87015000D03*
%TO.P,PS2,3*%
%TO.N,CTRL*%
X140725000Y-92095000D03*
%TO.P,PS2,2*%
%TO.N,+Vin*%
X140725000Y-94635000D03*
%TO.P,PS2,1*%
%TO.N,-Vin*%
X140725000Y-97175000D03*
%TD*%
%TO.P,C2,2*%
%TO.N,GND*%
%TA.AperFunction,SMDPad,CuDef*%
G36*
G01*
X142325000Y-135631250D02*
X142325000Y-134718750D01*
G75*
G02*
X142568750Y-134475000I243750J0D01*
G01*
X143056250Y-134475000D01*
G75*
G02*
X143300000Y-134718750I0J-243750D01*
G01*
X143300000Y-135631250D01*
G75*
G02*
X143056250Y-135875000I-243750J0D01*
G01*
X142568750Y-135875000D01*
G75*
G02*
X142325000Y-135631250I0J243750D01*
G01*
G37*
%TD.AperFunction*%
%TO.P,C2,1*%
%TO.N,Net-(C1-Pad1)*%
%TA.AperFunction,SMDPad,CuDef*%
G36*
G01*
X140450000Y-135631250D02*
X140450000Y-134718750D01*
G75*
G02*
X140693750Y-134475000I243750J0D01*
G01*
X141181250Y-134475000D01*
G75*
G02*
X141425000Y-134718750I0J-243750D01*
G01*
X141425000Y-135631250D01*
G75*
G02*
X141181250Y-135875000I-243750J0D01*
G01*
X140693750Y-135875000D01*
G75*
G02*
X140450000Y-135631250I0J243750D01*
G01*
G37*
%TD.AperFunction*%
%TD*%
%TO.P,C3,1*%
%TO.N,+12V*%
%TA.AperFunction,SMDPad,CuDef*%
G36*
G01*
X135227500Y-63920000D02*
X135572500Y-63920000D01*
G75*
G02*
X135720000Y-64067500I0J-147500D01*
G01*
X135720000Y-64362500D01*
G75*
G02*
X135572500Y-64510000I-147500J0D01*
G01*
X135227500Y-64510000D01*
G75*
G02*
X135080000Y-64362500I0J147500D01*
G01*
X135080000Y-64067500D01*
G75*
G02*
X135227500Y-63920000I147500J0D01*
G01*
G37*
%TD.AperFunction*%
%TO.P,C3,2*%
%TO.N,0V*%
%TA.AperFunction,SMDPad,CuDef*%
G36*
G01*
X135227500Y-64890000D02*
X135572500Y-64890000D01*
G75*
G02*
X135720000Y-65037500I0J-147500D01*
G01*
X135720000Y-65332500D01*
G75*
G02*
X135572500Y-65480000I-147500J0D01*
G01*
X135227500Y-65480000D01*
G75*
G02*
X135080000Y-65332500I0J147500D01*
G01*
X135080000Y-65037500D01*
G75*
G02*
X135227500Y-64890000I147500J0D01*
G01*
G37*
%TD.AperFunction*%
%TD*%
%TO.P,C4,2*%
%TO.N,-12V*%
%TA.AperFunction,SMDPad,CuDef*%
G36*
G01*
X143147500Y-83335000D02*
X142802500Y-83335000D01*
G75*
G02*
X142655000Y-83187500I0J147500D01*
G01*
X142655000Y-82892500D01*
G75*
G02*
X142802500Y-82745000I147500J0D01*
G01*
X143147500Y-82745000D01*
G75*
G02*
X143295000Y-82892500I0J-147500D01*
G01*
X143295000Y-83187500D01*
G75*
G02*
X143147500Y-83335000I-147500J0D01*
G01*
G37*
%TD.AperFunction*%
%TO.P,C4,1*%
%TO.N,0V*%
%TA.AperFunction,SMDPad,CuDef*%
G36*
G01*
X143147500Y-84305000D02*
X142802500Y-84305000D01*
G75*
G02*
X142655000Y-84157500I0J147500D01*
G01*
X142655000Y-83862500D01*
G75*
G02*
X142802500Y-83715000I147500J0D01*
G01*
X143147500Y-83715000D01*
G75*
G02*
X143295000Y-83862500I0J-147500D01*
G01*
X143295000Y-84157500D01*
G75*
G02*
X143147500Y-84305000I-147500J0D01*
G01*
G37*
%TD.AperFunction*%
%TD*%
%TO.P,C5,1*%
%TO.N,+12V*%
%TA.AperFunction,SMDPad,CuDef*%
G36*
G01*
X141350000Y-61925000D02*
X142450000Y-61925000D01*
G75*
G02*
X142700000Y-62175000I0J-250000D01*
G01*
X142700000Y-64325000D01*
G75*
G02*
X142450000Y-64575000I-250000J0D01*
G01*
X141350000Y-64575000D01*
G75*
G02*
X141100000Y-64325000I0J250000D01*
G01*
X141100000Y-62175000D01*
G75*
G02*
X141350000Y-61925000I250000J0D01*
G01*
G37*
%TD.AperFunction*%
%TO.P,C5,2*%
%TO.N,0V*%
%TA.AperFunction,SMDPad,CuDef*%
G36*
G01*
X141350000Y-65275000D02*
X142450000Y-65275000D01*
G75*
G02*
X142700000Y-65525000I0J-250000D01*
G01*
X142700000Y-67675000D01*
G75*
G02*
X142450000Y-67925000I-250000J0D01*
G01*
X141350000Y-67925000D01*
G75*
G02*
X141100000Y-67675000I0J250000D01*
G01*
X141100000Y-65525000D01*
G75*
G02*
X141350000Y-65275000I250000J0D01*
G01*
G37*
%TD.AperFunction*%
%TD*%
%TO.P,C6,2*%
%TO.N,-12V*%
%TA.AperFunction,SMDPad,CuDef*%
G36*
G01*
X137450000Y-83250000D02*
X136350000Y-83250000D01*
G75*
G02*
X136100000Y-83000000I0J250000D01*
G01*
X136100000Y-80850000D01*
G75*
G02*
X136350000Y-80600000I250000J0D01*
G01*
X137450000Y-80600000D01*
G75*
G02*
X137700000Y-80850000I0J-250000D01*
G01*
X137700000Y-83000000D01*
G75*
G02*
X137450000Y-83250000I-250000J0D01*
G01*
G37*
%TD.AperFunction*%
%TO.P,C6,1*%
%TO.N,0V*%
%TA.AperFunction,SMDPad,CuDef*%
G36*
G01*
X137450000Y-86600000D02*
X136350000Y-86600000D01*
G75*
G02*
X136100000Y-86350000I0J250000D01*
G01*
X136100000Y-84200000D01*
G75*
G02*
X136350000Y-83950000I250000J0D01*
G01*
X137450000Y-83950000D01*
G75*
G02*
X137700000Y-84200000I0J-250000D01*
G01*
X137700000Y-86350000D01*
G75*
G02*
X137450000Y-86600000I-250000J0D01*
G01*
G37*
%TD.AperFunction*%
%TD*%
D11*
%TO.P,D3,1*%
%TO.N,+12V*%
X142675000Y-59850000D03*
%TO.P,D3,2*%
%TO.N,0V*%
X142675000Y-57050000D03*
%TD*%
%TO.P,D4,2*%
%TO.N,-12V*%
X139000000Y-89650000D03*
%TO.P,D4,1*%
%TO.N,0V*%
X136200000Y-89650000D03*
%TD*%
%TO.P,F1,1*%
%TO.N,Net-(F1-Pad1)*%
%TA.AperFunction,SMDPad,CuDef*%
G36*
G01*
X138275001Y-151475000D02*
X135374999Y-151475000D01*
G75*
G02*
X135125000Y-151225001I0J249999D01*
G01*
X135125000Y-150599999D01*
G75*
G02*
X135374999Y-150350000I249999J0D01*
G01*
X138275001Y-150350000D01*
G75*
G02*
X138525000Y-150599999I0J-249999D01*
G01*
X138525000Y-151225001D01*
G75*
G02*
X138275001Y-151475000I-249999J0D01*
G01*
G37*
%TD.AperFunction*%
%TO.P,F1,2*%
%TO.N,+5V*%
%TA.AperFunction,SMDPad,CuDef*%
G36*
G01*
X138275001Y-147200000D02*
X135374999Y-147200000D01*
G75*
G02*
X135125000Y-146950001I0J249999D01*
G01*
X135125000Y-146324999D01*
G75*
G02*
X135374999Y-146075000I249999J0D01*
G01*
X138275001Y-146075000D01*
G75*
G02*
X138525000Y-146324999I0J-249999D01*
G01*
X138525000Y-146950001D01*
G75*
G02*
X138275001Y-147200000I-249999J0D01*
G01*
G37*
%TD.AperFunction*%
%TD*%
D12*
%TO.P,FL1,4*%
%TO.N,+Vin*%
X141275000Y-129750000D03*
%TO.P,FL1,3*%
%TO.N,-Vin*%
X142425000Y-129750000D03*
%TO.P,FL1,2*%
%TO.N,GND*%
X142425000Y-132550000D03*
%TO.P,FL1,1*%
%TO.N,Net-(C1-Pad1)*%
X141275000Y-132550000D03*
%TD*%
D13*
%TO.P,J1,1*%
%TO.N,Net-(F1-Pad1)*%
X140725000Y-152300000D03*
D14*
%TO.P,J1,2*%
%TO.N,Net-(J1-Pad2)*%
X140725000Y-149800000D03*
%TO.P,J1,3*%
%TO.N,Net-(J1-Pad3)*%
X140725000Y-147800000D03*
%TO.P,J1,4*%
%TO.N,GND*%
X140725000Y-145300000D03*
D15*
%TO.P,J1,SH1*%
%TO.N,Net-(J1-PadSH1)*%
X138015000Y-155370000D03*
%TO.P,J1,SH2*%
X138015000Y-142230000D03*
%TD*%
D10*
%TO.P,PS1,1*%
%TO.N,-Vin*%
X137850000Y-50900000D03*
%TO.P,PS1,2*%
%TO.N,+Vin*%
X137850000Y-53440000D03*
%TO.P,PS1,3*%
%TO.N,CTRL*%
X137850000Y-55980000D03*
%TO.P,PS1,5*%
%TO.N,Net-(PS1-Pad5)*%
X137850000Y-61060000D03*
%TO.P,PS1,6*%
%TO.N,+12V*%
X137850000Y-63600000D03*
%TO.P,PS1,7*%
%TO.N,0V*%
X137850000Y-66140000D03*
%TO.P,PS1,8*%
%TO.N,Net-(PS1-Pad8)*%
X137850000Y-68680000D03*
%TD*%
D16*
%TO.P,Q1,3*%
%TO.N,+5V*%
X141025000Y-138825000D03*
%TO.P,Q1,2*%
%TO.N,Net-(C1-Pad1)*%
X143125000Y-137875000D03*
%TO.P,Q1,1*%
%TO.N,GND*%
X143125000Y-139775000D03*
%TD*%
D17*
%TO.P,S1,1*%
%TO.N,CTRL*%
X136900000Y-109375000D03*
%TO.P,S1,2*%
X136900000Y-106875000D03*
%TO.P,S1,3*%
%TO.N,Net-(S1-Pad3)*%
X136900000Y-104375000D03*
%TO.P,S1,4*%
%TO.N,+Vin*%
X141900000Y-109375000D03*
%TO.P,S1,5*%
X141900000Y-106875000D03*
%TO.P,S1,6*%
%TO.N,Net-(S1-Pad6)*%
X141900000Y-104375000D03*
D18*
%TO.P,S1,L1*%
%TO.N,+12V*%
X139400000Y-111875000D03*
%TO.P,S1,L2*%
%TO.N,Net-(R1-Pad1)*%
X139400000Y-101875000D03*
%TD*%
D19*
%TO.P,D1,2*%
%TO.N,GND*%
X137225000Y-130925000D03*
%TO.P,D1,1*%
%TO.N,Net-(C1-Pad1)*%
X137225000Y-134925000D03*
%TD*%
D20*
%TO.P,-12v,1*%
%TO.N,+12V*%
X136720000Y-115445000D03*
%TO.P,-12v,2*%
X142180000Y-115445000D03*
%TO.P,-12v,3*%
%TO.N,0V*%
X136720000Y-117985000D03*
%TO.P,-12v,4*%
X142180000Y-117985000D03*
%TO.P,-12v,5*%
X136720000Y-120525000D03*
%TO.P,-12v,6*%
X142180000Y-120525000D03*
%TO.P,-12v,7*%
X136720000Y-123065000D03*
%TO.P,-12v,8*%
X142180000Y-123065000D03*
%TO.P,-12v,9*%
%TO.N,-12V*%
X136720000Y-125605000D03*
%TO.P,-12v,10*%
X142180000Y-125605000D03*
%TD*%
D21*
%TO.N,Net-(C1-Pad1)*%
X139500000Y-136325000D03*
%TO.N,+Vin*%
X139225000Y-137850000D03*
%TO.N,-Vin*%
X143525000Y-128625000D03*
%TO.N,GND*%
X143725000Y-133300000D03*
%TD*%
D22*
%TO.N,Net-(C1-Pad1)*%
X143125000Y-137362500D02*
X143125000Y-137875000D01*
X140687500Y-134925000D02*
X140937500Y-135175000D01*
X137225000Y-134925000D02*
X140687500Y-134925000D01*
X141275000Y-134837500D02*
X140937500Y-135175000D01*
X141275000Y-132550000D02*
X141275000Y-134837500D01*
X139806250Y-136631250D02*
X139500000Y-136325000D01*
X140937500Y-135175000D02*
X142393750Y-136631250D01*
X142393750Y-136631250D02*
X139806250Y-136631250D01*
X142393750Y-136631250D02*
X143125000Y-137362500D01*
%TO.N,+5V*%
X141025000Y-142437500D02*
X141025000Y-138825000D01*
X136825000Y-146637500D02*
X141025000Y-142437500D01*
%TO.N,0V*%
X141190000Y-84010000D02*
X140725000Y-84475000D01*
X142975000Y-84010000D02*
X141190000Y-84010000D01*
X139925000Y-85275000D02*
X140725000Y-84475000D01*
X136900000Y-85275000D02*
X139925000Y-85275000D01*
X136825000Y-85350000D02*
X136900000Y-85275000D01*
X136355000Y-66140000D02*
X135400000Y-65185000D01*
X137850000Y-66140000D02*
X136355000Y-66140000D01*
X138310000Y-66600000D02*
X137850000Y-66140000D01*
X141900000Y-66600000D02*
X138310000Y-66600000D01*
X142675000Y-57050000D02*
X143900000Y-58275000D01*
X143900000Y-64600000D02*
X141900000Y-66600000D01*
X143900000Y-58275000D02*
X143900000Y-64600000D01*
X136720000Y-120525000D02*
X142180000Y-120525000D01*
X139415000Y-123065000D02*
X142180000Y-123065000D01*
X136720000Y-123065000D02*
X139415000Y-123065000D01*
X139460000Y-123020000D02*
X139415000Y-123065000D01*
X139460000Y-117985000D02*
X142180000Y-117985000D01*
X136900000Y-88950000D02*
X136200000Y-89650000D01*
X136900000Y-85275000D02*
X136900000Y-88950000D01*
X136200000Y-92587500D02*
X136012500Y-92775000D01*
X136200000Y-89650000D02*
X136200000Y-92587500D01*
X136720000Y-117985000D02*
X136285000Y-117985000D01*
X135099999Y-93687501D02*
X136012500Y-92775000D01*
X135099999Y-116799999D02*
X135099999Y-93687501D01*
X136285000Y-117985000D02*
X135099999Y-116799999D01*
X139325000Y-120525000D02*
X139460000Y-120660000D01*
X136720000Y-120525000D02*
X139325000Y-120525000D01*
X139460000Y-120660000D02*
X139460000Y-123020000D01*
X139460000Y-117985000D02*
X139460000Y-120660000D01*
X136720000Y-117985000D02*
X139460000Y-117985000D01*
%TO.N,-12V*%
X141870000Y-81935000D02*
X142975000Y-83040000D01*
X140725000Y-81935000D02*
X141870000Y-81935000D01*
X136910000Y-81935000D02*
X136900000Y-81925000D01*
X140725000Y-81935000D02*
X136910000Y-81935000D01*
X142180000Y-125605000D02*
X136720000Y-125605000D01*
X143295000Y-83040000D02*
X142975000Y-83040000D01*
X143645010Y-83390010D02*
X143295000Y-83040000D01*
X143800001Y-103525001D02*
X139000000Y-98725000D01*
X139000000Y-98725000D02*
X139000000Y-89650000D01*
X143800001Y-123984999D02*
X143800001Y-103525001D01*
X142180000Y-125605000D02*
X143800001Y-123984999D01*
X139000000Y-89650000D02*
X139000000Y-89525000D01*
X139000000Y-89525000D02*
X139625000Y-88900000D01*
X143645010Y-85889492D02*
X143645010Y-83390010D01*
X140634502Y-88900000D02*
X143645010Y-85889492D01*
X139625000Y-88900000D02*
X140634502Y-88900000D01*
%TO.N,+12V*%
X136720000Y-115445000D02*
X142180000Y-115445000D01*
X137235000Y-64215000D02*
X137850000Y-63600000D01*
X135400000Y-64215000D02*
X137235000Y-64215000D01*
X138200000Y-63250000D02*
X137850000Y-63600000D01*
X141900000Y-63250000D02*
X138200000Y-63250000D01*
X142675000Y-62475000D02*
X141900000Y-63250000D01*
X142675000Y-59850000D02*
X142675000Y-62475000D01*
D23*
X136720000Y-114555000D02*
X139400000Y-111875000D01*
X136720000Y-115445000D02*
X136720000Y-114555000D01*
D22*
%TO.N,Net-(F1-Pad1)*%
X138212500Y-152300000D02*
X136825000Y-150912500D01*
X140725000Y-152300000D02*
X138212500Y-152300000D01*
D23*
%TO.N,+Vin*%
X141900000Y-109375000D02*
X141900000Y-106875000D01*
D22*
X140849999Y-129324999D02*
X141275000Y-129750000D01*
X136094999Y-129324999D02*
X140849999Y-129324999D01*
X136024999Y-129394999D02*
X136094999Y-129324999D01*
X136024999Y-136455001D02*
X136024999Y-129394999D01*
X136094999Y-136525001D02*
X136024999Y-136455001D01*
X137900001Y-136525001D02*
X136094999Y-136525001D01*
X139225000Y-137850000D02*
X137900001Y-136525001D01*
%TO.N,-Vin*%
X142425000Y-129725000D02*
X143525000Y-128625000D01*
X142425000Y-129750000D02*
X142425000Y-129725000D01*
%TO.N,Net-(R1-Pad1)*%
X137887500Y-100362500D02*
X139400000Y-101875000D01*
X137887500Y-92775000D02*
X137887500Y-100362500D01*
%TO.N,GND*%
X143125000Y-142900000D02*
X140725000Y-145300000D01*
X143125000Y-139775000D02*
X143125000Y-142900000D01*
X142425000Y-134787500D02*
X142812500Y-135175000D01*
X142425000Y-132550000D02*
X142425000Y-134787500D01*
X140930002Y-130925000D02*
X142425000Y-132419998D01*
X142425000Y-132419998D02*
X142425000Y-132550000D01*
X137225000Y-130925000D02*
X140930002Y-130925000D01*
D23*
X142975000Y-132550000D02*
X143725000Y-133300000D01*
X142425000Y-132550000D02*
X142975000Y-132550000D01*
%TD*%
D24*
%TO.N,0V*%
G36*
X145048685Y-127349306D02*
G01*
X135210000Y-127451579D01*
X135210000Y-126830770D01*
X135325518Y-126865812D01*
X135450000Y-126878072D01*
X137990000Y-126878072D01*
X138114482Y-126865812D01*
X138234180Y-126829502D01*
X138344494Y-126770537D01*
X138441185Y-126691185D01*
X138520537Y-126594494D01*
X138579502Y-126484180D01*
X138608071Y-126390000D01*
X140291929Y-126390000D01*
X140320498Y-126484180D01*
X140379463Y-126594494D01*
X140458815Y-126691185D01*
X140555506Y-126770537D01*
X140665820Y-126829502D01*
X140785518Y-126865812D01*
X140910000Y-126878072D01*
X143450000Y-126878072D01*
X143574482Y-126865812D01*
X143694180Y-126829502D01*
X143804494Y-126770537D01*
X143901185Y-126691185D01*
X143980537Y-126594494D01*
X144039502Y-126484180D01*
X144075812Y-126364482D01*
X144088072Y-126240000D01*
X144088072Y-124970000D01*
X144075812Y-124845518D01*
X144069721Y-124825437D01*
X144327818Y-124567340D01*
X144357765Y-124542763D01*
X144455863Y-124423232D01*
X144528755Y-124286859D01*
X144573642Y-124138886D01*
X144585001Y-124023560D01*
X144585001Y-124023553D01*
X144588798Y-123985000D01*
X144585001Y-123946447D01*
X144585001Y-103563557D01*
X144588798Y-103525001D01*
X144585001Y-103486445D01*
X144585001Y-103486440D01*
X144581021Y-103446027D01*
X144573643Y-103371114D01*
X144528755Y-103223141D01*
X144512077Y-103191939D01*
X144455863Y-103086768D01*
X144357765Y-102967237D01*
X144327811Y-102942654D01*
X139785000Y-98399843D01*
X139785000Y-98347940D01*
X140015668Y-98502067D01*
X140288195Y-98614952D01*
X140577509Y-98672500D01*
X140872491Y-98672500D01*
X141161805Y-98614952D01*
X141434332Y-98502067D01*
X141679601Y-98338184D01*
X141888184Y-98129601D01*
X142052067Y-97884332D01*
X142164952Y-97611805D01*
X142222500Y-97322491D01*
X142222500Y-97027509D01*
X142164952Y-96738195D01*
X142052067Y-96465668D01*
X141888184Y-96220399D01*
X141679601Y-96011816D01*
X141519739Y-95905000D01*
X141679601Y-95798184D01*
X141888184Y-95589601D01*
X142052067Y-95344332D01*
X142164952Y-95071805D01*
X142222500Y-94782491D01*
X142222500Y-94487509D01*
X142164952Y-94198195D01*
X142052067Y-93925668D01*
X141888184Y-93680399D01*
X141679601Y-93471816D01*
X141519739Y-93365000D01*
X141679601Y-93258184D01*
X141888184Y-93049601D01*
X142052067Y-92804332D01*
X142164952Y-92531805D01*
X142222500Y-92242491D01*
X142222500Y-91947509D01*
X142164952Y-91658195D01*
X142052067Y-91385668D01*
X141888184Y-91140399D01*
X141679601Y-90931816D01*
X141434332Y-90767933D01*
X141161805Y-90655048D01*
X140872491Y-90597500D01*
X140577509Y-90597500D01*
X140288195Y-90655048D01*
X140015668Y-90767933D01*
X139785000Y-90922060D01*
X139785000Y-90792287D01*
X139794180Y-90789502D01*
X139904494Y-90730537D01*
X140001185Y-90651185D01*
X140080537Y-90554494D01*
X140139502Y-90444180D01*
X140175812Y-90324482D01*
X140188072Y-90200000D01*
X140188072Y-89685000D01*
X140595949Y-89685000D01*
X140634502Y-89688797D01*
X140673055Y-89685000D01*
X140673063Y-89685000D01*
X140788389Y-89673641D01*
X140936362Y-89628754D01*
X141072735Y-89555862D01*
X141192266Y-89457764D01*
X141216849Y-89427810D01*
X144172827Y-86471833D01*
X144202774Y-86447256D01*
X144300872Y-86327725D01*
X144373764Y-86191352D01*
X144418651Y-86043379D01*
X144430010Y-85928053D01*
X144430010Y-85928046D01*
X144433807Y-85889493D01*
X144430010Y-85850940D01*
X144430010Y-83428566D01*
X144433807Y-83390010D01*
X144430010Y-83351454D01*
X144430010Y-83351449D01*
X144421379Y-83263815D01*
X144418652Y-83236123D01*
X144373764Y-83088150D01*
X144358814Y-83060180D01*
X144300872Y-82951777D01*
X144202774Y-82832246D01*
X144172820Y-82807663D01*
X143877347Y-82512190D01*
X143852764Y-82482236D01*
X143759027Y-82405307D01*
X143702983Y-82337017D01*
X143583940Y-82239321D01*
X143448125Y-82166726D01*
X143300757Y-82122023D01*
X143152587Y-82107429D01*
X142452345Y-81407188D01*
X142427764Y-81377236D01*
X142308233Y-81279138D01*
X142171860Y-81206246D01*
X142023887Y-81161359D01*
X142008055Y-81159800D01*
X141888184Y-80980399D01*
X141679601Y-80771816D01*
X141519739Y-80665000D01*
X141679601Y-80558184D01*
X141888184Y-80349601D01*
X142052067Y-80104332D01*
X142164952Y-79831805D01*
X142222500Y-79542491D01*
X142222500Y-79247509D01*
X142164952Y-78958195D01*
X142052067Y-78685668D01*
X141888184Y-78440399D01*
X141679601Y-78231816D01*
X141434332Y-78067933D01*
X141161805Y-77955048D01*
X140872491Y-77897500D01*
X140577509Y-77897500D01*
X140288195Y-77955048D01*
X140015668Y-78067933D01*
X139770399Y-78231816D01*
X139561816Y-78440399D01*
X139397933Y-78685668D01*
X139285048Y-78958195D01*
X139227500Y-79247509D01*
X139227500Y-79542491D01*
X139285048Y-79831805D01*
X139397933Y-80104332D01*
X139561816Y-80349601D01*
X139770399Y-80558184D01*
X139930261Y-80665000D01*
X139770399Y-80771816D01*
X139561816Y-80980399D01*
X139448493Y-81150000D01*
X138338072Y-81150000D01*
X138338072Y-80850000D01*
X138321008Y-80676746D01*
X138270472Y-80510150D01*
X138188405Y-80356614D01*
X138077962Y-80222038D01*
X137943386Y-80111595D01*
X137789850Y-80029528D01*
X137623254Y-79978992D01*
X137450000Y-79961928D01*
X136350000Y-79961928D01*
X136176746Y-79978992D01*
X136010150Y-80029528D01*
X135856614Y-80111595D01*
X135722038Y-80222038D01*
X135611595Y-80356614D01*
X135529528Y-80510150D01*
X135478992Y-80676746D01*
X135461928Y-80850000D01*
X135461928Y-83000000D01*
X135478992Y-83173254D01*
X135529528Y-83339850D01*
X135611595Y-83493386D01*
X135632433Y-83518777D01*
X135569463Y-83595506D01*
X135510498Y-83705820D01*
X135474188Y-83825518D01*
X135461928Y-83950000D01*
X135465000Y-84989250D01*
X135623750Y-85148000D01*
X136773000Y-85148000D01*
X136773000Y-85128000D01*
X137027000Y-85128000D01*
X137027000Y-85148000D01*
X138176250Y-85148000D01*
X138335000Y-84989250D01*
X138336318Y-84543037D01*
X139221792Y-84543037D01*
X139263949Y-84834991D01*
X139362253Y-85113111D01*
X139437330Y-85253566D01*
X139687681Y-85332714D01*
X140545395Y-84475000D01*
X139687681Y-83617286D01*
X139437330Y-83696434D01*
X139310180Y-83962606D01*
X139237403Y-84248468D01*
X139221792Y-84543037D01*
X138336318Y-84543037D01*
X138338072Y-83950000D01*
X138325812Y-83825518D01*
X138289502Y-83705820D01*
X138230537Y-83595506D01*
X138167567Y-83518777D01*
X138188405Y-83493386D01*
X138270472Y-83339850D01*
X138321008Y-83173254D01*
X138338072Y-83000000D01*
X138338072Y-82720000D01*
X139448493Y-82720000D01*
X139561816Y-82889601D01*
X139770399Y-83098184D01*
X139939001Y-83210840D01*
X139867286Y-83437681D01*
X140725000Y-84295395D01*
X141582714Y-83437681D01*
X141510999Y-83210840D01*
X141679601Y-83098184D01*
X141801314Y-82976471D01*
X142017429Y-83192587D01*
X142032023Y-83340757D01*
X142069312Y-83463684D01*
X142065498Y-83470820D01*
X142029188Y-83590518D01*
X142017810Y-83706049D01*
X142012670Y-83696434D01*
X141762319Y-83617286D01*
X140904605Y-84475000D01*
X141762319Y-85332714D01*
X142012670Y-85253566D01*
X142139820Y-84987394D01*
X142199898Y-84751412D01*
X142203815Y-84756185D01*
X142300506Y-84835537D01*
X142410820Y-84894502D01*
X142530518Y-84930812D01*
X142655000Y-84943072D01*
X142689250Y-84940000D01*
X142847998Y-84781252D01*
X142847998Y-84940000D01*
X142860010Y-84940000D01*
X142860010Y-85564334D01*
X142071577Y-86352768D01*
X142052067Y-86305668D01*
X141888184Y-86060399D01*
X141679601Y-85851816D01*
X141510999Y-85739160D01*
X141582714Y-85512319D01*
X140725000Y-84654605D01*
X139867286Y-85512319D01*
X139939001Y-85739160D01*
X139770399Y-85851816D01*
X139561816Y-86060399D01*
X139397933Y-86305668D01*
X139285048Y-86578195D01*
X139227500Y-86867509D01*
X139227500Y-87162491D01*
X139285048Y-87451805D01*
X139397933Y-87724332D01*
X139561816Y-87969601D01*
X139707215Y-88115000D01*
X139663552Y-88115000D01*
X139624999Y-88111203D01*
X139586446Y-88115000D01*
X139586439Y-88115000D01*
X139485490Y-88124943D01*
X139471112Y-88126359D01*
X139436672Y-88136806D01*
X139323140Y-88171246D01*
X139186767Y-88244138D01*
X139126559Y-88293550D01*
X139097187Y-88317655D01*
X139097184Y-88317658D01*
X139067236Y-88342236D01*
X139042657Y-88372185D01*
X138952914Y-88461928D01*
X138450000Y-88461928D01*
X138325518Y-88474188D01*
X138205820Y-88510498D01*
X138095506Y-88569463D01*
X137998815Y-88648815D01*
X137919463Y-88745506D01*
X137860498Y-88855820D01*
X137824188Y-88975518D01*
X137811928Y-89100000D01*
X137811928Y-90200000D01*
X137824188Y-90324482D01*
X137860498Y-90444180D01*
X137919463Y-90554494D01*
X137998815Y-90651185D01*
X138095506Y-90730537D01*
X138205820Y-90789502D01*
X138215001Y-90792287D01*
X138215001Y-91445177D01*
X138131250Y-91436928D01*
X137643750Y-91436928D01*
X137471715Y-91453872D01*
X137306291Y-91504053D01*
X137153836Y-91585542D01*
X137020208Y-91695208D01*
X137014992Y-91701564D01*
X136951185Y-91623815D01*
X136854494Y-91544463D01*
X136744180Y-91485498D01*
X136624482Y-91449188D01*
X136500000Y-91436928D01*
X136298250Y-91440000D01*
X136139500Y-91598750D01*
X136139500Y-92648000D01*
X136159500Y-92648000D01*
X136159500Y-92902000D01*
X136139500Y-92902000D01*
X136139500Y-93951250D01*
X136298250Y-94110000D01*
X136500000Y-94113072D01*
X136624482Y-94100812D01*
X136744180Y-94064502D01*
X136854494Y-94005537D01*
X136951185Y-93926185D01*
X137014992Y-93848436D01*
X137020208Y-93854792D01*
X137102500Y-93922328D01*
X137102501Y-100323937D01*
X137098703Y-100362500D01*
X137113859Y-100516386D01*
X137158746Y-100664359D01*
X137158747Y-100664360D01*
X137231639Y-100800733D01*
X137272190Y-100850144D01*
X137305155Y-100890312D01*
X137305159Y-100890316D01*
X137329737Y-100920264D01*
X137359685Y-100944842D01*
X138165532Y-101750689D01*
X138165000Y-101753363D01*
X138165000Y-101996637D01*
X138212460Y-102235236D01*
X138305557Y-102459992D01*
X138440713Y-102662267D01*
X138612733Y-102834287D01*
X138815008Y-102969443D01*
X139039764Y-103062540D01*
X139278363Y-103110000D01*
X139521637Y-103110000D01*
X139760236Y-103062540D01*
X139984992Y-102969443D01*
X140187267Y-102834287D01*
X140359287Y-102662267D01*
X140494443Y-102459992D01*
X140587540Y-102235236D01*
X140635000Y-101996637D01*
X140635000Y-101753363D01*
X140587540Y-101514764D01*
X140522439Y-101357596D01*
X142247889Y-103083046D01*
X142031486Y-103040000D01*
X141768514Y-103040000D01*
X141510595Y-103091304D01*
X141267641Y-103191939D01*
X141048987Y-103338038D01*
X140863038Y-103523987D01*
X140716939Y-103742641D01*
X140616304Y-103985595D01*
X140565000Y-104243514D01*
X140565000Y-104506486D01*
X140616304Y-104764405D01*
X140716939Y-105007359D01*
X140863038Y-105226013D01*
X141048987Y-105411962D01*
X141267641Y-105558061D01*
X141429246Y-105625000D01*
X141267641Y-105691939D01*
X141048987Y-105838038D01*
X140863038Y-106023987D01*
X140716939Y-106242641D01*
X140616304Y-106485595D01*
X140565000Y-106743514D01*
X140565000Y-107006486D01*
X140616304Y-107264405D01*
X140716939Y-107507359D01*
X140863038Y-107726013D01*
X141048987Y-107911962D01*
X141140001Y-107972775D01*
X141140000Y-108277225D01*
X141048987Y-108338038D01*
X140863038Y-108523987D01*
X140716939Y-108742641D01*
X140616304Y-108985595D01*
X140565000Y-109243514D01*
X140565000Y-109506486D01*
X140616304Y-109764405D01*
X140716939Y-110007359D01*
X140863038Y-110226013D01*
X141048987Y-110411962D01*
X141267641Y-110558061D01*
X141510595Y-110658696D01*
X141768514Y-110710000D01*
X142031486Y-110710000D01*
X142289405Y-110658696D01*
X142532359Y-110558061D01*
X142751013Y-110411962D01*
X142936962Y-110226013D01*
X143015002Y-110109218D01*
X143015001Y-114171928D01*
X140910000Y-114171928D01*
X140785518Y-114184188D01*
X140665820Y-114220498D01*
X140555506Y-114279463D01*
X140458815Y-114358815D01*
X140379463Y-114455506D01*
X140320498Y-114565820D01*
X140291929Y-114660000D01*
X138608071Y-114660000D01*
X138579502Y-114565820D01*
X138520537Y-114455506D01*
X138441185Y-114358815D01*
X138344494Y-114279463D01*
X138234180Y-114220498D01*
X138153713Y-114196089D01*
X139246199Y-113103602D01*
X139278363Y-113110000D01*
X139521637Y-113110000D01*
X139760236Y-113062540D01*
X139984992Y-112969443D01*
X140187267Y-112834287D01*
X140359287Y-112662267D01*
X140494443Y-112459992D01*
X140587540Y-112235236D01*
X140635000Y-111996637D01*
X140635000Y-111753363D01*
X140587540Y-111514764D01*
X140494443Y-111290008D01*
X140359287Y-111087733D01*
X140187267Y-110915713D01*
X139984992Y-110780557D01*
X139760236Y-110687460D01*
X139521637Y-110640000D01*
X139278363Y-110640000D01*
X139039764Y-110687460D01*
X138815008Y-110780557D01*
X138612733Y-110915713D01*
X138440713Y-111087733D01*
X138305557Y-111290008D01*
X138212460Y-111514764D01*
X138165000Y-111753363D01*
X138165000Y-111996637D01*
X138171398Y-112028801D01*
X136208998Y-113991201D01*
X136180000Y-114014999D01*
X136156202Y-114043997D01*
X136156201Y-114043998D01*
X136085026Y-114130724D01*
X136063002Y-114171928D01*
X135450000Y-114171928D01*
X135325518Y-114184188D01*
X135210000Y-114219230D01*
X135210000Y-104243514D01*
X135565000Y-104243514D01*
X135565000Y-104506486D01*
X135616304Y-104764405D01*
X135716939Y-105007359D01*
X135863038Y-105226013D01*
X136048987Y-105411962D01*
X136267641Y-105558061D01*
X136429246Y-105625000D01*
X136267641Y-105691939D01*
X136048987Y-105838038D01*
X135863038Y-106023987D01*
X135716939Y-106242641D01*
X135616304Y-106485595D01*
X135565000Y-106743514D01*
X135565000Y-107006486D01*
X135616304Y-107264405D01*
X135716939Y-107507359D01*
X135863038Y-107726013D01*
X136048987Y-107911962D01*
X136267641Y-108058061D01*
X136429246Y-108125000D01*
X136267641Y-108191939D01*
X136048987Y-108338038D01*
X135863038Y-108523987D01*
X135716939Y-108742641D01*
X135616304Y-108985595D01*
X135565000Y-109243514D01*
X135565000Y-109506486D01*
X135616304Y-109764405D01*
X135716939Y-110007359D01*
X135863038Y-110226013D01*
X136048987Y-110411962D01*
X136267641Y-110558061D01*
X136510595Y-110658696D01*
X136768514Y-110710000D01*
X137031486Y-110710000D01*
X137289405Y-110658696D01*
X137532359Y-110558061D01*
X137751013Y-110411962D01*
X137936962Y-110226013D01*
X138083061Y-110007359D01*
X138183696Y-109764405D01*
X138235000Y-109506486D01*
X138235000Y-109243514D01*
X138183696Y-108985595D01*
X138083061Y-108742641D01*
X137936962Y-108523987D01*
X137751013Y-108338038D01*
X137532359Y-108191939D01*
X137370754Y-108125000D01*
X137532359Y-108058061D01*
X137751013Y-107911962D01*
X137936962Y-107726013D01*
X138083061Y-107507359D01*
X138183696Y-107264405D01*
X138235000Y-107006486D01*
X138235000Y-106743514D01*
X138183696Y-106485595D01*
X138083061Y-106242641D01*
X137936962Y-106023987D01*
X137751013Y-105838038D01*
X137532359Y-105691939D01*
X137370754Y-105625000D01*
X137532359Y-105558061D01*
X137751013Y-105411962D01*
X137936962Y-105226013D01*
X138083061Y-105007359D01*
X138183696Y-104764405D01*
X138235000Y-104506486D01*
X138235000Y-104243514D01*
X138183696Y-103985595D01*
X138083061Y-103742641D01*
X137936962Y-103523987D01*
X137751013Y-103338038D01*
X137532359Y-103191939D01*
X137289405Y-103091304D01*
X137031486Y-103040000D01*
X136768514Y-103040000D01*
X136510595Y-103091304D01*
X136267641Y-103191939D01*
X136048987Y-103338038D01*
X135863038Y-103523987D01*
X135716939Y-103742641D01*
X135616304Y-103985595D01*
X135565000Y-104243514D01*
X135210000Y-104243514D01*
X135210000Y-94026647D01*
X135280820Y-94064502D01*
X135400518Y-94100812D01*
X135525000Y-94113072D01*
X135726750Y-94110000D01*
X135885500Y-93951250D01*
X135885500Y-92902000D01*
X135865500Y-92902000D01*
X135865500Y-92648000D01*
X135885500Y-92648000D01*
X135885500Y-91598750D01*
X135726750Y-91440000D01*
X135525000Y-91436928D01*
X135400518Y-91449188D01*
X135280820Y-91485498D01*
X135210000Y-91523353D01*
X135210000Y-90660364D01*
X135295506Y-90730537D01*
X135405820Y-90789502D01*
X135525518Y-90825812D01*
X135650000Y-90838072D01*
X135914250Y-90835000D01*
X136073000Y-90676250D01*
X136073000Y-89777000D01*
X136327000Y-89777000D01*
X136327000Y-90676250D01*
X136485750Y-90835000D01*
X136750000Y-90838072D01*
X136874482Y-90825812D01*
X136994180Y-90789502D01*
X137104494Y-90730537D01*
X137201185Y-90651185D01*
X137280537Y-90554494D01*
X137339502Y-90444180D01*
X137375812Y-90324482D01*
X137388072Y-90200000D01*
X137385000Y-89935750D01*
X137226250Y-89777000D01*
X136327000Y-89777000D01*
X136073000Y-89777000D01*
X136053000Y-89777000D01*
X136053000Y-89523000D01*
X136073000Y-89523000D01*
X136073000Y-88623750D01*
X136327000Y-88623750D01*
X136327000Y-89523000D01*
X137226250Y-89523000D01*
X137385000Y-89364250D01*
X137388072Y-89100000D01*
X137375812Y-88975518D01*
X137339502Y-88855820D01*
X137280537Y-88745506D01*
X137201185Y-88648815D01*
X137104494Y-88569463D01*
X136994180Y-88510498D01*
X136874482Y-88474188D01*
X136750000Y-88461928D01*
X136485750Y-88465000D01*
X136327000Y-88623750D01*
X136073000Y-88623750D01*
X135914250Y-88465000D01*
X135650000Y-88461928D01*
X135525518Y-88474188D01*
X135405820Y-88510498D01*
X135295506Y-88569463D01*
X135210000Y-88639636D01*
X135210000Y-86600000D01*
X135461928Y-86600000D01*
X135474188Y-86724482D01*
X135510498Y-86844180D01*
X135569463Y-86954494D01*
X135648815Y-87051185D01*
X135745506Y-87130537D01*
X135855820Y-87189502D01*
X135975518Y-87225812D01*
X136100000Y-87238072D01*
X136614250Y-87235000D01*
X136773000Y-87076250D01*
X136773000Y-85402000D01*
X137027000Y-85402000D01*
X137027000Y-87076250D01*
X137185750Y-87235000D01*
X137700000Y-87238072D01*
X137824482Y-87225812D01*
X137944180Y-87189502D01*
X138054494Y-87130537D01*
X138151185Y-87051185D01*
X138230537Y-86954494D01*
X138289502Y-86844180D01*
X138325812Y-86724482D01*
X138338072Y-86600000D01*
X138335000Y-85560750D01*
X138176250Y-85402000D01*
X137027000Y-85402000D01*
X136773000Y-85402000D01*
X135623750Y-85402000D01*
X135465000Y-85560750D01*
X135461928Y-86600000D01*
X135210000Y-86600000D01*
X135210000Y-73803796D01*
X137254082Y-73803796D01*
X137254082Y-74246204D01*
X137340391Y-74680110D01*
X137509693Y-75088841D01*
X137755482Y-75456689D01*
X138068311Y-75769518D01*
X138436159Y-76015307D01*
X138844890Y-76184609D01*
X139278796Y-76270918D01*
X139721204Y-76270918D01*
X140155110Y-76184609D01*
X140563841Y-76015307D01*
X140931689Y-75769518D01*
X141244518Y-75456689D01*
X141490307Y-75088841D01*
X141659609Y-74680110D01*
X141745918Y-74246204D01*
X141745918Y-73803796D01*
X141659609Y-73369890D01*
X141490307Y-72961159D01*
X141244518Y-72593311D01*
X140931689Y-72280482D01*
X140563841Y-72034693D01*
X140155110Y-71865391D01*
X139721204Y-71779082D01*
X139278796Y-71779082D01*
X138844890Y-71865391D01*
X138436159Y-72034693D01*
X138068311Y-72280482D01*
X137755482Y-72593311D01*
X137509693Y-72961159D01*
X137340391Y-73369890D01*
X137254082Y-73803796D01*
X135210000Y-73803796D01*
X135210000Y-68532509D01*
X136352500Y-68532509D01*
X136352500Y-68827491D01*
X136410048Y-69116805D01*
X136522933Y-69389332D01*
X136686816Y-69634601D01*
X136895399Y-69843184D01*
X137140668Y-70007067D01*
X137413195Y-70119952D01*
X137702509Y-70177500D01*
X137997491Y-70177500D01*
X138286805Y-70119952D01*
X138559332Y-70007067D01*
X138804601Y-69843184D01*
X139013184Y-69634601D01*
X139177067Y-69389332D01*
X139289952Y-69116805D01*
X139347500Y-68827491D01*
X139347500Y-68532509D01*
X139289952Y-68243195D01*
X139177067Y-67970668D01*
X139146553Y-67925000D01*
X140461928Y-67925000D01*
X140474188Y-68049482D01*
X140510498Y-68169180D01*
X140569463Y-68279494D01*
X140648815Y-68376185D01*
X140745506Y-68455537D01*
X140855820Y-68514502D01*
X140975518Y-68550812D01*
X141100000Y-68563072D01*
X141614250Y-68560000D01*
X141773000Y-68401250D01*
X141773000Y-66727000D01*
X142027000Y-66727000D01*
X142027000Y-68401250D01*
X142185750Y-68560000D01*
X142700000Y-68563072D01*
X142824482Y-68550812D01*
X142944180Y-68514502D01*
X143054494Y-68455537D01*
X143151185Y-68376185D01*
X143230537Y-68279494D01*
X143289502Y-68169180D01*
X143325812Y-68049482D01*
X143338072Y-67925000D01*
X143335000Y-66885750D01*
X143176250Y-66727000D01*
X142027000Y-66727000D01*
X141773000Y-66727000D01*
X140623750Y-66727000D01*
X140465000Y-66885750D01*
X140461928Y-67925000D01*
X139146553Y-67925000D01*
X139013184Y-67725399D01*
X138804601Y-67516816D01*
X138635999Y-67404160D01*
X138707714Y-67177319D01*
X137850000Y-66319605D01*
X136992286Y-67177319D01*
X137064001Y-67404160D01*
X136895399Y-67516816D01*
X136686816Y-67725399D01*
X136522933Y-67970668D01*
X136410048Y-68243195D01*
X136352500Y-68532509D01*
X135210000Y-68532509D01*
X135210000Y-66208037D01*
X136346792Y-66208037D01*
X136388949Y-66499991D01*
X136487253Y-66778111D01*
X136562330Y-66918566D01*
X136812681Y-66997714D01*
X137670395Y-66140000D01*
X138029605Y-66140000D01*
X138887319Y-66997714D01*
X139137670Y-66918566D01*
X139264820Y-66652394D01*
X139337597Y-66366532D01*
X139353208Y-66071963D01*
X139311051Y-65780009D01*
X139212747Y-65501889D01*
X139137670Y-65361434D01*
X138887319Y-65282286D01*
X138029605Y-66140000D01*
X137670395Y-66140000D01*
X136812681Y-65282286D01*
X136562330Y-65361434D01*
X136435180Y-65627606D01*
X136362403Y-65913468D01*
X136346792Y-66208037D01*
X135210000Y-66208037D01*
X135210000Y-66019250D01*
X135273000Y-65956250D01*
X135273000Y-65312000D01*
X135527000Y-65312000D01*
X135527000Y-65956250D01*
X135685750Y-66115000D01*
X135720000Y-66118072D01*
X135844482Y-66105812D01*
X135964180Y-66069502D01*
X136074494Y-66010537D01*
X136171185Y-65931185D01*
X136250537Y-65834494D01*
X136309502Y-65724180D01*
X136345812Y-65604482D01*
X136358072Y-65480000D01*
X136355000Y-65470750D01*
X136196250Y-65312000D01*
X135527000Y-65312000D01*
X135273000Y-65312000D01*
X135253000Y-65312000D01*
X135253000Y-65148072D01*
X135572500Y-65148072D01*
X135725757Y-65132977D01*
X135873125Y-65088274D01*
X135929763Y-65058000D01*
X136196250Y-65058000D01*
X136254250Y-65000000D01*
X137024748Y-65000000D01*
X136992286Y-65102681D01*
X137850000Y-65960395D01*
X138707714Y-65102681D01*
X138635999Y-64875840D01*
X138804601Y-64763184D01*
X139013184Y-64554601D01*
X139177067Y-64309332D01*
X139289952Y-64036805D01*
X139290311Y-64035000D01*
X140461928Y-64035000D01*
X140461928Y-64325000D01*
X140478992Y-64498254D01*
X140529528Y-64664850D01*
X140611595Y-64818386D01*
X140632433Y-64843777D01*
X140569463Y-64920506D01*
X140510498Y-65030820D01*
X140474188Y-65150518D01*
X140461928Y-65275000D01*
X140465000Y-66314250D01*
X140623750Y-66473000D01*
X141773000Y-66473000D01*
X141773000Y-66453000D01*
X142027000Y-66453000D01*
X142027000Y-66473000D01*
X143176250Y-66473000D01*
X143335000Y-66314250D01*
X143338072Y-65275000D01*
X143325812Y-65150518D01*
X143289502Y-65030820D01*
X143230537Y-64920506D01*
X143167567Y-64843777D01*
X143188405Y-64818386D01*
X143270472Y-64664850D01*
X143321008Y-64498254D01*
X143338072Y-64325000D01*
X143338072Y-62899744D01*
X143403754Y-62776860D01*
X143420339Y-62722188D01*
X143448642Y-62628887D01*
X143459243Y-62521246D01*
X143460000Y-62513561D01*
X143460000Y-62513556D01*
X143463797Y-62475000D01*
X143460000Y-62436444D01*
X143460000Y-60992287D01*
X143469180Y-60989502D01*
X143579494Y-60930537D01*
X143676185Y-60851185D01*
X143755537Y-60754494D01*
X143814502Y-60644180D01*
X143850812Y-60524482D01*
X143863072Y-60400000D01*
X143863072Y-59300000D01*
X143850812Y-59175518D01*
X143814502Y-59055820D01*
X143755537Y-58945506D01*
X143676185Y-58848815D01*
X143579494Y-58769463D01*
X143469180Y-58710498D01*
X143349482Y-58674188D01*
X143225000Y-58661928D01*
X142125000Y-58661928D01*
X142000518Y-58674188D01*
X141880820Y-58710498D01*
X141770506Y-58769463D01*
X141673815Y-58848815D01*
X141594463Y-58945506D01*
X141535498Y-59055820D01*
X141499188Y-59175518D01*
X141486928Y-59300000D01*
X141486928Y-60400000D01*
X141499188Y-60524482D01*
X141535498Y-60644180D01*
X141594463Y-60754494D01*
X141673815Y-60851185D01*
X141770506Y-60930537D01*
X141880820Y-60989502D01*
X141890000Y-60992287D01*
X141890001Y-61286928D01*
X141350000Y-61286928D01*
X141176746Y-61303992D01*
X141010150Y-61354528D01*
X140856614Y-61436595D01*
X140722038Y-61547038D01*
X140611595Y-61681614D01*
X140529528Y-61835150D01*
X140478992Y-62001746D01*
X140461928Y-62175000D01*
X140461928Y-62465000D01*
X138832785Y-62465000D01*
X138804601Y-62436816D01*
X138644739Y-62330000D01*
X138804601Y-62223184D01*
X139013184Y-62014601D01*
X139177067Y-61769332D01*
X139289952Y-61496805D01*
X139347500Y-61207491D01*
X139347500Y-60912509D01*
X139289952Y-60623195D01*
X139177067Y-60350668D01*
X139013184Y-60105399D01*
X138804601Y-59896816D01*
X138559332Y-59732933D01*
X138286805Y-59620048D01*
X137997491Y-59562500D01*
X137702509Y-59562500D01*
X137413195Y-59620048D01*
X137140668Y-59732933D01*
X136895399Y-59896816D01*
X136686816Y-60105399D01*
X136522933Y-60350668D01*
X136410048Y-60623195D01*
X136352500Y-60912509D01*
X136352500Y-61207491D01*
X136410048Y-61496805D01*
X136522933Y-61769332D01*
X136686816Y-62014601D01*
X136895399Y-62223184D01*
X137055261Y-62330000D01*
X136895399Y-62436816D01*
X136686816Y-62645399D01*
X136522933Y-62890668D01*
X136410048Y-63163195D01*
X136356977Y-63430000D01*
X136028045Y-63430000D01*
X136008940Y-63414321D01*
X135873125Y-63341726D01*
X135725757Y-63297023D01*
X135572500Y-63281928D01*
X135227500Y-63281928D01*
X135210000Y-63283652D01*
X135210000Y-57600000D01*
X141486928Y-57600000D01*
X141499188Y-57724482D01*
X141535498Y-57844180D01*
X141594463Y-57954494D01*
X141673815Y-58051185D01*
X141770506Y-58130537D01*
X141880820Y-58189502D01*
X142000518Y-58225812D01*
X142125000Y-58238072D01*
X142389250Y-58235000D01*
X142548000Y-58076250D01*
X142548000Y-57177000D01*
X142802000Y-57177000D01*
X142802000Y-58076250D01*
X142960750Y-58235000D01*
X143225000Y-58238072D01*
X143349482Y-58225812D01*
X143469180Y-58189502D01*
X143579494Y-58130537D01*
X143676185Y-58051185D01*
X143755537Y-57954494D01*
X143814502Y-57844180D01*
X143850812Y-57724482D01*
X143863072Y-57600000D01*
X143860000Y-57335750D01*
X143701250Y-57177000D01*
X142802000Y-57177000D01*
X142548000Y-57177000D01*
X141648750Y-57177000D01*
X141490000Y-57335750D01*
X141486928Y-57600000D01*
X135210000Y-57600000D01*
X135210000Y-50752509D01*
X136352500Y-50752509D01*
X136352500Y-51047491D01*
X136410048Y-51336805D01*
X136522933Y-51609332D01*
X136686816Y-51854601D01*
X136895399Y-52063184D01*
X137055261Y-52170000D01*
X136895399Y-52276816D01*
X136686816Y-52485399D01*
X136522933Y-52730668D01*
X136410048Y-53003195D01*
X136352500Y-53292509D01*
X136352500Y-53587491D01*
X136410048Y-53876805D01*
X136522933Y-54149332D01*
X136686816Y-54394601D01*
X136895399Y-54603184D01*
X137055261Y-54710000D01*
X136895399Y-54816816D01*
X136686816Y-55025399D01*
X136522933Y-55270668D01*
X136410048Y-55543195D01*
X136352500Y-55832509D01*
X136352500Y-56127491D01*
X136410048Y-56416805D01*
X136522933Y-56689332D01*
X136686816Y-56934601D01*
X136895399Y-57143184D01*
X137140668Y-57307067D01*
X137413195Y-57419952D01*
X137702509Y-57477500D01*
X137997491Y-57477500D01*
X138286805Y-57419952D01*
X138559332Y-57307067D01*
X138804601Y-57143184D01*
X139013184Y-56934601D01*
X139177067Y-56689332D01*
X139255491Y-56500000D01*
X141486928Y-56500000D01*
X141490000Y-56764250D01*
X141648750Y-56923000D01*
X142548000Y-56923000D01*
X142548000Y-56023750D01*
X142802000Y-56023750D01*
X142802000Y-56923000D01*
X143701250Y-56923000D01*
X143860000Y-56764250D01*
X143863072Y-56500000D01*
X143850812Y-56375518D01*
X143814502Y-56255820D01*
X143755537Y-56145506D01*
X143676185Y-56048815D01*
X143579494Y-55969463D01*
X143469180Y-55910498D01*
X143349482Y-55874188D01*
X143225000Y-55861928D01*
X142960750Y-55865000D01*
X142802000Y-56023750D01*
X142548000Y-56023750D01*
X142389250Y-55865000D01*
X142125000Y-55861928D01*
X142000518Y-55874188D01*
X141880820Y-55910498D01*
X141770506Y-55969463D01*
X141673815Y-56048815D01*
X141594463Y-56145506D01*
X141535498Y-56255820D01*
X141499188Y-56375518D01*
X141486928Y-56500000D01*
X139255491Y-56500000D01*
X139289952Y-56416805D01*
X139347500Y-56127491D01*
X139347500Y-55832509D01*
X139289952Y-55543195D01*
X139177067Y-55270668D01*
X139013184Y-55025399D01*
X138804601Y-54816816D01*
X138644739Y-54710000D01*
X138804601Y-54603184D01*
X139013184Y-54394601D01*
X139177067Y-54149332D01*
X139289952Y-53876805D01*
X139347500Y-53587491D01*
X139347500Y-53292509D01*
X139289952Y-53003195D01*
X139177067Y-52730668D01*
X139013184Y-52485399D01*
X138804601Y-52276816D01*
X138644739Y-52170000D01*
X138804601Y-52063184D01*
X139013184Y-51854601D01*
X139177067Y-51609332D01*
X139289952Y-51336805D01*
X139347500Y-51047491D01*
X139347500Y-50752509D01*
X139289952Y-50463195D01*
X139177067Y-50190668D01*
X139013184Y-49945399D01*
X138804601Y-49736816D01*
X138559332Y-49572933D01*
X138286805Y-49460048D01*
X137997491Y-49402500D01*
X137702509Y-49402500D01*
X137413195Y-49460048D01*
X137140668Y-49572933D01*
X136895399Y-49736816D01*
X136686816Y-49945399D01*
X136522933Y-50190668D01*
X136410048Y-50463195D01*
X136352500Y-50752509D01*
X135210000Y-50752509D01*
X135210000Y-48785000D01*
X145477999Y-48785000D01*
X145048685Y-127349306D01*
G37*
X145048685Y-127349306D02*
X135210000Y-127451579D01*
X135210000Y-126830770D01*
X135325518Y-126865812D01*
X135450000Y-126878072D01*
X137990000Y-126878072D01*
X138114482Y-126865812D01*
X138234180Y-126829502D01*
X138344494Y-126770537D01*
X138441185Y-126691185D01*
X138520537Y-126594494D01*
X138579502Y-126484180D01*
X138608071Y-126390000D01*
X140291929Y-126390000D01*
X140320498Y-126484180D01*
X140379463Y-126594494D01*
X140458815Y-126691185D01*
X140555506Y-126770537D01*
X140665820Y-126829502D01*
X140785518Y-126865812D01*
X140910000Y-126878072D01*
X143450000Y-126878072D01*
X143574482Y-126865812D01*
X143694180Y-126829502D01*
X143804494Y-126770537D01*
X143901185Y-126691185D01*
X143980537Y-126594494D01*
X144039502Y-126484180D01*
X144075812Y-126364482D01*
X144088072Y-126240000D01*
X144088072Y-124970000D01*
X144075812Y-124845518D01*
X144069721Y-124825437D01*
X144327818Y-124567340D01*
X144357765Y-124542763D01*
X144455863Y-124423232D01*
X144528755Y-124286859D01*
X144573642Y-124138886D01*
X144585001Y-124023560D01*
X144585001Y-124023553D01*
X144588798Y-123985000D01*
X144585001Y-123946447D01*
X144585001Y-103563557D01*
X144588798Y-103525001D01*
X144585001Y-103486445D01*
X144585001Y-103486440D01*
X144581021Y-103446027D01*
X144573643Y-103371114D01*
X144528755Y-103223141D01*
X144512077Y-103191939D01*
X144455863Y-103086768D01*
X144357765Y-102967237D01*
X144327811Y-102942654D01*
X139785000Y-98399843D01*
X139785000Y-98347940D01*
X140015668Y-98502067D01*
X140288195Y-98614952D01*
X140577509Y-98672500D01*
X140872491Y-98672500D01*
X141161805Y-98614952D01*
X141434332Y-98502067D01*
X141679601Y-98338184D01*
X141888184Y-98129601D01*
X142052067Y-97884332D01*
X142164952Y-97611805D01*
X142222500Y-97322491D01*
X142222500Y-97027509D01*
X142164952Y-96738195D01*
X142052067Y-96465668D01*
X141888184Y-96220399D01*
X141679601Y-96011816D01*
X141519739Y-95905000D01*
X141679601Y-95798184D01*
X141888184Y-95589601D01*
X142052067Y-95344332D01*
X142164952Y-95071805D01*
X142222500Y-94782491D01*
X142222500Y-94487509D01*
X142164952Y-94198195D01*
X142052067Y-93925668D01*
X141888184Y-93680399D01*
X141679601Y-93471816D01*
X141519739Y-93365000D01*
X141679601Y-93258184D01*
X141888184Y-93049601D01*
X142052067Y-92804332D01*
X142164952Y-92531805D01*
X142222500Y-92242491D01*
X142222500Y-91947509D01*
X142164952Y-91658195D01*
X142052067Y-91385668D01*
X141888184Y-91140399D01*
X141679601Y-90931816D01*
X141434332Y-90767933D01*
X141161805Y-90655048D01*
X140872491Y-90597500D01*
X140577509Y-90597500D01*
X140288195Y-90655048D01*
X140015668Y-90767933D01*
X139785000Y-90922060D01*
X139785000Y-90792287D01*
X139794180Y-90789502D01*
X139904494Y-90730537D01*
X140001185Y-90651185D01*
X140080537Y-90554494D01*
X140139502Y-90444180D01*
X140175812Y-90324482D01*
X140188072Y-90200000D01*
X140188072Y-89685000D01*
X140595949Y-89685000D01*
X140634502Y-89688797D01*
X140673055Y-89685000D01*
X140673063Y-89685000D01*
X140788389Y-89673641D01*
X140936362Y-89628754D01*
X141072735Y-89555862D01*
X141192266Y-89457764D01*
X141216849Y-89427810D01*
X144172827Y-86471833D01*
X144202774Y-86447256D01*
X144300872Y-86327725D01*
X144373764Y-86191352D01*
X144418651Y-86043379D01*
X144430010Y-85928053D01*
X144430010Y-85928046D01*
X144433807Y-85889493D01*
X144430010Y-85850940D01*
X144430010Y-83428566D01*
X144433807Y-83390010D01*
X144430010Y-83351454D01*
X144430010Y-83351449D01*
X144421379Y-83263815D01*
X144418652Y-83236123D01*
X144373764Y-83088150D01*
X144358814Y-83060180D01*
X144300872Y-82951777D01*
X144202774Y-82832246D01*
X144172820Y-82807663D01*
X143877347Y-82512190D01*
X143852764Y-82482236D01*
X143759027Y-82405307D01*
X143702983Y-82337017D01*
X143583940Y-82239321D01*
X143448125Y-82166726D01*
X143300757Y-82122023D01*
X143152587Y-82107429D01*
X142452345Y-81407188D01*
X142427764Y-81377236D01*
X142308233Y-81279138D01*
X142171860Y-81206246D01*
X142023887Y-81161359D01*
X142008055Y-81159800D01*
X141888184Y-80980399D01*
X141679601Y-80771816D01*
X141519739Y-80665000D01*
X141679601Y-80558184D01*
X141888184Y-80349601D01*
X142052067Y-80104332D01*
X142164952Y-79831805D01*
X142222500Y-79542491D01*
X142222500Y-79247509D01*
X142164952Y-78958195D01*
X142052067Y-78685668D01*
X141888184Y-78440399D01*
X141679601Y-78231816D01*
X141434332Y-78067933D01*
X141161805Y-77955048D01*
X140872491Y-77897500D01*
X140577509Y-77897500D01*
X140288195Y-77955048D01*
X140015668Y-78067933D01*
X139770399Y-78231816D01*
X139561816Y-78440399D01*
X139397933Y-78685668D01*
X139285048Y-78958195D01*
X139227500Y-79247509D01*
X139227500Y-79542491D01*
X139285048Y-79831805D01*
X139397933Y-80104332D01*
X139561816Y-80349601D01*
X139770399Y-80558184D01*
X139930261Y-80665000D01*
X139770399Y-80771816D01*
X139561816Y-80980399D01*
X139448493Y-81150000D01*
X138338072Y-81150000D01*
X138338072Y-80850000D01*
X138321008Y-80676746D01*
X138270472Y-80510150D01*
X138188405Y-80356614D01*
X138077962Y-80222038D01*
X137943386Y-80111595D01*
X137789850Y-80029528D01*
X137623254Y-79978992D01*
X137450000Y-79961928D01*
X136350000Y-79961928D01*
X136176746Y-79978992D01*
X136010150Y-80029528D01*
X135856614Y-80111595D01*
X135722038Y-80222038D01*
X135611595Y-80356614D01*
X135529528Y-80510150D01*
X135478992Y-80676746D01*
X135461928Y-80850000D01*
X135461928Y-83000000D01*
X135478992Y-83173254D01*
X135529528Y-83339850D01*
X135611595Y-83493386D01*
X135632433Y-83518777D01*
X135569463Y-83595506D01*
X135510498Y-83705820D01*
X135474188Y-83825518D01*
X135461928Y-83950000D01*
X135465000Y-84989250D01*
X135623750Y-85148000D01*
X136773000Y-85148000D01*
X136773000Y-85128000D01*
X137027000Y-85128000D01*
X137027000Y-85148000D01*
X138176250Y-85148000D01*
X138335000Y-84989250D01*
X138336318Y-84543037D01*
X139221792Y-84543037D01*
X139263949Y-84834991D01*
X139362253Y-85113111D01*
X139437330Y-85253566D01*
X139687681Y-85332714D01*
X140545395Y-84475000D01*
X139687681Y-83617286D01*
X139437330Y-83696434D01*
X139310180Y-83962606D01*
X139237403Y-84248468D01*
X139221792Y-84543037D01*
X138336318Y-84543037D01*
X138338072Y-83950000D01*
X138325812Y-83825518D01*
X138289502Y-83705820D01*
X138230537Y-83595506D01*
X138167567Y-83518777D01*
X138188405Y-83493386D01*
X138270472Y-83339850D01*
X138321008Y-83173254D01*
X138338072Y-83000000D01*
X138338072Y-82720000D01*
X139448493Y-82720000D01*
X139561816Y-82889601D01*
X139770399Y-83098184D01*
X139939001Y-83210840D01*
X139867286Y-83437681D01*
X140725000Y-84295395D01*
X141582714Y-83437681D01*
X141510999Y-83210840D01*
X141679601Y-83098184D01*
X141801314Y-82976471D01*
X142017429Y-83192587D01*
X142032023Y-83340757D01*
X142069312Y-83463684D01*
X142065498Y-83470820D01*
X142029188Y-83590518D01*
X142017810Y-83706049D01*
X142012670Y-83696434D01*
X141762319Y-83617286D01*
X140904605Y-84475000D01*
X141762319Y-85332714D01*
X142012670Y-85253566D01*
X142139820Y-84987394D01*
X142199898Y-84751412D01*
X142203815Y-84756185D01*
X142300506Y-84835537D01*
X142410820Y-84894502D01*
X142530518Y-84930812D01*
X142655000Y-84943072D01*
X142689250Y-84940000D01*
X142847998Y-84781252D01*
X142847998Y-84940000D01*
X142860010Y-84940000D01*
X142860010Y-85564334D01*
X142071577Y-86352768D01*
X142052067Y-86305668D01*
X141888184Y-86060399D01*
X141679601Y-85851816D01*
X141510999Y-85739160D01*
X141582714Y-85512319D01*
X140725000Y-84654605D01*
X139867286Y-85512319D01*
X139939001Y-85739160D01*
X139770399Y-85851816D01*
X139561816Y-86060399D01*
X139397933Y-86305668D01*
X139285048Y-86578195D01*
X139227500Y-86867509D01*
X139227500Y-87162491D01*
X139285048Y-87451805D01*
X139397933Y-87724332D01*
X139561816Y-87969601D01*
X139707215Y-88115000D01*
X139663552Y-88115000D01*
X139624999Y-88111203D01*
X139586446Y-88115000D01*
X139586439Y-88115000D01*
X139485490Y-88124943D01*
X139471112Y-88126359D01*
X139436672Y-88136806D01*
X139323140Y-88171246D01*
X139186767Y-88244138D01*
X139126559Y-88293550D01*
X139097187Y-88317655D01*
X139097184Y-88317658D01*
X139067236Y-88342236D01*
X139042657Y-88372185D01*
X138952914Y-88461928D01*
X138450000Y-88461928D01*
X138325518Y-88474188D01*
X138205820Y-88510498D01*
X138095506Y-88569463D01*
X137998815Y-88648815D01*
X137919463Y-88745506D01*
X137860498Y-88855820D01*
X137824188Y-88975518D01*
X137811928Y-89100000D01*
X137811928Y-90200000D01*
X137824188Y-90324482D01*
X137860498Y-90444180D01*
X137919463Y-90554494D01*
X137998815Y-90651185D01*
X138095506Y-90730537D01*
X138205820Y-90789502D01*
X138215001Y-90792287D01*
X138215001Y-91445177D01*
X138131250Y-91436928D01*
X137643750Y-91436928D01*
X137471715Y-91453872D01*
X137306291Y-91504053D01*
X137153836Y-91585542D01*
X137020208Y-91695208D01*
X137014992Y-91701564D01*
X136951185Y-91623815D01*
X136854494Y-91544463D01*
X136744180Y-91485498D01*
X136624482Y-91449188D01*
X136500000Y-91436928D01*
X136298250Y-91440000D01*
X136139500Y-91598750D01*
X136139500Y-92648000D01*
X136159500Y-92648000D01*
X136159500Y-92902000D01*
X136139500Y-92902000D01*
X136139500Y-93951250D01*
X136298250Y-94110000D01*
X136500000Y-94113072D01*
X136624482Y-94100812D01*
X136744180Y-94064502D01*
X136854494Y-94005537D01*
X136951185Y-93926185D01*
X137014992Y-93848436D01*
X137020208Y-93854792D01*
X137102500Y-93922328D01*
X137102501Y-100323937D01*
X137098703Y-100362500D01*
X137113859Y-100516386D01*
X137158746Y-100664359D01*
X137158747Y-100664360D01*
X137231639Y-100800733D01*
X137272190Y-100850144D01*
X137305155Y-100890312D01*
X137305159Y-100890316D01*
X137329737Y-100920264D01*
X137359685Y-100944842D01*
X138165532Y-101750689D01*
X138165000Y-101753363D01*
X138165000Y-101996637D01*
X138212460Y-102235236D01*
X138305557Y-102459992D01*
X138440713Y-102662267D01*
X138612733Y-102834287D01*
X138815008Y-102969443D01*
X139039764Y-103062540D01*
X139278363Y-103110000D01*
X139521637Y-103110000D01*
X139760236Y-103062540D01*
X139984992Y-102969443D01*
X140187267Y-102834287D01*
X140359287Y-102662267D01*
X140494443Y-102459992D01*
X140587540Y-102235236D01*
X140635000Y-101996637D01*
X140635000Y-101753363D01*
X140587540Y-101514764D01*
X140522439Y-101357596D01*
X142247889Y-103083046D01*
X142031486Y-103040000D01*
X141768514Y-103040000D01*
X141510595Y-103091304D01*
X141267641Y-103191939D01*
X141048987Y-103338038D01*
X140863038Y-103523987D01*
X140716939Y-103742641D01*
X140616304Y-103985595D01*
X140565000Y-104243514D01*
X140565000Y-104506486D01*
X140616304Y-104764405D01*
X140716939Y-105007359D01*
X140863038Y-105226013D01*
X141048987Y-105411962D01*
X141267641Y-105558061D01*
X141429246Y-105625000D01*
X141267641Y-105691939D01*
X141048987Y-105838038D01*
X140863038Y-106023987D01*
X140716939Y-106242641D01*
X140616304Y-106485595D01*
X140565000Y-106743514D01*
X140565000Y-107006486D01*
X140616304Y-107264405D01*
X140716939Y-107507359D01*
X140863038Y-107726013D01*
X141048987Y-107911962D01*
X141140001Y-107972775D01*
X141140000Y-108277225D01*
X141048987Y-108338038D01*
X140863038Y-108523987D01*
X140716939Y-108742641D01*
X140616304Y-108985595D01*
X140565000Y-109243514D01*
X140565000Y-109506486D01*
X140616304Y-109764405D01*
X140716939Y-110007359D01*
X140863038Y-110226013D01*
X141048987Y-110411962D01*
X141267641Y-110558061D01*
X141510595Y-110658696D01*
X141768514Y-110710000D01*
X142031486Y-110710000D01*
X142289405Y-110658696D01*
X142532359Y-110558061D01*
X142751013Y-110411962D01*
X142936962Y-110226013D01*
X143015002Y-110109218D01*
X143015001Y-114171928D01*
X140910000Y-114171928D01*
X140785518Y-114184188D01*
X140665820Y-114220498D01*
X140555506Y-114279463D01*
X140458815Y-114358815D01*
X140379463Y-114455506D01*
X140320498Y-114565820D01*
X140291929Y-114660000D01*
X138608071Y-114660000D01*
X138579502Y-114565820D01*
X138520537Y-114455506D01*
X138441185Y-114358815D01*
X138344494Y-114279463D01*
X138234180Y-114220498D01*
X138153713Y-114196089D01*
X139246199Y-113103602D01*
X139278363Y-113110000D01*
X139521637Y-113110000D01*
X139760236Y-113062540D01*
X139984992Y-112969443D01*
X140187267Y-112834287D01*
X140359287Y-112662267D01*
X140494443Y-112459992D01*
X140587540Y-112235236D01*
X140635000Y-111996637D01*
X140635000Y-111753363D01*
X140587540Y-111514764D01*
X140494443Y-111290008D01*
X140359287Y-111087733D01*
X140187267Y-110915713D01*
X139984992Y-110780557D01*
X139760236Y-110687460D01*
X139521637Y-110640000D01*
X139278363Y-110640000D01*
X139039764Y-110687460D01*
X138815008Y-110780557D01*
X138612733Y-110915713D01*
X138440713Y-111087733D01*
X138305557Y-111290008D01*
X138212460Y-111514764D01*
X138165000Y-111753363D01*
X138165000Y-111996637D01*
X138171398Y-112028801D01*
X136208998Y-113991201D01*
X136180000Y-114014999D01*
X136156202Y-114043997D01*
X136156201Y-114043998D01*
X136085026Y-114130724D01*
X136063002Y-114171928D01*
X135450000Y-114171928D01*
X135325518Y-114184188D01*
X135210000Y-114219230D01*
X135210000Y-104243514D01*
X135565000Y-104243514D01*
X135565000Y-104506486D01*
X135616304Y-104764405D01*
X135716939Y-105007359D01*
X135863038Y-105226013D01*
X136048987Y-105411962D01*
X136267641Y-105558061D01*
X136429246Y-105625000D01*
X136267641Y-105691939D01*
X136048987Y-105838038D01*
X135863038Y-106023987D01*
X135716939Y-106242641D01*
X135616304Y-106485595D01*
X135565000Y-106743514D01*
X135565000Y-107006486D01*
X135616304Y-107264405D01*
X135716939Y-107507359D01*
X135863038Y-107726013D01*
X136048987Y-107911962D01*
X136267641Y-108058061D01*
X136429246Y-108125000D01*
X136267641Y-108191939D01*
X136048987Y-108338038D01*
X135863038Y-108523987D01*
X135716939Y-108742641D01*
X135616304Y-108985595D01*
X135565000Y-109243514D01*
X135565000Y-109506486D01*
X135616304Y-109764405D01*
X135716939Y-110007359D01*
X135863038Y-110226013D01*
X136048987Y-110411962D01*
X136267641Y-110558061D01*
X136510595Y-110658696D01*
X136768514Y-110710000D01*
X137031486Y-110710000D01*
X137289405Y-110658696D01*
X137532359Y-110558061D01*
X137751013Y-110411962D01*
X137936962Y-110226013D01*
X138083061Y-110007359D01*
X138183696Y-109764405D01*
X138235000Y-109506486D01*
X138235000Y-109243514D01*
X138183696Y-108985595D01*
X138083061Y-108742641D01*
X137936962Y-108523987D01*
X137751013Y-108338038D01*
X137532359Y-108191939D01*
X137370754Y-108125000D01*
X137532359Y-108058061D01*
X137751013Y-107911962D01*
X137936962Y-107726013D01*
X138083061Y-107507359D01*
X138183696Y-107264405D01*
X138235000Y-107006486D01*
X138235000Y-106743514D01*
X138183696Y-106485595D01*
X138083061Y-106242641D01*
X137936962Y-106023987D01*
X137751013Y-105838038D01*
X137532359Y-105691939D01*
X137370754Y-105625000D01*
X137532359Y-105558061D01*
X137751013Y-105411962D01*
X137936962Y-105226013D01*
X138083061Y-105007359D01*
X138183696Y-104764405D01*
X138235000Y-104506486D01*
X138235000Y-104243514D01*
X138183696Y-103985595D01*
X138083061Y-103742641D01*
X137936962Y-103523987D01*
X137751013Y-103338038D01*
X137532359Y-103191939D01*
X137289405Y-103091304D01*
X137031486Y-103040000D01*
X136768514Y-103040000D01*
X136510595Y-103091304D01*
X136267641Y-103191939D01*
X136048987Y-103338038D01*
X135863038Y-103523987D01*
X135716939Y-103742641D01*
X135616304Y-103985595D01*
X135565000Y-104243514D01*
X135210000Y-104243514D01*
X135210000Y-94026647D01*
X135280820Y-94064502D01*
X135400518Y-94100812D01*
X135525000Y-94113072D01*
X135726750Y-94110000D01*
X135885500Y-93951250D01*
X135885500Y-92902000D01*
X135865500Y-92902000D01*
X135865500Y-92648000D01*
X135885500Y-92648000D01*
X135885500Y-91598750D01*
X135726750Y-91440000D01*
X135525000Y-91436928D01*
X135400518Y-91449188D01*
X135280820Y-91485498D01*
X135210000Y-91523353D01*
X135210000Y-90660364D01*
X135295506Y-90730537D01*
X135405820Y-90789502D01*
X135525518Y-90825812D01*
X135650000Y-90838072D01*
X135914250Y-90835000D01*
X136073000Y-90676250D01*
X136073000Y-89777000D01*
X136327000Y-89777000D01*
X136327000Y-90676250D01*
X136485750Y-90835000D01*
X136750000Y-90838072D01*
X136874482Y-90825812D01*
X136994180Y-90789502D01*
X137104494Y-90730537D01*
X137201185Y-90651185D01*
X137280537Y-90554494D01*
X137339502Y-90444180D01*
X137375812Y-90324482D01*
X137388072Y-90200000D01*
X137385000Y-89935750D01*
X137226250Y-89777000D01*
X136327000Y-89777000D01*
X136073000Y-89777000D01*
X136053000Y-89777000D01*
X136053000Y-89523000D01*
X136073000Y-89523000D01*
X136073000Y-88623750D01*
X136327000Y-88623750D01*
X136327000Y-89523000D01*
X137226250Y-89523000D01*
X137385000Y-89364250D01*
X137388072Y-89100000D01*
X137375812Y-88975518D01*
X137339502Y-88855820D01*
X137280537Y-88745506D01*
X137201185Y-88648815D01*
X137104494Y-88569463D01*
X136994180Y-88510498D01*
X136874482Y-88474188D01*
X136750000Y-88461928D01*
X136485750Y-88465000D01*
X136327000Y-88623750D01*
X136073000Y-88623750D01*
X135914250Y-88465000D01*
X135650000Y-88461928D01*
X135525518Y-88474188D01*
X135405820Y-88510498D01*
X135295506Y-88569463D01*
X135210000Y-88639636D01*
X135210000Y-86600000D01*
X135461928Y-86600000D01*
X135474188Y-86724482D01*
X135510498Y-86844180D01*
X135569463Y-86954494D01*
X135648815Y-87051185D01*
X135745506Y-87130537D01*
X135855820Y-87189502D01*
X135975518Y-87225812D01*
X136100000Y-87238072D01*
X136614250Y-87235000D01*
X136773000Y-87076250D01*
X136773000Y-85402000D01*
X137027000Y-85402000D01*
X137027000Y-87076250D01*
X137185750Y-87235000D01*
X137700000Y-87238072D01*
X137824482Y-87225812D01*
X137944180Y-87189502D01*
X138054494Y-87130537D01*
X138151185Y-87051185D01*
X138230537Y-86954494D01*
X138289502Y-86844180D01*
X138325812Y-86724482D01*
X138338072Y-86600000D01*
X138335000Y-85560750D01*
X138176250Y-85402000D01*
X137027000Y-85402000D01*
X136773000Y-85402000D01*
X135623750Y-85402000D01*
X135465000Y-85560750D01*
X135461928Y-86600000D01*
X135210000Y-86600000D01*
X135210000Y-73803796D01*
X137254082Y-73803796D01*
X137254082Y-74246204D01*
X137340391Y-74680110D01*
X137509693Y-75088841D01*
X137755482Y-75456689D01*
X138068311Y-75769518D01*
X138436159Y-76015307D01*
X138844890Y-76184609D01*
X139278796Y-76270918D01*
X139721204Y-76270918D01*
X140155110Y-76184609D01*
X140563841Y-76015307D01*
X140931689Y-75769518D01*
X141244518Y-75456689D01*
X141490307Y-75088841D01*
X141659609Y-74680110D01*
X141745918Y-74246204D01*
X141745918Y-73803796D01*
X141659609Y-73369890D01*
X141490307Y-72961159D01*
X141244518Y-72593311D01*
X140931689Y-72280482D01*
X140563841Y-72034693D01*
X140155110Y-71865391D01*
X139721204Y-71779082D01*
X139278796Y-71779082D01*
X138844890Y-71865391D01*
X138436159Y-72034693D01*
X138068311Y-72280482D01*
X137755482Y-72593311D01*
X137509693Y-72961159D01*
X137340391Y-73369890D01*
X137254082Y-73803796D01*
X135210000Y-73803796D01*
X135210000Y-68532509D01*
X136352500Y-68532509D01*
X136352500Y-68827491D01*
X136410048Y-69116805D01*
X136522933Y-69389332D01*
X136686816Y-69634601D01*
X136895399Y-69843184D01*
X137140668Y-70007067D01*
X137413195Y-70119952D01*
X137702509Y-70177500D01*
X137997491Y-70177500D01*
X138286805Y-70119952D01*
X138559332Y-70007067D01*
X138804601Y-69843184D01*
X139013184Y-69634601D01*
X139177067Y-69389332D01*
X139289952Y-69116805D01*
X139347500Y-68827491D01*
X139347500Y-68532509D01*
X139289952Y-68243195D01*
X139177067Y-67970668D01*
X139146553Y-67925000D01*
X140461928Y-67925000D01*
X140474188Y-68049482D01*
X140510498Y-68169180D01*
X140569463Y-68279494D01*
X140648815Y-68376185D01*
X140745506Y-68455537D01*
X140855820Y-68514502D01*
X140975518Y-68550812D01*
X141100000Y-68563072D01*
X141614250Y-68560000D01*
X141773000Y-68401250D01*
X141773000Y-66727000D01*
X142027000Y-66727000D01*
X142027000Y-68401250D01*
X142185750Y-68560000D01*
X142700000Y-68563072D01*
X142824482Y-68550812D01*
X142944180Y-68514502D01*
X143054494Y-68455537D01*
X143151185Y-68376185D01*
X143230537Y-68279494D01*
X143289502Y-68169180D01*
X143325812Y-68049482D01*
X143338072Y-67925000D01*
X143335000Y-66885750D01*
X143176250Y-66727000D01*
X142027000Y-66727000D01*
X141773000Y-66727000D01*
X140623750Y-66727000D01*
X140465000Y-66885750D01*
X140461928Y-67925000D01*
X139146553Y-67925000D01*
X139013184Y-67725399D01*
X138804601Y-67516816D01*
X138635999Y-67404160D01*
X138707714Y-67177319D01*
X137850000Y-66319605D01*
X136992286Y-67177319D01*
X137064001Y-67404160D01*
X136895399Y-67516816D01*
X136686816Y-67725399D01*
X136522933Y-67970668D01*
X136410048Y-68243195D01*
X136352500Y-68532509D01*
X135210000Y-68532509D01*
X135210000Y-66208037D01*
X136346792Y-66208037D01*
X136388949Y-66499991D01*
X136487253Y-66778111D01*
X136562330Y-66918566D01*
X136812681Y-66997714D01*
X137670395Y-66140000D01*
X138029605Y-66140000D01*
X138887319Y-66997714D01*
X139137670Y-66918566D01*
X139264820Y-66652394D01*
X139337597Y-66366532D01*
X139353208Y-66071963D01*
X139311051Y-65780009D01*
X139212747Y-65501889D01*
X139137670Y-65361434D01*
X138887319Y-65282286D01*
X138029605Y-66140000D01*
X137670395Y-66140000D01*
X136812681Y-65282286D01*
X136562330Y-65361434D01*
X136435180Y-65627606D01*
X136362403Y-65913468D01*
X136346792Y-66208037D01*
X135210000Y-66208037D01*
X135210000Y-66019250D01*
X135273000Y-65956250D01*
X135273000Y-65312000D01*
X135527000Y-65312000D01*
X135527000Y-65956250D01*
X135685750Y-66115000D01*
X135720000Y-66118072D01*
X135844482Y-66105812D01*
X135964180Y-66069502D01*
X136074494Y-66010537D01*
X136171185Y-65931185D01*
X136250537Y-65834494D01*
X136309502Y-65724180D01*
X136345812Y-65604482D01*
X136358072Y-65480000D01*
X136355000Y-65470750D01*
X136196250Y-65312000D01*
X135527000Y-65312000D01*
X135273000Y-65312000D01*
X135253000Y-65312000D01*
X135253000Y-65148072D01*
X135572500Y-65148072D01*
X135725757Y-65132977D01*
X135873125Y-65088274D01*
X135929763Y-65058000D01*
X136196250Y-65058000D01*
X136254250Y-65000000D01*
X137024748Y-65000000D01*
X136992286Y-65102681D01*
X137850000Y-65960395D01*
X138707714Y-65102681D01*
X138635999Y-64875840D01*
X138804601Y-64763184D01*
X139013184Y-64554601D01*
X139177067Y-64309332D01*
X139289952Y-64036805D01*
X139290311Y-64035000D01*
X140461928Y-64035000D01*
X140461928Y-64325000D01*
X140478992Y-64498254D01*
X140529528Y-64664850D01*
X140611595Y-64818386D01*
X140632433Y-64843777D01*
X140569463Y-64920506D01*
X140510498Y-65030820D01*
X140474188Y-65150518D01*
X140461928Y-65275000D01*
X140465000Y-66314250D01*
X140623750Y-66473000D01*
X141773000Y-66473000D01*
X141773000Y-66453000D01*
X142027000Y-66453000D01*
X142027000Y-66473000D01*
X143176250Y-66473000D01*
X143335000Y-66314250D01*
X143338072Y-65275000D01*
X143325812Y-65150518D01*
X143289502Y-65030820D01*
X143230537Y-64920506D01*
X143167567Y-64843777D01*
X143188405Y-64818386D01*
X143270472Y-64664850D01*
X143321008Y-64498254D01*
X143338072Y-64325000D01*
X143338072Y-62899744D01*
X143403754Y-62776860D01*
X143420339Y-62722188D01*
X143448642Y-62628887D01*
X143459243Y-62521246D01*
X143460000Y-62513561D01*
X143460000Y-62513556D01*
X143463797Y-62475000D01*
X143460000Y-62436444D01*
X143460000Y-60992287D01*
X143469180Y-60989502D01*
X143579494Y-60930537D01*
X143676185Y-60851185D01*
X143755537Y-60754494D01*
X143814502Y-60644180D01*
X143850812Y-60524482D01*
X143863072Y-60400000D01*
X143863072Y-59300000D01*
X143850812Y-59175518D01*
X143814502Y-59055820D01*
X143755537Y-58945506D01*
X143676185Y-58848815D01*
X143579494Y-58769463D01*
X143469180Y-58710498D01*
X143349482Y-58674188D01*
X143225000Y-58661928D01*
X142125000Y-58661928D01*
X142000518Y-58674188D01*
X141880820Y-58710498D01*
X141770506Y-58769463D01*
X141673815Y-58848815D01*
X141594463Y-58945506D01*
X141535498Y-59055820D01*
X141499188Y-59175518D01*
X141486928Y-59300000D01*
X141486928Y-60400000D01*
X141499188Y-60524482D01*
X141535498Y-60644180D01*
X141594463Y-60754494D01*
X141673815Y-60851185D01*
X141770506Y-60930537D01*
X141880820Y-60989502D01*
X141890000Y-60992287D01*
X141890001Y-61286928D01*
X141350000Y-61286928D01*
X141176746Y-61303992D01*
X141010150Y-61354528D01*
X140856614Y-61436595D01*
X140722038Y-61547038D01*
X140611595Y-61681614D01*
X140529528Y-61835150D01*
X140478992Y-62001746D01*
X140461928Y-62175000D01*
X140461928Y-62465000D01*
X138832785Y-62465000D01*
X138804601Y-62436816D01*
X138644739Y-62330000D01*
X138804601Y-62223184D01*
X139013184Y-62014601D01*
X139177067Y-61769332D01*
X139289952Y-61496805D01*
X139347500Y-61207491D01*
X139347500Y-60912509D01*
X139289952Y-60623195D01*
X139177067Y-60350668D01*
X139013184Y-60105399D01*
X138804601Y-59896816D01*
X138559332Y-59732933D01*
X138286805Y-59620048D01*
X137997491Y-59562500D01*
X137702509Y-59562500D01*
X137413195Y-59620048D01*
X137140668Y-59732933D01*
X136895399Y-59896816D01*
X136686816Y-60105399D01*
X136522933Y-60350668D01*
X136410048Y-60623195D01*
X136352500Y-60912509D01*
X136352500Y-61207491D01*
X136410048Y-61496805D01*
X136522933Y-61769332D01*
X136686816Y-62014601D01*
X136895399Y-62223184D01*
X137055261Y-62330000D01*
X136895399Y-62436816D01*
X136686816Y-62645399D01*
X136522933Y-62890668D01*
X136410048Y-63163195D01*
X136356977Y-63430000D01*
X136028045Y-63430000D01*
X136008940Y-63414321D01*
X135873125Y-63341726D01*
X135725757Y-63297023D01*
X135572500Y-63281928D01*
X135227500Y-63281928D01*
X135210000Y-63283652D01*
X135210000Y-57600000D01*
X141486928Y-57600000D01*
X141499188Y-57724482D01*
X141535498Y-57844180D01*
X141594463Y-57954494D01*
X141673815Y-58051185D01*
X141770506Y-58130537D01*
X141880820Y-58189502D01*
X142000518Y-58225812D01*
X142125000Y-58238072D01*
X142389250Y-58235000D01*
X142548000Y-58076250D01*
X142548000Y-57177000D01*
X142802000Y-57177000D01*
X142802000Y-58076250D01*
X142960750Y-58235000D01*
X143225000Y-58238072D01*
X143349482Y-58225812D01*
X143469180Y-58189502D01*
X143579494Y-58130537D01*
X143676185Y-58051185D01*
X143755537Y-57954494D01*
X143814502Y-57844180D01*
X143850812Y-57724482D01*
X143863072Y-57600000D01*
X143860000Y-57335750D01*
X143701250Y-57177000D01*
X142802000Y-57177000D01*
X142548000Y-57177000D01*
X141648750Y-57177000D01*
X141490000Y-57335750D01*
X141486928Y-57600000D01*
X135210000Y-57600000D01*
X135210000Y-50752509D01*
X136352500Y-50752509D01*
X136352500Y-51047491D01*
X136410048Y-51336805D01*
X136522933Y-51609332D01*
X136686816Y-51854601D01*
X136895399Y-52063184D01*
X137055261Y-52170000D01*
X136895399Y-52276816D01*
X136686816Y-52485399D01*
X136522933Y-52730668D01*
X136410048Y-53003195D01*
X136352500Y-53292509D01*
X136352500Y-53587491D01*
X136410048Y-53876805D01*
X136522933Y-54149332D01*
X136686816Y-54394601D01*
X136895399Y-54603184D01*
X137055261Y-54710000D01*
X136895399Y-54816816D01*
X136686816Y-55025399D01*
X136522933Y-55270668D01*
X136410048Y-55543195D01*
X136352500Y-55832509D01*
X136352500Y-56127491D01*
X136410048Y-56416805D01*
X136522933Y-56689332D01*
X136686816Y-56934601D01*
X136895399Y-57143184D01*
X137140668Y-57307067D01*
X137413195Y-57419952D01*
X137702509Y-57477500D01*
X137997491Y-57477500D01*
X138286805Y-57419952D01*
X138559332Y-57307067D01*
X138804601Y-57143184D01*
X139013184Y-56934601D01*
X139177067Y-56689332D01*
X139255491Y-56500000D01*
X141486928Y-56500000D01*
X141490000Y-56764250D01*
X141648750Y-56923000D01*
X142548000Y-56923000D01*
X142548000Y-56023750D01*
X142802000Y-56023750D01*
X142802000Y-56923000D01*
X143701250Y-56923000D01*
X143860000Y-56764250D01*
X143863072Y-56500000D01*
X143850812Y-56375518D01*
X143814502Y-56255820D01*
X143755537Y-56145506D01*
X143676185Y-56048815D01*
X143579494Y-55969463D01*
X143469180Y-55910498D01*
X143349482Y-55874188D01*
X143225000Y-55861928D01*
X142960750Y-55865000D01*
X142802000Y-56023750D01*
X142548000Y-56023750D01*
X142389250Y-55865000D01*
X142125000Y-55861928D01*
X142000518Y-55874188D01*
X141880820Y-55910498D01*
X141770506Y-55969463D01*
X141673815Y-56048815D01*
X141594463Y-56145506D01*
X141535498Y-56255820D01*
X141499188Y-56375518D01*
X141486928Y-56500000D01*
X139255491Y-56500000D01*
X139289952Y-56416805D01*
X139347500Y-56127491D01*
X139347500Y-55832509D01*
X139289952Y-55543195D01*
X139177067Y-55270668D01*
X139013184Y-55025399D01*
X138804601Y-54816816D01*
X138644739Y-54710000D01*
X138804601Y-54603184D01*
X139013184Y-54394601D01*
X139177067Y-54149332D01*
X139289952Y-53876805D01*
X139347500Y-53587491D01*
X139347500Y-53292509D01*
X139289952Y-53003195D01*
X139177067Y-52730668D01*
X139013184Y-52485399D01*
X138804601Y-52276816D01*
X138644739Y-52170000D01*
X138804601Y-52063184D01*
X139013184Y-51854601D01*
X139177067Y-51609332D01*
X139289952Y-51336805D01*
X139347500Y-51047491D01*
X139347500Y-50752509D01*
X139289952Y-50463195D01*
X139177067Y-50190668D01*
X139013184Y-49945399D01*
X138804601Y-49736816D01*
X138559332Y-49572933D01*
X138286805Y-49460048D01*
X137997491Y-49402500D01*
X137702509Y-49402500D01*
X137413195Y-49460048D01*
X137140668Y-49572933D01*
X136895399Y-49736816D01*
X136686816Y-49945399D01*
X136522933Y-50190668D01*
X136410048Y-50463195D01*
X136352500Y-50752509D01*
X135210000Y-50752509D01*
X135210000Y-48785000D01*
X145477999Y-48785000D01*
X145048685Y-127349306D01*
G36*
X140320498Y-116324180D02*
G01*
X140379463Y-116434494D01*
X140458815Y-116531185D01*
X140555506Y-116610537D01*
X140665820Y-116669502D01*
X140785518Y-116705812D01*
X140878808Y-116715000D01*
X140785518Y-116724188D01*
X140665820Y-116760498D01*
X140555506Y-116819463D01*
X140458815Y-116898815D01*
X140379463Y-116995506D01*
X140320498Y-117105820D01*
X140284188Y-117225518D01*
X140271928Y-117350000D01*
X140275000Y-117699250D01*
X140433750Y-117858000D01*
X142053000Y-117858000D01*
X142053000Y-117838000D01*
X142307000Y-117838000D01*
X142307000Y-117858000D01*
X142327000Y-117858000D01*
X142327000Y-118112000D01*
X142307000Y-118112000D01*
X142307000Y-119096250D01*
X142465750Y-119255000D01*
X142307000Y-119413750D01*
X142307000Y-120398000D01*
X142327000Y-120398000D01*
X142327000Y-120652000D01*
X142307000Y-120652000D01*
X142307000Y-121636250D01*
X142465750Y-121795000D01*
X142307000Y-121953750D01*
X142307000Y-122938000D01*
X142327000Y-122938000D01*
X142327000Y-123192000D01*
X142307000Y-123192000D01*
X142307000Y-123212000D01*
X142053000Y-123212000D01*
X142053000Y-123192000D01*
X140433750Y-123192000D01*
X140275000Y-123350750D01*
X140271928Y-123700000D01*
X140284188Y-123824482D01*
X140320498Y-123944180D01*
X140379463Y-124054494D01*
X140458815Y-124151185D01*
X140555506Y-124230537D01*
X140665820Y-124289502D01*
X140785518Y-124325812D01*
X140878808Y-124335000D01*
X140785518Y-124344188D01*
X140665820Y-124380498D01*
X140555506Y-124439463D01*
X140458815Y-124518815D01*
X140379463Y-124615506D01*
X140320498Y-124725820D01*
X140291929Y-124820000D01*
X138608071Y-124820000D01*
X138579502Y-124725820D01*
X138520537Y-124615506D01*
X138441185Y-124518815D01*
X138344494Y-124439463D01*
X138234180Y-124380498D01*
X138114482Y-124344188D01*
X138021192Y-124335000D01*
X138114482Y-124325812D01*
X138234180Y-124289502D01*
X138344494Y-124230537D01*
X138441185Y-124151185D01*
X138520537Y-124054494D01*
X138579502Y-123944180D01*
X138615812Y-123824482D01*
X138628072Y-123700000D01*
X138625000Y-123350750D01*
X138466250Y-123192000D01*
X136847000Y-123192000D01*
X136847000Y-123212000D01*
X136593000Y-123212000D01*
X136593000Y-123192000D01*
X136573000Y-123192000D01*
X136573000Y-122938000D01*
X136593000Y-122938000D01*
X136593000Y-121953750D01*
X136434250Y-121795000D01*
X136593000Y-121636250D01*
X136593000Y-120652000D01*
X136847000Y-120652000D01*
X136847000Y-121636250D01*
X137005750Y-121795000D01*
X136847000Y-121953750D01*
X136847000Y-122938000D01*
X138466250Y-122938000D01*
X138625000Y-122779250D01*
X138628072Y-122430000D01*
X138615812Y-122305518D01*
X138579502Y-122185820D01*
X138520537Y-122075506D01*
X138441185Y-121978815D01*
X138344494Y-121899463D01*
X138234180Y-121840498D01*
X138114482Y-121804188D01*
X138021192Y-121795000D01*
X138114482Y-121785812D01*
X138234180Y-121749502D01*
X138344494Y-121690537D01*
X138441185Y-121611185D01*
X138520537Y-121514494D01*
X138579502Y-121404180D01*
X138615812Y-121284482D01*
X138628072Y-121160000D01*
X140271928Y-121160000D01*
X140284188Y-121284482D01*
X140320498Y-121404180D01*
X140379463Y-121514494D01*
X140458815Y-121611185D01*
X140555506Y-121690537D01*
X140665820Y-121749502D01*
X140785518Y-121785812D01*
X140878808Y-121795000D01*
X140785518Y-121804188D01*
X140665820Y-121840498D01*
X140555506Y-121899463D01*
X140458815Y-121978815D01*
X140379463Y-122075506D01*
X140320498Y-122185820D01*
X140284188Y-122305518D01*
X140271928Y-122430000D01*
X140275000Y-122779250D01*
X140433750Y-122938000D01*
X142053000Y-122938000D01*
X142053000Y-121953750D01*
X141894250Y-121795000D01*
X142053000Y-121636250D01*
X142053000Y-120652000D01*
X140433750Y-120652000D01*
X140275000Y-120810750D01*
X140271928Y-121160000D01*
X138628072Y-121160000D01*
X138625000Y-120810750D01*
X138466250Y-120652000D01*
X136847000Y-120652000D01*
X136593000Y-120652000D01*
X136573000Y-120652000D01*
X136573000Y-120398000D01*
X136593000Y-120398000D01*
X136593000Y-119413750D01*
X136434250Y-119255000D01*
X136593000Y-119096250D01*
X136593000Y-118112000D01*
X136847000Y-118112000D01*
X136847000Y-119096250D01*
X137005750Y-119255000D01*
X136847000Y-119413750D01*
X136847000Y-120398000D01*
X138466250Y-120398000D01*
X138625000Y-120239250D01*
X138628072Y-119890000D01*
X138615812Y-119765518D01*
X138579502Y-119645820D01*
X138520537Y-119535506D01*
X138441185Y-119438815D01*
X138344494Y-119359463D01*
X138234180Y-119300498D01*
X138114482Y-119264188D01*
X138021192Y-119255000D01*
X138114482Y-119245812D01*
X138234180Y-119209502D01*
X138344494Y-119150537D01*
X138441185Y-119071185D01*
X138520537Y-118974494D01*
X138579502Y-118864180D01*
X138615812Y-118744482D01*
X138628072Y-118620000D01*
X140271928Y-118620000D01*
X140284188Y-118744482D01*
X140320498Y-118864180D01*
X140379463Y-118974494D01*
X140458815Y-119071185D01*
X140555506Y-119150537D01*
X140665820Y-119209502D01*
X140785518Y-119245812D01*
X140878808Y-119255000D01*
X140785518Y-119264188D01*
X140665820Y-119300498D01*
X140555506Y-119359463D01*
X140458815Y-119438815D01*
X140379463Y-119535506D01*
X140320498Y-119645820D01*
X140284188Y-119765518D01*
X140271928Y-119890000D01*
X140275000Y-120239250D01*
X140433750Y-120398000D01*
X142053000Y-120398000D01*
X142053000Y-119413750D01*
X141894250Y-119255000D01*
X142053000Y-119096250D01*
X142053000Y-118112000D01*
X140433750Y-118112000D01*
X140275000Y-118270750D01*
X140271928Y-118620000D01*
X138628072Y-118620000D01*
X138625000Y-118270750D01*
X138466250Y-118112000D01*
X136847000Y-118112000D01*
X136593000Y-118112000D01*
X136573000Y-118112000D01*
X136573000Y-117858000D01*
X136593000Y-117858000D01*
X136593000Y-117838000D01*
X136847000Y-117838000D01*
X136847000Y-117858000D01*
X138466250Y-117858000D01*
X138625000Y-117699250D01*
X138628072Y-117350000D01*
X138615812Y-117225518D01*
X138579502Y-117105820D01*
X138520537Y-116995506D01*
X138441185Y-116898815D01*
X138344494Y-116819463D01*
X138234180Y-116760498D01*
X138114482Y-116724188D01*
X138021192Y-116715000D01*
X138114482Y-116705812D01*
X138234180Y-116669502D01*
X138344494Y-116610537D01*
X138441185Y-116531185D01*
X138520537Y-116434494D01*
X138579502Y-116324180D01*
X138608071Y-116230000D01*
X140291929Y-116230000D01*
X140320498Y-116324180D01*
G37*
X140320498Y-116324180D02*
X140379463Y-116434494D01*
X140458815Y-116531185D01*
X140555506Y-116610537D01*
X140665820Y-116669502D01*
X140785518Y-116705812D01*
X140878808Y-116715000D01*
X140785518Y-116724188D01*
X140665820Y-116760498D01*
X140555506Y-116819463D01*
X140458815Y-116898815D01*
X140379463Y-116995506D01*
X140320498Y-117105820D01*
X140284188Y-117225518D01*
X140271928Y-117350000D01*
X140275000Y-117699250D01*
X140433750Y-117858000D01*
X142053000Y-117858000D01*
X142053000Y-117838000D01*
X142307000Y-117838000D01*
X142307000Y-117858000D01*
X142327000Y-117858000D01*
X142327000Y-118112000D01*
X142307000Y-118112000D01*
X142307000Y-119096250D01*
X142465750Y-119255000D01*
X142307000Y-119413750D01*
X142307000Y-120398000D01*
X142327000Y-120398000D01*
X142327000Y-120652000D01*
X142307000Y-120652000D01*
X142307000Y-121636250D01*
X142465750Y-121795000D01*
X142307000Y-121953750D01*
X142307000Y-122938000D01*
X142327000Y-122938000D01*
X142327000Y-123192000D01*
X142307000Y-123192000D01*
X142307000Y-123212000D01*
X142053000Y-123212000D01*
X142053000Y-123192000D01*
X140433750Y-123192000D01*
X140275000Y-123350750D01*
X140271928Y-123700000D01*
X140284188Y-123824482D01*
X140320498Y-123944180D01*
X140379463Y-124054494D01*
X140458815Y-124151185D01*
X140555506Y-124230537D01*
X140665820Y-124289502D01*
X140785518Y-124325812D01*
X140878808Y-124335000D01*
X140785518Y-124344188D01*
X140665820Y-124380498D01*
X140555506Y-124439463D01*
X140458815Y-124518815D01*
X140379463Y-124615506D01*
X140320498Y-124725820D01*
X140291929Y-124820000D01*
X138608071Y-124820000D01*
X138579502Y-124725820D01*
X138520537Y-124615506D01*
X138441185Y-124518815D01*
X138344494Y-124439463D01*
X138234180Y-124380498D01*
X138114482Y-124344188D01*
X138021192Y-124335000D01*
X138114482Y-124325812D01*
X138234180Y-124289502D01*
X138344494Y-124230537D01*
X138441185Y-124151185D01*
X138520537Y-124054494D01*
X138579502Y-123944180D01*
X138615812Y-123824482D01*
X138628072Y-123700000D01*
X138625000Y-123350750D01*
X138466250Y-123192000D01*
X136847000Y-123192000D01*
X136847000Y-123212000D01*
X136593000Y-123212000D01*
X136593000Y-123192000D01*
X136573000Y-123192000D01*
X136573000Y-122938000D01*
X136593000Y-122938000D01*
X136593000Y-121953750D01*
X136434250Y-121795000D01*
X136593000Y-121636250D01*
X136593000Y-120652000D01*
X136847000Y-120652000D01*
X136847000Y-121636250D01*
X137005750Y-121795000D01*
X136847000Y-121953750D01*
X136847000Y-122938000D01*
X138466250Y-122938000D01*
X138625000Y-122779250D01*
X138628072Y-122430000D01*
X138615812Y-122305518D01*
X138579502Y-122185820D01*
X138520537Y-122075506D01*
X138441185Y-121978815D01*
X138344494Y-121899463D01*
X138234180Y-121840498D01*
X138114482Y-121804188D01*
X138021192Y-121795000D01*
X138114482Y-121785812D01*
X138234180Y-121749502D01*
X138344494Y-121690537D01*
X138441185Y-121611185D01*
X138520537Y-121514494D01*
X138579502Y-121404180D01*
X138615812Y-121284482D01*
X138628072Y-121160000D01*
X140271928Y-121160000D01*
X140284188Y-121284482D01*
X140320498Y-121404180D01*
X140379463Y-121514494D01*
X140458815Y-121611185D01*
X140555506Y-121690537D01*
X140665820Y-121749502D01*
X140785518Y-121785812D01*
X140878808Y-121795000D01*
X140785518Y-121804188D01*
X140665820Y-121840498D01*
X140555506Y-121899463D01*
X140458815Y-121978815D01*
X140379463Y-122075506D01*
X140320498Y-122185820D01*
X140284188Y-122305518D01*
X140271928Y-122430000D01*
X140275000Y-122779250D01*
X140433750Y-122938000D01*
X142053000Y-122938000D01*
X142053000Y-121953750D01*
X141894250Y-121795000D01*
X142053000Y-121636250D01*
X142053000Y-120652000D01*
X140433750Y-120652000D01*
X140275000Y-120810750D01*
X140271928Y-121160000D01*
X138628072Y-121160000D01*
X138625000Y-120810750D01*
X138466250Y-120652000D01*
X136847000Y-120652000D01*
X136593000Y-120652000D01*
X136573000Y-120652000D01*
X136573000Y-120398000D01*
X136593000Y-120398000D01*
X136593000Y-119413750D01*
X136434250Y-119255000D01*
X136593000Y-119096250D01*
X136593000Y-118112000D01*
X136847000Y-118112000D01*
X136847000Y-119096250D01*
X137005750Y-119255000D01*
X136847000Y-119413750D01*
X136847000Y-120398000D01*
X138466250Y-120398000D01*
X138625000Y-120239250D01*
X138628072Y-119890000D01*
X138615812Y-119765518D01*
X138579502Y-119645820D01*
X138520537Y-119535506D01*
X138441185Y-119438815D01*
X138344494Y-119359463D01*
X138234180Y-119300498D01*
X138114482Y-119264188D01*
X138021192Y-119255000D01*
X138114482Y-119245812D01*
X138234180Y-119209502D01*
X138344494Y-119150537D01*
X138441185Y-119071185D01*
X138520537Y-118974494D01*
X138579502Y-118864180D01*
X138615812Y-118744482D01*
X138628072Y-118620000D01*
X140271928Y-118620000D01*
X140284188Y-118744482D01*
X140320498Y-118864180D01*
X140379463Y-118974494D01*
X140458815Y-119071185D01*
X140555506Y-119150537D01*
X140665820Y-119209502D01*
X140785518Y-119245812D01*
X140878808Y-119255000D01*
X140785518Y-119264188D01*
X140665820Y-119300498D01*
X140555506Y-119359463D01*
X140458815Y-119438815D01*
X140379463Y-119535506D01*
X140320498Y-119645820D01*
X140284188Y-119765518D01*
X140271928Y-119890000D01*
X140275000Y-120239250D01*
X140433750Y-120398000D01*
X142053000Y-120398000D01*
X142053000Y-119413750D01*
X141894250Y-119255000D01*
X142053000Y-119096250D01*
X142053000Y-118112000D01*
X140433750Y-118112000D01*
X140275000Y-118270750D01*
X140271928Y-118620000D01*
X138628072Y-118620000D01*
X138625000Y-118270750D01*
X138466250Y-118112000D01*
X136847000Y-118112000D01*
X136593000Y-118112000D01*
X136573000Y-118112000D01*
X136573000Y-117858000D01*
X136593000Y-117858000D01*
X136593000Y-117838000D01*
X136847000Y-117838000D01*
X136847000Y-117858000D01*
X138466250Y-117858000D01*
X138625000Y-117699250D01*
X138628072Y-117350000D01*
X138615812Y-117225518D01*
X138579502Y-117105820D01*
X138520537Y-116995506D01*
X138441185Y-116898815D01*
X138344494Y-116819463D01*
X138234180Y-116760498D01*
X138114482Y-116724188D01*
X138021192Y-116715000D01*
X138114482Y-116705812D01*
X138234180Y-116669502D01*
X138344494Y-116610537D01*
X138441185Y-116531185D01*
X138520537Y-116434494D01*
X138579502Y-116324180D01*
X138608071Y-116230000D01*
X140291929Y-116230000D01*
X140320498Y-116324180D01*
G36*
X135325518Y-116705812D02*
G01*
X135418808Y-116715000D01*
X135325518Y-116724188D01*
X135210000Y-116759230D01*
X135210000Y-116670770D01*
X135325518Y-116705812D01*
G37*
X135325518Y-116705812D02*
X135418808Y-116715000D01*
X135325518Y-116724188D01*
X135210000Y-116759230D01*
X135210000Y-116670770D01*
X135325518Y-116705812D01*
G36*
X142860011Y-84157000D02*
G01*
X142848000Y-84157000D01*
X142848000Y-84137000D01*
X142828000Y-84137000D01*
X142828000Y-83973072D01*
X142860011Y-83973072D01*
X142860011Y-84157000D01*
G37*
X142860011Y-84157000D02*
X142848000Y-84157000D01*
X142848000Y-84137000D01*
X142828000Y-84137000D01*
X142828000Y-83973072D01*
X142860011Y-83973072D01*
X142860011Y-84157000D01*
%TD*%
M02*
