M48
; DRILL file {KiCad (5.1.6-0-10_14)} date Wednesday, December 30, 2020 at 05:23:37 PM
; FORMAT={-:-/ absolute / inch / decimal}
; #@! TF.CreationDate,2020-12-30T17:23:37+01:00
; #@! TF.GenerationSoftware,Kicad,Pcbnew,(5.1.6-0-10_14)
; #@! TF.FileFunction,Plated,1,2,PTH
FMAT,2
INCH
T1C0.0157
T2C0.0276
T3C0.0354
T4C0.0362
T5C0.0453
T6C0.0906
%
G90
G05
T1
X5.4813Y-5.4272
X5.4921Y-5.3671
X5.6506Y-5.064
X5.6585Y-5.248
T2
X5.4882Y-4.0108
X5.4882Y-4.4045
T3
X5.3898Y-4.1093
X5.3898Y-4.2077
X5.3898Y-4.3061
X5.5866Y-4.1093
X5.5866Y-4.2077
X5.5866Y-4.3061
T4
X5.5404Y-5.7205
X5.5404Y-5.8189
X5.5404Y-5.8976
X5.5404Y-5.9961
T5
X5.5404Y-3.1258
X5.5404Y-3.2258
X5.5404Y-3.3258
X5.5404Y-3.4258
X5.5404Y-3.6258
X5.5404Y-3.7258
X5.5404Y-3.8258
X5.4272Y-2.0039
X5.4272Y-2.1039
X5.4272Y-2.2039
X5.4272Y-2.4039
X5.4272Y-2.5039
X5.4272Y-2.6039
X5.4272Y-2.7039
T6
X5.4337Y-5.5996
X5.4337Y-6.1169
T0
M30
