%TF.GenerationSoftware,KiCad,Pcbnew,(5.1.6-0-10_14)*%
%TF.CreationDate,2020-12-25T19:47:45+01:00*%
%TF.ProjectId,USBPowerSupplyEurorack,55534250-6f77-4657-9253-7570706c7945,rev?*%
%TF.SameCoordinates,Original*%
%TF.FileFunction,Legend,Bot*%
%TF.FilePolarity,Positive*%
%FSLAX46Y46*%
G04 Gerber Fmt 4.6, Leading zero omitted, Abs format (unit mm)*
G04 Created by KiCad (PCBNEW (5.1.6-0-10_14)) date 2020-12-25 19:47:45*
%MOMM*%
%LPD*%
G01*
G04 APERTURE LIST*
%ADD10C,0.127000*%
%ADD11C,0.400000*%
%ADD12C,0.600000*%
%ADD13C,0.100000*%
%ADD14C,0.015000*%
%ADD15C,0.254000*%
G04 APERTURE END LIST*
D10*
%TO.C,J1*%
X143335000Y-156750000D02*
X143335000Y-141750000D01*
X143335000Y-141750000D02*
X140325000Y-141750000D01*
X143335000Y-156750000D02*
X140325000Y-156750000D01*
X136325000Y-156750000D02*
X135715000Y-156750000D01*
X135715000Y-156750000D02*
X135715000Y-141750000D01*
X135715000Y-141750000D02*
X136325000Y-141750000D01*
D11*
X144200000Y-152750000D02*
G75*
G03*
X144200000Y-152750000I-200000J0D01*
G01*
D12*
%TO.C,PS1*%
X137800000Y-69575000D02*
X137800000Y-69575000D01*
X137800000Y-69675000D02*
X137800000Y-69675000D01*
D13*
X143800000Y-71165000D02*
X134600000Y-71165000D01*
X143800000Y-92965000D02*
X143800000Y-71165000D01*
X134600000Y-92965000D02*
X143800000Y-92965000D01*
X134600000Y-71165000D02*
X134600000Y-92965000D01*
D12*
X137800000Y-69575000D02*
G75*
G03*
X137800000Y-69675000I0J-50000D01*
G01*
X137800000Y-69675000D02*
G75*
G03*
X137800000Y-69575000I0J50000D01*
G01*
D13*
%TO.C,PS2*%
X134650000Y-48240000D02*
X134650000Y-70040000D01*
X134650000Y-70040000D02*
X143850000Y-70040000D01*
X143850000Y-70040000D02*
X143850000Y-48240000D01*
X143850000Y-48240000D02*
X134650000Y-48240000D01*
D12*
X137850000Y-46750000D02*
X137850000Y-46750000D01*
X137850000Y-46650000D02*
X137850000Y-46650000D01*
X137850000Y-46750000D02*
G75*
G03*
X137850000Y-46650000I0J50000D01*
G01*
X137850000Y-46650000D02*
G75*
G03*
X137850000Y-46750000I0J-50000D01*
G01*
D13*
%TO.C,S1*%
X135025000Y-104275000D02*
X135025000Y-104275000D01*
X135125000Y-104275000D02*
X135125000Y-104275000D01*
X143375000Y-106125000D02*
X141125000Y-106125000D01*
X143375000Y-97425000D02*
X143375000Y-106125000D01*
X141125000Y-97425000D02*
X143375000Y-97425000D01*
X135875000Y-106125000D02*
X138125000Y-106125000D01*
X135875000Y-97425000D02*
X135875000Y-106125000D01*
X138125000Y-97425000D02*
X135875000Y-97425000D01*
X135025000Y-104275000D02*
G75*
G03*
X135125000Y-104275000I50000J0D01*
G01*
X135125000Y-104275000D02*
G75*
G03*
X135025000Y-104275000I-50000J0D01*
G01*
%TO.C,J1*%
D14*
X141701328Y-143166026D02*
X142416986Y-143166026D01*
X142560118Y-143118315D01*
X142655539Y-143022894D01*
X142703249Y-142879763D01*
X142703249Y-142784342D01*
X142703249Y-144167947D02*
X142703249Y-143595421D01*
X142703249Y-143881684D02*
X141701328Y-143881684D01*
X141844460Y-143786263D01*
X141939881Y-143690842D01*
X141987592Y-143595421D01*
%TO.C,PS1*%
D15*
X139774523Y-79727857D02*
X138504523Y-79727857D01*
X138504523Y-80211666D01*
X138565000Y-80332619D01*
X138625476Y-80393095D01*
X138746428Y-80453571D01*
X138927857Y-80453571D01*
X139048809Y-80393095D01*
X139109285Y-80332619D01*
X139169761Y-80211666D01*
X139169761Y-79727857D01*
X139714047Y-80937380D02*
X139774523Y-81118809D01*
X139774523Y-81421190D01*
X139714047Y-81542142D01*
X139653571Y-81602619D01*
X139532619Y-81663095D01*
X139411666Y-81663095D01*
X139290714Y-81602619D01*
X139230238Y-81542142D01*
X139169761Y-81421190D01*
X139109285Y-81179285D01*
X139048809Y-81058333D01*
X138988333Y-80997857D01*
X138867380Y-80937380D01*
X138746428Y-80937380D01*
X138625476Y-80997857D01*
X138565000Y-81058333D01*
X138504523Y-81179285D01*
X138504523Y-81481666D01*
X138565000Y-81663095D01*
X139774523Y-82872619D02*
X139774523Y-82146904D01*
X139774523Y-82509761D02*
X138504523Y-82509761D01*
X138685952Y-82388809D01*
X138806904Y-82267857D01*
X138867380Y-82146904D01*
%TO.C,PS2*%
X139824523Y-56802857D02*
X138554523Y-56802857D01*
X138554523Y-57286666D01*
X138615000Y-57407619D01*
X138675476Y-57468095D01*
X138796428Y-57528571D01*
X138977857Y-57528571D01*
X139098809Y-57468095D01*
X139159285Y-57407619D01*
X139219761Y-57286666D01*
X139219761Y-56802857D01*
X139764047Y-58012380D02*
X139824523Y-58193809D01*
X139824523Y-58496190D01*
X139764047Y-58617142D01*
X139703571Y-58677619D01*
X139582619Y-58738095D01*
X139461666Y-58738095D01*
X139340714Y-58677619D01*
X139280238Y-58617142D01*
X139219761Y-58496190D01*
X139159285Y-58254285D01*
X139098809Y-58133333D01*
X139038333Y-58072857D01*
X138917380Y-58012380D01*
X138796428Y-58012380D01*
X138675476Y-58072857D01*
X138615000Y-58133333D01*
X138554523Y-58254285D01*
X138554523Y-58556666D01*
X138615000Y-58738095D01*
X138675476Y-59221904D02*
X138615000Y-59282380D01*
X138554523Y-59403333D01*
X138554523Y-59705714D01*
X138615000Y-59826666D01*
X138675476Y-59887142D01*
X138796428Y-59947619D01*
X138917380Y-59947619D01*
X139098809Y-59887142D01*
X139824523Y-59161428D01*
X139824523Y-59947619D01*
%TO.C,S1*%
X139714047Y-100807380D02*
X139774523Y-100988809D01*
X139774523Y-101291190D01*
X139714047Y-101412142D01*
X139653571Y-101472619D01*
X139532619Y-101533095D01*
X139411666Y-101533095D01*
X139290714Y-101472619D01*
X139230238Y-101412142D01*
X139169761Y-101291190D01*
X139109285Y-101049285D01*
X139048809Y-100928333D01*
X138988333Y-100867857D01*
X138867380Y-100807380D01*
X138746428Y-100807380D01*
X138625476Y-100867857D01*
X138565000Y-100928333D01*
X138504523Y-101049285D01*
X138504523Y-101351666D01*
X138565000Y-101533095D01*
X139774523Y-102742619D02*
X139774523Y-102016904D01*
X139774523Y-102379761D02*
X138504523Y-102379761D01*
X138685952Y-102258809D01*
X138806904Y-102137857D01*
X138867380Y-102016904D01*
%TD*%
M02*
