%TF.GenerationSoftware,KiCad,Pcbnew,(5.1.6-0-10_14)*%
%TF.CreationDate,2020-12-30T18:05:34+01:00*%
%TF.ProjectId,USBPowerSupplyEurorack,55534250-6f77-4657-9253-7570706c7945,rev?*%
%TF.SameCoordinates,Original*%
%TF.FileFunction,Copper,L2,Bot*%
%TF.FilePolarity,Positive*%
%FSLAX46Y46*%
G04 Gerber Fmt 4.6, Leading zero omitted, Abs format (unit mm)*
G04 Created by KiCad (PCBNEW (5.1.6-0-10_14)) date 2020-12-30 18:05:34*
%MOMM*%
%LPD*%
G01*
G04 APERTURE LIST*
%TA.AperFunction,ComponentPad*%
%ADD10C,1.725000*%
%TD*%
%TA.AperFunction,ComponentPad*%
%ADD11R,1.428000X1.428000*%
%TD*%
%TA.AperFunction,ComponentPad*%
%ADD12C,1.428000*%
%TD*%
%TA.AperFunction,ComponentPad*%
%ADD13C,3.316000*%
%TD*%
%TA.AperFunction,ComponentPad*%
%ADD14C,1.400000*%
%TD*%
%TA.AperFunction,ComponentPad*%
%ADD15C,1.200000*%
%TD*%
%TA.AperFunction,ViaPad*%
%ADD16C,0.800000*%
%TD*%
%TA.AperFunction,Conductor*%
%ADD17C,0.300000*%
%TD*%
%TA.AperFunction,Conductor*%
%ADD18C,0.250000*%
%TD*%
G04 APERTURE END LIST*
D10*
%TO.P,PS2,8*%
%TO.N,Net-(PS2-Pad8)*%
X140725000Y-79395000D03*
%TO.P,PS2,7*%
%TO.N,-12V*%
X140725000Y-81935000D03*
%TO.P,PS2,6*%
%TO.N,0V*%
X140725000Y-84475000D03*
%TO.P,PS2,5*%
%TO.N,Net-(PS2-Pad5)*%
X140725000Y-87015000D03*
%TO.P,PS2,3*%
%TO.N,CTRL*%
X140725000Y-92095000D03*
%TO.P,PS2,2*%
%TO.N,+Vin*%
X140725000Y-94635000D03*
%TO.P,PS2,1*%
%TO.N,-Vin*%
X140725000Y-97175000D03*
%TD*%
%TO.P,C1,1*%
%TO.N,Net-(C1-Pad1)*%
%TA.AperFunction,SMDPad,CuDef*%
G36*
G01*
X135175000Y-122250000D02*
X135175000Y-121150000D01*
G75*
G02*
X135425000Y-120900000I250000J0D01*
G01*
X138250000Y-120900000D01*
G75*
G02*
X138500000Y-121150000I0J-250000D01*
G01*
X138500000Y-122250000D01*
G75*
G02*
X138250000Y-122500000I-250000J0D01*
G01*
X135425000Y-122500000D01*
G75*
G02*
X135175000Y-122250000I0J250000D01*
G01*
G37*
%TD.AperFunction*%
%TO.P,C1,2*%
%TO.N,GND*%
%TA.AperFunction,SMDPad,CuDef*%
G36*
G01*
X140250000Y-122250000D02*
X140250000Y-121150000D01*
G75*
G02*
X140500000Y-120900000I250000J0D01*
G01*
X143325000Y-120900000D01*
G75*
G02*
X143575000Y-121150000I0J-250000D01*
G01*
X143575000Y-122250000D01*
G75*
G02*
X143325000Y-122500000I-250000J0D01*
G01*
X140500000Y-122500000D01*
G75*
G02*
X140250000Y-122250000I0J250000D01*
G01*
G37*
%TD.AperFunction*%
%TD*%
%TO.P,C7,1*%
%TO.N,Net-(C1-Pad1)*%
%TA.AperFunction,SMDPad,CuDef*%
G36*
G01*
X136175000Y-131275000D02*
X136175000Y-130175000D01*
G75*
G02*
X136425000Y-129925000I250000J0D01*
G01*
X138700000Y-129925000D01*
G75*
G02*
X138950000Y-130175000I0J-250000D01*
G01*
X138950000Y-131275000D01*
G75*
G02*
X138700000Y-131525000I-250000J0D01*
G01*
X136425000Y-131525000D01*
G75*
G02*
X136175000Y-131275000I0J250000D01*
G01*
G37*
%TD.AperFunction*%
%TO.P,C7,2*%
%TO.N,GND*%
%TA.AperFunction,SMDPad,CuDef*%
G36*
G01*
X140300000Y-131275000D02*
X140300000Y-130175000D01*
G75*
G02*
X140550000Y-129925000I250000J0D01*
G01*
X142825000Y-129925000D01*
G75*
G02*
X143075000Y-130175000I0J-250000D01*
G01*
X143075000Y-131275000D01*
G75*
G02*
X142825000Y-131525000I-250000J0D01*
G01*
X140550000Y-131525000D01*
G75*
G02*
X140300000Y-131275000I0J250000D01*
G01*
G37*
%TD.AperFunction*%
%TD*%
D11*
%TO.P,J1,1*%
%TO.N,Net-(F1-Pad1)*%
X140725000Y-152300000D03*
D12*
%TO.P,J1,2*%
%TO.N,Net-(J1-Pad2)*%
X140725000Y-149800000D03*
%TO.P,J1,3*%
%TO.N,Net-(J1-Pad3)*%
X140725000Y-147800000D03*
%TO.P,J1,4*%
%TO.N,GND*%
X140725000Y-145300000D03*
D13*
%TO.P,J1,SH1*%
%TO.N,Net-(J1-PadSH1)*%
X138015000Y-155370000D03*
%TO.P,J1,SH2*%
X138015000Y-142230000D03*
%TD*%
D10*
%TO.P,PS1,1*%
%TO.N,-Vin*%
X137850000Y-50900000D03*
%TO.P,PS1,2*%
%TO.N,+Vin*%
X137850000Y-53440000D03*
%TO.P,PS1,3*%
%TO.N,CTRL*%
X137850000Y-55980000D03*
%TO.P,PS1,5*%
%TO.N,Net-(PS1-Pad5)*%
X137850000Y-61060000D03*
%TO.P,PS1,6*%
%TO.N,+12V*%
X137850000Y-63600000D03*
%TO.P,PS1,7*%
%TO.N,0V*%
X137850000Y-66140000D03*
%TO.P,PS1,8*%
%TO.N,Net-(PS1-Pad8)*%
X137850000Y-68680000D03*
%TD*%
D14*
%TO.P,S1,1*%
%TO.N,CTRL*%
X136900000Y-109375000D03*
%TO.P,S1,2*%
X136900000Y-106875000D03*
%TO.P,S1,3*%
%TO.N,Net-(S1-Pad3)*%
X136900000Y-104375000D03*
%TO.P,S1,4*%
%TO.N,+Vin*%
X141900000Y-109375000D03*
%TO.P,S1,5*%
X141900000Y-106875000D03*
%TO.P,S1,6*%
%TO.N,Net-(S1-Pad6)*%
X141900000Y-104375000D03*
D15*
%TO.P,S1,L1*%
%TO.N,+12V*%
X139400000Y-111875000D03*
%TO.P,S1,L2*%
%TO.N,Net-(R1-Pad1)*%
X139400000Y-101875000D03*
%TD*%
D16*
%TO.N,Net-(C1-Pad1)*%
X139500000Y-136325000D03*
%TO.N,+Vin*%
X139225000Y-137850000D03*
%TO.N,-Vin*%
X143525000Y-128625000D03*
%TO.N,GND*%
X143725000Y-133300000D03*
%TD*%
D17*
%TO.N,Net-(C1-Pad1)*%
X136837500Y-130000000D02*
X137562500Y-130725000D01*
X136837500Y-121700000D02*
X136837500Y-130000000D01*
X137562500Y-134387500D02*
X137562500Y-130725000D01*
X139500000Y-136325000D02*
X137562500Y-134387500D01*
%TO.N,0V*%
X141937501Y-70227501D02*
X137850000Y-66140000D01*
X141937501Y-83262499D02*
X141937501Y-70227501D01*
X140725000Y-84475000D02*
X141937501Y-83262499D01*
%TO.N,+12V*%
X135849999Y-109879001D02*
X137845998Y-111875000D01*
X137845998Y-111875000D02*
X139400000Y-111875000D01*
X135849999Y-65600001D02*
X135849999Y-109879001D01*
X137850000Y-63600000D02*
X135849999Y-65600001D01*
%TO.N,Net-(J1-PadSH1)*%
X138015000Y-155370000D02*
X136325000Y-153680000D01*
X136325000Y-143920000D02*
X138015000Y-142230000D01*
X136325000Y-153680000D02*
X136325000Y-143920000D01*
%TO.N,+Vin*%
X140725000Y-94635000D02*
X140725000Y-94625000D01*
X140725000Y-94625000D02*
X143375000Y-91975000D01*
X143375000Y-58965000D02*
X137850000Y-53440000D01*
X143375000Y-91975000D02*
X143375000Y-58965000D01*
X140849999Y-105824999D02*
X141900000Y-106875000D01*
X140849999Y-101918997D02*
X140849999Y-105824999D01*
X139512499Y-100581497D02*
X140849999Y-101918997D01*
X139512499Y-95847501D02*
X139512499Y-100581497D01*
X140725000Y-94635000D02*
X139512499Y-95847501D01*
X141187490Y-135887510D02*
X139225000Y-137850000D01*
X141187490Y-132761036D02*
X141187490Y-135887510D01*
X139899990Y-120901464D02*
X139899990Y-131473536D01*
X139899990Y-131473536D02*
X141187490Y-132761036D01*
X141900000Y-118901454D02*
X139899990Y-120901464D01*
X141900000Y-109375000D02*
X141900000Y-118901454D01*
%TO.N,-Vin*%
X137850000Y-50900000D02*
X143875010Y-56925010D01*
X143875010Y-94024990D02*
X140725000Y-97175000D01*
X143875010Y-56925010D02*
X143875010Y-94024990D01*
D18*
X143924999Y-100374999D02*
X140725000Y-97175000D01*
X143924999Y-128225001D02*
X143924999Y-100374999D01*
X143525000Y-128625000D02*
X143924999Y-128225001D01*
D17*
%TO.N,GND*%
X141912500Y-130500000D02*
X141687500Y-130725000D01*
X141912500Y-121700000D02*
X141912500Y-130500000D01*
X141687500Y-144337500D02*
X140725000Y-145300000D01*
D18*
X141687500Y-135337500D02*
X141687500Y-137137500D01*
X143725000Y-133300000D02*
X141687500Y-135337500D01*
D17*
X141687500Y-137137500D02*
X141687500Y-144337500D01*
X141687500Y-130725000D02*
X141687500Y-137137500D01*
%TO.N,CTRL*%
X137950001Y-105824999D02*
X136900000Y-106875000D01*
X137950001Y-94869999D02*
X137950001Y-105824999D01*
X140725000Y-92095000D02*
X137950001Y-94869999D01*
X136900000Y-109375000D02*
X136900000Y-106875000D01*
X140725000Y-92095000D02*
X142875000Y-89945000D01*
X142875000Y-61005000D02*
X137850000Y-55980000D01*
X142875000Y-89945000D02*
X142875000Y-61005000D01*
%TD*%
M02*
