%TF.GenerationSoftware,KiCad,Pcbnew,(5.1.6-0-10_14)*%
%TF.CreationDate,2020-12-25T20:14:25+01:00*%
%TF.ProjectId,USBPowerSupplyEurorack,55534250-6f77-4657-9253-7570706c7945,rev?*%
%TF.SameCoordinates,Original*%
%TF.FileFunction,Copper,L1,Top*%
%TF.FilePolarity,Positive*%
%FSLAX46Y46*%
G04 Gerber Fmt 4.6, Leading zero omitted, Abs format (unit mm)*
G04 Created by KiCad (PCBNEW (5.1.6-0-10_14)) date 2020-12-25 20:14:25*
%MOMM*%
%LPD*%
G01*
G04 APERTURE LIST*
%TA.AperFunction,ComponentPad*%
%ADD10R,1.725000X1.725000*%
%TD*%
%TA.AperFunction,ComponentPad*%
%ADD11C,1.725000*%
%TD*%
%TA.AperFunction,SMDPad,CuDef*%
%ADD12R,1.550000X2.200000*%
%TD*%
%TA.AperFunction,SMDPad,CuDef*%
%ADD13R,1.100000X1.100000*%
%TD*%
%TA.AperFunction,SMDPad,CuDef*%
%ADD14R,3.430000X1.530000*%
%TD*%
%TA.AperFunction,ComponentPad*%
%ADD15R,1.428000X1.428000*%
%TD*%
%TA.AperFunction,ComponentPad*%
%ADD16C,1.428000*%
%TD*%
%TA.AperFunction,ComponentPad*%
%ADD17C,3.316000*%
%TD*%
%TA.AperFunction,SMDPad,CuDef*%
%ADD18R,0.950000X1.250000*%
%TD*%
%TA.AperFunction,SMDPad,CuDef*%
%ADD19R,0.600000X1.300000*%
%TD*%
%TA.AperFunction,ComponentPad*%
%ADD20C,1.400000*%
%TD*%
%TA.AperFunction,ComponentPad*%
%ADD21C,1.200000*%
%TD*%
%TA.AperFunction,Conductor*%
%ADD22C,0.300000*%
%TD*%
G04 APERTURE END LIST*
D10*
%TO.P,J2,1*%
%TO.N,+12V*%
X132800000Y-72925000D03*
D11*
%TO.P,J2,2*%
X130260000Y-72925000D03*
%TO.P,J2,3*%
%TO.N,0V*%
X132800000Y-70385000D03*
%TO.P,J2,4*%
X130260000Y-70385000D03*
%TO.P,J2,5*%
X132800000Y-67845000D03*
%TO.P,J2,6*%
X130260000Y-67845000D03*
%TO.P,J2,7*%
X132800000Y-65305000D03*
%TO.P,J2,8*%
X130260000Y-65305000D03*
%TO.P,J2,9*%
%TO.N,-12V*%
X132800000Y-62765000D03*
%TO.P,J2,10*%
X130260000Y-62765000D03*
%TD*%
%TO.P,C1,1*%
%TO.N,Net-(C1-Pad1)*%
%TA.AperFunction,SMDPad,CuDef*%
G36*
G01*
X140175000Y-128250000D02*
X141775000Y-128250000D01*
G75*
G02*
X142025000Y-128500000I0J-250000D01*
G01*
X142025000Y-132500000D01*
G75*
G02*
X141775000Y-132750000I-250000J0D01*
G01*
X140175000Y-132750000D01*
G75*
G02*
X139925000Y-132500000I0J250000D01*
G01*
X139925000Y-128500000D01*
G75*
G02*
X140175000Y-128250000I250000J0D01*
G01*
G37*
%TD.AperFunction*%
%TO.P,C1,2*%
%TO.N,GND*%
%TA.AperFunction,SMDPad,CuDef*%
G36*
G01*
X140175000Y-135450000D02*
X141775000Y-135450000D01*
G75*
G02*
X142025000Y-135700000I0J-250000D01*
G01*
X142025000Y-139700000D01*
G75*
G02*
X141775000Y-139950000I-250000J0D01*
G01*
X140175000Y-139950000D01*
G75*
G02*
X139925000Y-139700000I0J250000D01*
G01*
X139925000Y-135700000D01*
G75*
G02*
X140175000Y-135450000I250000J0D01*
G01*
G37*
%TD.AperFunction*%
%TD*%
%TO.P,C2,1*%
%TO.N,Net-(C1-Pad1)*%
%TA.AperFunction,SMDPad,CuDef*%
G36*
G01*
X140900000Y-118475000D02*
X140900000Y-116325000D01*
G75*
G02*
X141150000Y-116075000I250000J0D01*
G01*
X141900000Y-116075000D01*
G75*
G02*
X142150000Y-116325000I0J-250000D01*
G01*
X142150000Y-118475000D01*
G75*
G02*
X141900000Y-118725000I-250000J0D01*
G01*
X141150000Y-118725000D01*
G75*
G02*
X140900000Y-118475000I0J250000D01*
G01*
G37*
%TD.AperFunction*%
%TO.P,C2,2*%
%TO.N,GND*%
%TA.AperFunction,SMDPad,CuDef*%
G36*
G01*
X143700000Y-118475000D02*
X143700000Y-116325000D01*
G75*
G02*
X143950000Y-116075000I250000J0D01*
G01*
X144700000Y-116075000D01*
G75*
G02*
X144950000Y-116325000I0J-250000D01*
G01*
X144950000Y-118475000D01*
G75*
G02*
X144700000Y-118725000I-250000J0D01*
G01*
X143950000Y-118725000D01*
G75*
G02*
X143700000Y-118475000I0J250000D01*
G01*
G37*
%TD.AperFunction*%
%TD*%
%TO.P,C3,1*%
%TO.N,0V*%
%TA.AperFunction,SMDPad,CuDef*%
G36*
G01*
X136225000Y-62100000D02*
X137475000Y-62100000D01*
G75*
G02*
X137725000Y-62350000I0J-250000D01*
G01*
X137725000Y-63100000D01*
G75*
G02*
X137475000Y-63350000I-250000J0D01*
G01*
X136225000Y-63350000D01*
G75*
G02*
X135975000Y-63100000I0J250000D01*
G01*
X135975000Y-62350000D01*
G75*
G02*
X136225000Y-62100000I250000J0D01*
G01*
G37*
%TD.AperFunction*%
%TO.P,C3,2*%
%TO.N,-12V*%
%TA.AperFunction,SMDPad,CuDef*%
G36*
G01*
X136225000Y-64900000D02*
X137475000Y-64900000D01*
G75*
G02*
X137725000Y-65150000I0J-250000D01*
G01*
X137725000Y-65900000D01*
G75*
G02*
X137475000Y-66150000I-250000J0D01*
G01*
X136225000Y-66150000D01*
G75*
G02*
X135975000Y-65900000I0J250000D01*
G01*
X135975000Y-65150000D01*
G75*
G02*
X136225000Y-64900000I250000J0D01*
G01*
G37*
%TD.AperFunction*%
%TD*%
%TO.P,C4,2*%
%TO.N,0V*%
%TA.AperFunction,SMDPad,CuDef*%
G36*
G01*
X136300000Y-88075000D02*
X137550000Y-88075000D01*
G75*
G02*
X137800000Y-88325000I0J-250000D01*
G01*
X137800000Y-89075000D01*
G75*
G02*
X137550000Y-89325000I-250000J0D01*
G01*
X136300000Y-89325000D01*
G75*
G02*
X136050000Y-89075000I0J250000D01*
G01*
X136050000Y-88325000D01*
G75*
G02*
X136300000Y-88075000I250000J0D01*
G01*
G37*
%TD.AperFunction*%
%TO.P,C4,1*%
%TO.N,+12V*%
%TA.AperFunction,SMDPad,CuDef*%
G36*
G01*
X136300000Y-85275000D02*
X137550000Y-85275000D01*
G75*
G02*
X137800000Y-85525000I0J-250000D01*
G01*
X137800000Y-86275000D01*
G75*
G02*
X137550000Y-86525000I-250000J0D01*
G01*
X136300000Y-86525000D01*
G75*
G02*
X136050000Y-86275000I0J250000D01*
G01*
X136050000Y-85525000D01*
G75*
G02*
X136300000Y-85275000I250000J0D01*
G01*
G37*
%TD.AperFunction*%
%TD*%
%TO.P,C5,1*%
%TO.N,+12V*%
%TA.AperFunction,SMDPad,CuDef*%
G36*
G01*
X142825000Y-83400000D02*
X143925000Y-83400000D01*
G75*
G02*
X144175000Y-83650000I0J-250000D01*
G01*
X144175000Y-85800000D01*
G75*
G02*
X143925000Y-86050000I-250000J0D01*
G01*
X142825000Y-86050000D01*
G75*
G02*
X142575000Y-85800000I0J250000D01*
G01*
X142575000Y-83650000D01*
G75*
G02*
X142825000Y-83400000I250000J0D01*
G01*
G37*
%TD.AperFunction*%
%TO.P,C5,2*%
%TO.N,0V*%
%TA.AperFunction,SMDPad,CuDef*%
G36*
G01*
X142825000Y-86750000D02*
X143925000Y-86750000D01*
G75*
G02*
X144175000Y-87000000I0J-250000D01*
G01*
X144175000Y-89150000D01*
G75*
G02*
X143925000Y-89400000I-250000J0D01*
G01*
X142825000Y-89400000D01*
G75*
G02*
X142575000Y-89150000I0J250000D01*
G01*
X142575000Y-87000000D01*
G75*
G02*
X142825000Y-86750000I250000J0D01*
G01*
G37*
%TD.AperFunction*%
%TD*%
%TO.P,C6,2*%
%TO.N,-12V*%
%TA.AperFunction,SMDPad,CuDef*%
G36*
G01*
X142975000Y-64650000D02*
X144075000Y-64650000D01*
G75*
G02*
X144325000Y-64900000I0J-250000D01*
G01*
X144325000Y-67050000D01*
G75*
G02*
X144075000Y-67300000I-250000J0D01*
G01*
X142975000Y-67300000D01*
G75*
G02*
X142725000Y-67050000I0J250000D01*
G01*
X142725000Y-64900000D01*
G75*
G02*
X142975000Y-64650000I250000J0D01*
G01*
G37*
%TD.AperFunction*%
%TO.P,C6,1*%
%TO.N,0V*%
%TA.AperFunction,SMDPad,CuDef*%
G36*
G01*
X142975000Y-61300000D02*
X144075000Y-61300000D01*
G75*
G02*
X144325000Y-61550000I0J-250000D01*
G01*
X144325000Y-63700000D01*
G75*
G02*
X144075000Y-63950000I-250000J0D01*
G01*
X142975000Y-63950000D01*
G75*
G02*
X142725000Y-63700000I0J250000D01*
G01*
X142725000Y-61550000D01*
G75*
G02*
X142975000Y-61300000I250000J0D01*
G01*
G37*
%TD.AperFunction*%
%TD*%
%TO.P,C7,1*%
%TO.N,Net-(C1-Pad1)*%
%TA.AperFunction,SMDPad,CuDef*%
G36*
G01*
X136925000Y-124175000D02*
X136925000Y-123075000D01*
G75*
G02*
X137175000Y-122825000I250000J0D01*
G01*
X140000000Y-122825000D01*
G75*
G02*
X140250000Y-123075000I0J-250000D01*
G01*
X140250000Y-124175000D01*
G75*
G02*
X140000000Y-124425000I-250000J0D01*
G01*
X137175000Y-124425000D01*
G75*
G02*
X136925000Y-124175000I0J250000D01*
G01*
G37*
%TD.AperFunction*%
%TO.P,C7,2*%
%TO.N,GND*%
%TA.AperFunction,SMDPad,CuDef*%
G36*
G01*
X142000000Y-124175000D02*
X142000000Y-123075000D01*
G75*
G02*
X142250000Y-122825000I250000J0D01*
G01*
X145075000Y-122825000D01*
G75*
G02*
X145325000Y-123075000I0J-250000D01*
G01*
X145325000Y-124175000D01*
G75*
G02*
X145075000Y-124425000I-250000J0D01*
G01*
X142250000Y-124425000D01*
G75*
G02*
X142000000Y-124175000I0J250000D01*
G01*
G37*
%TD.AperFunction*%
%TD*%
D12*
%TO.P,D1,1*%
%TO.N,Net-(C1-Pad1)*%
X138275000Y-118000000D03*
%TO.P,D1,2*%
%TO.N,GND*%
X138275000Y-113900000D03*
%TD*%
D13*
%TO.P,D3,1*%
%TO.N,+12V*%
X141825000Y-91775000D03*
%TO.P,D3,2*%
%TO.N,0V*%
X144625000Y-91775000D03*
%TD*%
%TO.P,D4,2*%
%TO.N,-12V*%
X141850000Y-70100000D03*
%TO.P,D4,1*%
%TO.N,0V*%
X144650000Y-70100000D03*
%TD*%
D14*
%TO.P,F1,1*%
%TO.N,Net-(F1-Pad1)*%
X138200000Y-150610000D03*
%TO.P,F1,2*%
%TO.N,+5VD*%
X138200000Y-146690000D03*
%TD*%
D15*
%TO.P,J1,1*%
%TO.N,Net-(F1-Pad1)*%
X142175000Y-152750000D03*
D16*
%TO.P,J1,2*%
%TO.N,Net-(J1-Pad2)*%
X142175000Y-150250000D03*
%TO.P,J1,3*%
%TO.N,Net-(J1-Pad3)*%
X142175000Y-148250000D03*
%TO.P,J1,4*%
%TO.N,GND*%
X142175000Y-145750000D03*
D17*
%TO.P,J1,SH1*%
%TO.N,Net-(J1-PadSH1)*%
X139465000Y-155820000D03*
%TO.P,J1,SH2*%
X139465000Y-142680000D03*
%TD*%
D18*
%TO.P,L1,1*%
%TO.N,Net-(C1-Pad1)*%
X142200000Y-114125000D03*
%TO.P,L1,4*%
%TO.N,+Vin*%
X142200000Y-109375000D03*
%TO.P,L1,2*%
%TO.N,GND*%
X144200000Y-114125000D03*
%TO.P,L1,3*%
%TO.N,-Vin*%
X144200000Y-109375000D03*
%TD*%
D11*
%TO.P,PS1,1*%
%TO.N,-Vin*%
X139150000Y-73175000D03*
%TO.P,PS1,2*%
%TO.N,+Vin*%
X139150000Y-75715000D03*
%TO.P,PS1,3*%
%TO.N,Net-(PS1-Pad3)*%
X139150000Y-78255000D03*
%TO.P,PS1,5*%
%TO.N,Net-(PS1-Pad5)*%
X139150000Y-83335000D03*
%TO.P,PS1,6*%
%TO.N,+12V*%
X139150000Y-85875000D03*
%TO.P,PS1,7*%
%TO.N,0V*%
X139150000Y-88415000D03*
%TO.P,PS1,8*%
%TO.N,Net-(PS1-Pad8)*%
X139150000Y-90955000D03*
%TD*%
%TO.P,PS2,8*%
%TO.N,Net-(PS2-Pad8)*%
X139200000Y-68030000D03*
%TO.P,PS2,7*%
%TO.N,-12V*%
X139200000Y-65490000D03*
%TO.P,PS2,6*%
%TO.N,0V*%
X139200000Y-62950000D03*
%TO.P,PS2,5*%
%TO.N,Net-(PS2-Pad5)*%
X139200000Y-60410000D03*
%TO.P,PS2,3*%
%TO.N,Net-(PS2-Pad3)*%
X139200000Y-55330000D03*
%TO.P,PS2,2*%
%TO.N,+Vin*%
X139200000Y-52790000D03*
%TO.P,PS2,1*%
%TO.N,-Vin*%
X139200000Y-50250000D03*
%TD*%
D19*
%TO.P,Q1,3*%
%TO.N,+5V*%
X138550000Y-108925000D03*
%TO.P,Q1,2*%
%TO.N,Net-(C1-Pad1)*%
X139500000Y-111025000D03*
%TO.P,Q1,1*%
%TO.N,GND*%
X137600000Y-111025000D03*
%TD*%
%TO.P,R1,1*%
%TO.N,Net-(R1-Pad1)*%
%TA.AperFunction,SMDPad,CuDef*%
G36*
G01*
X139375000Y-95900000D02*
X136475000Y-95900000D01*
G75*
G02*
X136225000Y-95650000I0J250000D01*
G01*
X136225000Y-95150000D01*
G75*
G02*
X136475000Y-94900000I250000J0D01*
G01*
X139375000Y-94900000D01*
G75*
G02*
X139625000Y-95150000I0J-250000D01*
G01*
X139625000Y-95650000D01*
G75*
G02*
X139375000Y-95900000I-250000J0D01*
G01*
G37*
%TD.AperFunction*%
%TO.P,R1,2*%
%TO.N,0V*%
%TA.AperFunction,SMDPad,CuDef*%
G36*
G01*
X139375000Y-94400000D02*
X136475000Y-94400000D01*
G75*
G02*
X136225000Y-94150000I0J250000D01*
G01*
X136225000Y-93650000D01*
G75*
G02*
X136475000Y-93400000I250000J0D01*
G01*
X139375000Y-93400000D01*
G75*
G02*
X139625000Y-93650000I0J-250000D01*
G01*
X139625000Y-94150000D01*
G75*
G02*
X139375000Y-94400000I-250000J0D01*
G01*
G37*
%TD.AperFunction*%
%TD*%
D20*
%TO.P,S1,1*%
%TO.N,+5VD*%
X138475000Y-104275000D03*
%TO.P,S1,2*%
X138475000Y-101775000D03*
%TO.P,S1,3*%
%TO.N,Net-(S1-Pad3)*%
X138475000Y-99275000D03*
%TO.P,S1,4*%
%TO.N,+5V*%
X143475000Y-104275000D03*
%TO.P,S1,5*%
X143475000Y-101775000D03*
%TO.P,S1,6*%
%TO.N,Net-(S1-Pad6)*%
X143475000Y-99275000D03*
D21*
%TO.P,S1,L1*%
%TO.N,+12V*%
X140975000Y-106775000D03*
%TO.P,S1,L2*%
%TO.N,Net-(R1-Pad1)*%
X140975000Y-96775000D03*
%TD*%
D22*
%TO.N,Net-(C1-Pad1)*%
X138275000Y-123312500D02*
X138587500Y-123625000D01*
X138275000Y-118000000D02*
X138275000Y-123312500D01*
X140925000Y-118000000D02*
X141525000Y-117400000D01*
X138275000Y-118000000D02*
X140925000Y-118000000D01*
X138587500Y-128112500D02*
X140975000Y-130500000D01*
X138587500Y-123625000D02*
X138587500Y-128112500D01*
X142200000Y-116725000D02*
X141525000Y-117400000D01*
X142200000Y-114125000D02*
X142200000Y-116725000D01*
X142200000Y-113725000D02*
X139500000Y-111025000D01*
X142200000Y-114125000D02*
X142200000Y-113725000D01*
%TO.N,+5V*%
X143475000Y-101775000D02*
X143475000Y-104275000D01*
X142068998Y-104275000D02*
X143475000Y-104275000D01*
X138550000Y-107793998D02*
X142068998Y-104275000D01*
X138550000Y-108925000D02*
X138550000Y-107793998D01*
%TO.N,0V*%
X138975000Y-62725000D02*
X139200000Y-62950000D01*
X136850000Y-62725000D02*
X138975000Y-62725000D01*
X144675010Y-63775010D02*
X143525000Y-62625000D01*
X144675010Y-70074990D02*
X144675010Y-63775010D01*
X144650000Y-70100000D02*
X144675010Y-70074990D01*
X143200000Y-62950000D02*
X143525000Y-62625000D01*
X139200000Y-62950000D02*
X143200000Y-62950000D01*
X136925000Y-92900000D02*
X137925000Y-93900000D01*
X136925000Y-88700000D02*
X136925000Y-92900000D01*
X138865000Y-88700000D02*
X139150000Y-88415000D01*
X136925000Y-88700000D02*
X138865000Y-88700000D01*
X143375000Y-90525000D02*
X144625000Y-91775000D01*
X143375000Y-88075000D02*
X143375000Y-90525000D01*
X132800000Y-65305000D02*
X130260000Y-65305000D01*
X130260000Y-65305000D02*
X130260000Y-70385000D01*
X130260000Y-70385000D02*
X132800000Y-70385000D01*
X130260000Y-67845000D02*
X132800000Y-67845000D01*
X130260000Y-65305000D02*
X128605000Y-65305000D01*
X128605000Y-65305000D02*
X127950000Y-64650000D01*
X129677999Y-61552499D02*
X135677499Y-61552499D01*
X135677499Y-61552499D02*
X136850000Y-62725000D01*
X127950000Y-63280498D02*
X129677999Y-61552499D01*
X127950000Y-64650000D02*
X127950000Y-63280498D01*
X139150000Y-88415000D02*
X143035000Y-88415000D01*
X143035000Y-88415000D02*
X143375000Y-88075000D01*
X130390497Y-71000001D02*
X143749999Y-71000001D01*
X129047499Y-79871045D02*
X129047499Y-72342999D01*
X137251454Y-88075000D02*
X129047499Y-79871045D01*
X143375000Y-88075000D02*
X137251454Y-88075000D01*
X143749999Y-71000001D02*
X144650000Y-70100000D01*
X129047499Y-72342999D02*
X130390497Y-71000001D01*
%TO.N,-12V*%
X139165000Y-65525000D02*
X139200000Y-65490000D01*
X136850000Y-65525000D02*
X139165000Y-65525000D01*
X141850000Y-67650000D02*
X143525000Y-65975000D01*
X141850000Y-70100000D02*
X141850000Y-67650000D01*
X141360000Y-67650000D02*
X141850000Y-67650000D01*
X139200000Y-65490000D02*
X141360000Y-67650000D01*
X134090000Y-62765000D02*
X136850000Y-65525000D01*
X132800000Y-62765000D02*
X134090000Y-62765000D01*
X130260000Y-62765000D02*
X132800000Y-62765000D01*
%TO.N,+12V*%
X142225000Y-85875000D02*
X143375000Y-84725000D01*
X139150000Y-85875000D02*
X142225000Y-85875000D01*
X130260000Y-72925000D02*
X132800000Y-72925000D01*
X132800000Y-81775000D02*
X136925000Y-85900000D01*
X132800000Y-72925000D02*
X132800000Y-81775000D01*
X139125000Y-85900000D02*
X139150000Y-85875000D01*
X136925000Y-85900000D02*
X139125000Y-85900000D01*
X143979001Y-100724999D02*
X144525001Y-101270999D01*
X143370997Y-100724999D02*
X143979001Y-100724999D01*
X142529002Y-106775000D02*
X140975000Y-106775000D01*
X142424999Y-99779001D02*
X143370997Y-100724999D01*
X144525001Y-104779001D02*
X142529002Y-106775000D01*
X142424999Y-92374999D02*
X142424999Y-99779001D01*
X144525001Y-101270999D02*
X144525001Y-104779001D01*
X141825000Y-91775000D02*
X142424999Y-92374999D01*
X143375000Y-84725000D02*
X145525001Y-86875001D01*
X145525001Y-86875001D02*
X145525001Y-92605001D01*
X145525001Y-92605001D02*
X145455001Y-92675001D01*
X145455001Y-92675001D02*
X142725001Y-92675001D01*
X142725001Y-92675001D02*
X141825000Y-91775000D01*
%TO.N,Net-(F1-Pad1)*%
X140340000Y-152750000D02*
X138200000Y-150610000D01*
X142175000Y-152750000D02*
X140340000Y-152750000D01*
%TO.N,+5VD*%
X136574990Y-106175010D02*
X138475000Y-104275000D01*
X136574990Y-145064990D02*
X136574990Y-106175010D01*
X138200000Y-146690000D02*
X136574990Y-145064990D01*
X138475000Y-101775000D02*
X138475000Y-104275000D01*
%TO.N,Net-(J1-PadSH1)*%
X139465000Y-144614722D02*
X139465000Y-142680000D01*
X141664279Y-146814001D02*
X139465000Y-144614722D01*
X142313723Y-146814001D02*
X141664279Y-146814001D01*
X143239001Y-147739279D02*
X142313723Y-146814001D01*
X143239001Y-154390765D02*
X143239001Y-147739279D01*
X141809766Y-155820000D02*
X143239001Y-154390765D01*
X139465000Y-155820000D02*
X141809766Y-155820000D01*
%TO.N,+Vin*%
X144949999Y-110350001D02*
X146525024Y-108774975D01*
X143175001Y-110350001D02*
X144949999Y-110350001D01*
X137987499Y-51577499D02*
X139200000Y-52790000D01*
X138617999Y-49037499D02*
X137987499Y-49667999D01*
X137987499Y-49667999D02*
X137987499Y-51577499D01*
X146525024Y-53650024D02*
X141912499Y-49037499D01*
X146550023Y-68855777D02*
X146525024Y-68830778D01*
X146525024Y-68830778D02*
X146525024Y-53650024D01*
X142200000Y-109375000D02*
X143175001Y-110350001D01*
X146550023Y-71344223D02*
X146550023Y-68855777D01*
X146525024Y-108774975D02*
X146525024Y-71369222D01*
X141912499Y-49037499D02*
X138617999Y-49037499D01*
X146525024Y-71369222D02*
X146550023Y-71344223D01*
X139150000Y-75715000D02*
X140012499Y-74852501D01*
X145175020Y-58765020D02*
X140062499Y-53652499D01*
X140012499Y-74667999D02*
X139732001Y-74387501D01*
X139732001Y-74387501D02*
X138567999Y-74387501D01*
X145175020Y-68895018D02*
X145175020Y-58765020D01*
X145550001Y-70930001D02*
X145550001Y-69269999D01*
X137937499Y-73757001D02*
X137937499Y-72592999D01*
X138567999Y-74387501D02*
X137937499Y-73757001D01*
X145550001Y-69269999D02*
X145175020Y-68895018D01*
X137937499Y-72592999D02*
X139030486Y-71500012D01*
X140012499Y-74852501D02*
X140012499Y-74667999D01*
X140062499Y-53652499D02*
X139200000Y-52790000D01*
X139030486Y-71500012D02*
X144979990Y-71500012D01*
X144979990Y-71500012D02*
X145550001Y-70930001D01*
%TO.N,-Vin*%
X143305002Y-73175000D02*
X139150000Y-73175000D01*
X146025012Y-108324988D02*
X146025012Y-75550012D01*
X144975000Y-109375000D02*
X146025012Y-108324988D01*
X144200000Y-109375000D02*
X144975000Y-109375000D01*
X143477501Y-73002501D02*
X143305002Y-73175000D01*
X146025012Y-75550012D02*
X143477501Y-73002501D01*
X145675031Y-68687907D02*
X146050012Y-69062888D01*
X145675031Y-56725031D02*
X145675031Y-68687907D01*
X146050012Y-71137112D02*
X144184623Y-73002501D01*
X139200000Y-50250000D02*
X145675031Y-56725031D01*
X146050012Y-69062888D02*
X146050012Y-71137112D01*
X144184623Y-73002501D02*
X143477501Y-73002501D01*
%TO.N,Net-(R1-Pad1)*%
X139300000Y-96775000D02*
X137925000Y-95400000D01*
X140975000Y-96775000D02*
X139300000Y-96775000D01*
%TO.N,GND*%
X140975000Y-137700000D02*
X140975000Y-140425000D01*
X142175000Y-141625000D02*
X142175000Y-145750000D01*
X140975000Y-140425000D02*
X142175000Y-141625000D01*
X144325000Y-122962500D02*
X143662500Y-123625000D01*
X144325000Y-117400000D02*
X144325000Y-122962500D01*
X143662500Y-135012500D02*
X143662500Y-123625000D01*
X140975000Y-137700000D02*
X143662500Y-135012500D01*
X144325000Y-114250000D02*
X144200000Y-114125000D01*
X144325000Y-117400000D02*
X144325000Y-114250000D01*
X137600000Y-113225000D02*
X138275000Y-113900000D01*
X137600000Y-111025000D02*
X137600000Y-113225000D01*
X138275000Y-110669998D02*
X138275000Y-113900000D01*
X138919999Y-110024999D02*
X138275000Y-110669998D01*
X140099999Y-110024999D02*
X138919999Y-110024999D01*
X144200000Y-114125000D02*
X140099999Y-110024999D01*
%TD*%
M02*
