M48
; DRILL file {KiCad (5.1.6-0-10_14)} date Friday, December 25, 2020 at 08:14:28 PM
; FORMAT={-:-/ absolute / inch / decimal}
; #@! TF.CreationDate,2020-12-25T20:14:28+01:00
; #@! TF.GenerationSoftware,Kicad,Pcbnew,(5.1.6-0-10_14)
; #@! TF.FileFunction,Plated,1,2,PTH
FMAT,2
INCH
T1C0.0276
T2C0.0354
T3C0.0362
T4C0.0453
T5C0.0906
%
G90
G05
T1
X5.5502Y-3.81
X5.5502Y-4.2037
T2
X5.4518Y-3.9085
X5.4518Y-4.0069
X5.4518Y-4.1053
X5.6486Y-3.9085
X5.6486Y-4.0069
X5.6486Y-4.1053
T3
X5.5974Y-5.7382
X5.5974Y-5.8366
X5.5974Y-5.9154
X5.5974Y-6.0138
T4
X5.4803Y-1.9783
X5.4803Y-2.0783
X5.4803Y-2.1783
X5.4803Y-2.3783
X5.4803Y-2.4783
X5.4803Y-2.5783
X5.4803Y-2.6783
X5.1283Y-2.4711
X5.1283Y-2.5711
X5.1283Y-2.6711
X5.1283Y-2.7711
X5.1283Y-2.8711
X5.2283Y-2.4711
X5.2283Y-2.5711
X5.2283Y-2.6711
X5.2283Y-2.7711
X5.2283Y-2.8711
X5.4783Y-2.8809
X5.4783Y-2.9809
X5.4783Y-3.0809
X5.4783Y-3.2809
X5.4783Y-3.3809
X5.4783Y-3.4809
X5.4783Y-3.5809
T5
X5.4907Y-5.6173
X5.4907Y-6.1346
T0
M30
