%TF.GenerationSoftware,KiCad,Pcbnew,(5.1.6-0-10_14)*%
%TF.CreationDate,2020-12-25T19:47:45+01:00*%
%TF.ProjectId,USBPowerSupplyEurorack,55534250-6f77-4657-9253-7570706c7945,rev?*%
%TF.SameCoordinates,Original*%
%TF.FileFunction,Paste,Top*%
%TF.FilePolarity,Positive*%
%FSLAX46Y46*%
G04 Gerber Fmt 4.6, Leading zero omitted, Abs format (unit mm)*
G04 Created by KiCad (PCBNEW (5.1.6-0-10_14)) date 2020-12-25 19:47:45*
%MOMM*%
%LPD*%
G01*
G04 APERTURE LIST*
%ADD10R,1.550000X2.200000*%
%ADD11R,1.100000X1.100000*%
%ADD12R,3.430000X1.530000*%
%ADD13R,0.950000X1.250000*%
%ADD14R,0.600000X1.300000*%
G04 APERTURE END LIST*
%TO.C,C1*%
G36*
G01*
X138825000Y-128250000D02*
X140425000Y-128250000D01*
G75*
G02*
X140675000Y-128500000I0J-250000D01*
G01*
X140675000Y-132500000D01*
G75*
G02*
X140425000Y-132750000I-250000J0D01*
G01*
X138825000Y-132750000D01*
G75*
G02*
X138575000Y-132500000I0J250000D01*
G01*
X138575000Y-128500000D01*
G75*
G02*
X138825000Y-128250000I250000J0D01*
G01*
G37*
G36*
G01*
X138825000Y-135450000D02*
X140425000Y-135450000D01*
G75*
G02*
X140675000Y-135700000I0J-250000D01*
G01*
X140675000Y-139700000D01*
G75*
G02*
X140425000Y-139950000I-250000J0D01*
G01*
X138825000Y-139950000D01*
G75*
G02*
X138575000Y-139700000I0J250000D01*
G01*
X138575000Y-135700000D01*
G75*
G02*
X138825000Y-135450000I250000J0D01*
G01*
G37*
%TD*%
%TO.C,C2*%
G36*
G01*
X139550000Y-118475000D02*
X139550000Y-116325000D01*
G75*
G02*
X139800000Y-116075000I250000J0D01*
G01*
X140550000Y-116075000D01*
G75*
G02*
X140800000Y-116325000I0J-250000D01*
G01*
X140800000Y-118475000D01*
G75*
G02*
X140550000Y-118725000I-250000J0D01*
G01*
X139800000Y-118725000D01*
G75*
G02*
X139550000Y-118475000I0J250000D01*
G01*
G37*
G36*
G01*
X142350000Y-118475000D02*
X142350000Y-116325000D01*
G75*
G02*
X142600000Y-116075000I250000J0D01*
G01*
X143350000Y-116075000D01*
G75*
G02*
X143600000Y-116325000I0J-250000D01*
G01*
X143600000Y-118475000D01*
G75*
G02*
X143350000Y-118725000I-250000J0D01*
G01*
X142600000Y-118725000D01*
G75*
G02*
X142350000Y-118475000I0J250000D01*
G01*
G37*
%TD*%
%TO.C,C3*%
G36*
G01*
X134875000Y-62100000D02*
X136125000Y-62100000D01*
G75*
G02*
X136375000Y-62350000I0J-250000D01*
G01*
X136375000Y-63100000D01*
G75*
G02*
X136125000Y-63350000I-250000J0D01*
G01*
X134875000Y-63350000D01*
G75*
G02*
X134625000Y-63100000I0J250000D01*
G01*
X134625000Y-62350000D01*
G75*
G02*
X134875000Y-62100000I250000J0D01*
G01*
G37*
G36*
G01*
X134875000Y-64900000D02*
X136125000Y-64900000D01*
G75*
G02*
X136375000Y-65150000I0J-250000D01*
G01*
X136375000Y-65900000D01*
G75*
G02*
X136125000Y-66150000I-250000J0D01*
G01*
X134875000Y-66150000D01*
G75*
G02*
X134625000Y-65900000I0J250000D01*
G01*
X134625000Y-65150000D01*
G75*
G02*
X134875000Y-64900000I250000J0D01*
G01*
G37*
%TD*%
%TO.C,C4*%
G36*
G01*
X134950000Y-88075000D02*
X136200000Y-88075000D01*
G75*
G02*
X136450000Y-88325000I0J-250000D01*
G01*
X136450000Y-89075000D01*
G75*
G02*
X136200000Y-89325000I-250000J0D01*
G01*
X134950000Y-89325000D01*
G75*
G02*
X134700000Y-89075000I0J250000D01*
G01*
X134700000Y-88325000D01*
G75*
G02*
X134950000Y-88075000I250000J0D01*
G01*
G37*
G36*
G01*
X134950000Y-85275000D02*
X136200000Y-85275000D01*
G75*
G02*
X136450000Y-85525000I0J-250000D01*
G01*
X136450000Y-86275000D01*
G75*
G02*
X136200000Y-86525000I-250000J0D01*
G01*
X134950000Y-86525000D01*
G75*
G02*
X134700000Y-86275000I0J250000D01*
G01*
X134700000Y-85525000D01*
G75*
G02*
X134950000Y-85275000I250000J0D01*
G01*
G37*
%TD*%
%TO.C,C5*%
G36*
G01*
X141475000Y-83400000D02*
X142575000Y-83400000D01*
G75*
G02*
X142825000Y-83650000I0J-250000D01*
G01*
X142825000Y-85800000D01*
G75*
G02*
X142575000Y-86050000I-250000J0D01*
G01*
X141475000Y-86050000D01*
G75*
G02*
X141225000Y-85800000I0J250000D01*
G01*
X141225000Y-83650000D01*
G75*
G02*
X141475000Y-83400000I250000J0D01*
G01*
G37*
G36*
G01*
X141475000Y-86750000D02*
X142575000Y-86750000D01*
G75*
G02*
X142825000Y-87000000I0J-250000D01*
G01*
X142825000Y-89150000D01*
G75*
G02*
X142575000Y-89400000I-250000J0D01*
G01*
X141475000Y-89400000D01*
G75*
G02*
X141225000Y-89150000I0J250000D01*
G01*
X141225000Y-87000000D01*
G75*
G02*
X141475000Y-86750000I250000J0D01*
G01*
G37*
%TD*%
%TO.C,C6*%
G36*
G01*
X141625000Y-64650000D02*
X142725000Y-64650000D01*
G75*
G02*
X142975000Y-64900000I0J-250000D01*
G01*
X142975000Y-67050000D01*
G75*
G02*
X142725000Y-67300000I-250000J0D01*
G01*
X141625000Y-67300000D01*
G75*
G02*
X141375000Y-67050000I0J250000D01*
G01*
X141375000Y-64900000D01*
G75*
G02*
X141625000Y-64650000I250000J0D01*
G01*
G37*
G36*
G01*
X141625000Y-61300000D02*
X142725000Y-61300000D01*
G75*
G02*
X142975000Y-61550000I0J-250000D01*
G01*
X142975000Y-63700000D01*
G75*
G02*
X142725000Y-63950000I-250000J0D01*
G01*
X141625000Y-63950000D01*
G75*
G02*
X141375000Y-63700000I0J250000D01*
G01*
X141375000Y-61550000D01*
G75*
G02*
X141625000Y-61300000I250000J0D01*
G01*
G37*
%TD*%
%TO.C,C7*%
G36*
G01*
X135575000Y-124175000D02*
X135575000Y-123075000D01*
G75*
G02*
X135825000Y-122825000I250000J0D01*
G01*
X138650000Y-122825000D01*
G75*
G02*
X138900000Y-123075000I0J-250000D01*
G01*
X138900000Y-124175000D01*
G75*
G02*
X138650000Y-124425000I-250000J0D01*
G01*
X135825000Y-124425000D01*
G75*
G02*
X135575000Y-124175000I0J250000D01*
G01*
G37*
G36*
G01*
X140650000Y-124175000D02*
X140650000Y-123075000D01*
G75*
G02*
X140900000Y-122825000I250000J0D01*
G01*
X143725000Y-122825000D01*
G75*
G02*
X143975000Y-123075000I0J-250000D01*
G01*
X143975000Y-124175000D01*
G75*
G02*
X143725000Y-124425000I-250000J0D01*
G01*
X140900000Y-124425000D01*
G75*
G02*
X140650000Y-124175000I0J250000D01*
G01*
G37*
%TD*%
D10*
%TO.C,D1*%
X136925000Y-118000000D03*
X136925000Y-113900000D03*
%TD*%
D11*
%TO.C,D3*%
X140475000Y-91775000D03*
X143275000Y-91775000D03*
%TD*%
%TO.C,D4*%
X140500000Y-70100000D03*
X143300000Y-70100000D03*
%TD*%
D12*
%TO.C,F1*%
X136850000Y-150610000D03*
X136850000Y-146690000D03*
%TD*%
D13*
%TO.C,L1*%
X140850000Y-114125000D03*
X140850000Y-109375000D03*
X142850000Y-114125000D03*
X142850000Y-109375000D03*
%TD*%
D14*
%TO.C,Q1*%
X137200000Y-108925000D03*
X138150000Y-111025000D03*
X136250000Y-111025000D03*
%TD*%
%TO.C,R1*%
G36*
G01*
X138025000Y-95900000D02*
X135125000Y-95900000D01*
G75*
G02*
X134875000Y-95650000I0J250000D01*
G01*
X134875000Y-95150000D01*
G75*
G02*
X135125000Y-94900000I250000J0D01*
G01*
X138025000Y-94900000D01*
G75*
G02*
X138275000Y-95150000I0J-250000D01*
G01*
X138275000Y-95650000D01*
G75*
G02*
X138025000Y-95900000I-250000J0D01*
G01*
G37*
G36*
G01*
X138025000Y-94400000D02*
X135125000Y-94400000D01*
G75*
G02*
X134875000Y-94150000I0J250000D01*
G01*
X134875000Y-93650000D01*
G75*
G02*
X135125000Y-93400000I250000J0D01*
G01*
X138025000Y-93400000D01*
G75*
G02*
X138275000Y-93650000I0J-250000D01*
G01*
X138275000Y-94150000D01*
G75*
G02*
X138025000Y-94400000I-250000J0D01*
G01*
G37*
%TD*%
M02*
