%TF.GenerationSoftware,KiCad,Pcbnew,(5.1.6-0-10_14)*%
%TF.CreationDate,2020-12-25T20:14:25+01:00*%
%TF.ProjectId,USBPowerSupplyEurorack,55534250-6f77-4657-9253-7570706c7945,rev?*%
%TF.SameCoordinates,Original*%
%TF.FileFunction,Paste,Top*%
%TF.FilePolarity,Positive*%
%FSLAX46Y46*%
G04 Gerber Fmt 4.6, Leading zero omitted, Abs format (unit mm)*
G04 Created by KiCad (PCBNEW (5.1.6-0-10_14)) date 2020-12-25 20:14:25*
%MOMM*%
%LPD*%
G01*
G04 APERTURE LIST*
%ADD10R,1.550000X2.200000*%
%ADD11R,1.100000X1.100000*%
%ADD12R,3.430000X1.530000*%
%ADD13R,0.950000X1.250000*%
%ADD14R,0.600000X1.300000*%
G04 APERTURE END LIST*
%TO.C,C1*%
G36*
G01*
X140175000Y-128250000D02*
X141775000Y-128250000D01*
G75*
G02*
X142025000Y-128500000I0J-250000D01*
G01*
X142025000Y-132500000D01*
G75*
G02*
X141775000Y-132750000I-250000J0D01*
G01*
X140175000Y-132750000D01*
G75*
G02*
X139925000Y-132500000I0J250000D01*
G01*
X139925000Y-128500000D01*
G75*
G02*
X140175000Y-128250000I250000J0D01*
G01*
G37*
G36*
G01*
X140175000Y-135450000D02*
X141775000Y-135450000D01*
G75*
G02*
X142025000Y-135700000I0J-250000D01*
G01*
X142025000Y-139700000D01*
G75*
G02*
X141775000Y-139950000I-250000J0D01*
G01*
X140175000Y-139950000D01*
G75*
G02*
X139925000Y-139700000I0J250000D01*
G01*
X139925000Y-135700000D01*
G75*
G02*
X140175000Y-135450000I250000J0D01*
G01*
G37*
%TD*%
%TO.C,C2*%
G36*
G01*
X140900000Y-118475000D02*
X140900000Y-116325000D01*
G75*
G02*
X141150000Y-116075000I250000J0D01*
G01*
X141900000Y-116075000D01*
G75*
G02*
X142150000Y-116325000I0J-250000D01*
G01*
X142150000Y-118475000D01*
G75*
G02*
X141900000Y-118725000I-250000J0D01*
G01*
X141150000Y-118725000D01*
G75*
G02*
X140900000Y-118475000I0J250000D01*
G01*
G37*
G36*
G01*
X143700000Y-118475000D02*
X143700000Y-116325000D01*
G75*
G02*
X143950000Y-116075000I250000J0D01*
G01*
X144700000Y-116075000D01*
G75*
G02*
X144950000Y-116325000I0J-250000D01*
G01*
X144950000Y-118475000D01*
G75*
G02*
X144700000Y-118725000I-250000J0D01*
G01*
X143950000Y-118725000D01*
G75*
G02*
X143700000Y-118475000I0J250000D01*
G01*
G37*
%TD*%
%TO.C,C3*%
G36*
G01*
X136225000Y-62100000D02*
X137475000Y-62100000D01*
G75*
G02*
X137725000Y-62350000I0J-250000D01*
G01*
X137725000Y-63100000D01*
G75*
G02*
X137475000Y-63350000I-250000J0D01*
G01*
X136225000Y-63350000D01*
G75*
G02*
X135975000Y-63100000I0J250000D01*
G01*
X135975000Y-62350000D01*
G75*
G02*
X136225000Y-62100000I250000J0D01*
G01*
G37*
G36*
G01*
X136225000Y-64900000D02*
X137475000Y-64900000D01*
G75*
G02*
X137725000Y-65150000I0J-250000D01*
G01*
X137725000Y-65900000D01*
G75*
G02*
X137475000Y-66150000I-250000J0D01*
G01*
X136225000Y-66150000D01*
G75*
G02*
X135975000Y-65900000I0J250000D01*
G01*
X135975000Y-65150000D01*
G75*
G02*
X136225000Y-64900000I250000J0D01*
G01*
G37*
%TD*%
%TO.C,C4*%
G36*
G01*
X136300000Y-88075000D02*
X137550000Y-88075000D01*
G75*
G02*
X137800000Y-88325000I0J-250000D01*
G01*
X137800000Y-89075000D01*
G75*
G02*
X137550000Y-89325000I-250000J0D01*
G01*
X136300000Y-89325000D01*
G75*
G02*
X136050000Y-89075000I0J250000D01*
G01*
X136050000Y-88325000D01*
G75*
G02*
X136300000Y-88075000I250000J0D01*
G01*
G37*
G36*
G01*
X136300000Y-85275000D02*
X137550000Y-85275000D01*
G75*
G02*
X137800000Y-85525000I0J-250000D01*
G01*
X137800000Y-86275000D01*
G75*
G02*
X137550000Y-86525000I-250000J0D01*
G01*
X136300000Y-86525000D01*
G75*
G02*
X136050000Y-86275000I0J250000D01*
G01*
X136050000Y-85525000D01*
G75*
G02*
X136300000Y-85275000I250000J0D01*
G01*
G37*
%TD*%
%TO.C,C5*%
G36*
G01*
X142825000Y-83400000D02*
X143925000Y-83400000D01*
G75*
G02*
X144175000Y-83650000I0J-250000D01*
G01*
X144175000Y-85800000D01*
G75*
G02*
X143925000Y-86050000I-250000J0D01*
G01*
X142825000Y-86050000D01*
G75*
G02*
X142575000Y-85800000I0J250000D01*
G01*
X142575000Y-83650000D01*
G75*
G02*
X142825000Y-83400000I250000J0D01*
G01*
G37*
G36*
G01*
X142825000Y-86750000D02*
X143925000Y-86750000D01*
G75*
G02*
X144175000Y-87000000I0J-250000D01*
G01*
X144175000Y-89150000D01*
G75*
G02*
X143925000Y-89400000I-250000J0D01*
G01*
X142825000Y-89400000D01*
G75*
G02*
X142575000Y-89150000I0J250000D01*
G01*
X142575000Y-87000000D01*
G75*
G02*
X142825000Y-86750000I250000J0D01*
G01*
G37*
%TD*%
%TO.C,C6*%
G36*
G01*
X142975000Y-64650000D02*
X144075000Y-64650000D01*
G75*
G02*
X144325000Y-64900000I0J-250000D01*
G01*
X144325000Y-67050000D01*
G75*
G02*
X144075000Y-67300000I-250000J0D01*
G01*
X142975000Y-67300000D01*
G75*
G02*
X142725000Y-67050000I0J250000D01*
G01*
X142725000Y-64900000D01*
G75*
G02*
X142975000Y-64650000I250000J0D01*
G01*
G37*
G36*
G01*
X142975000Y-61300000D02*
X144075000Y-61300000D01*
G75*
G02*
X144325000Y-61550000I0J-250000D01*
G01*
X144325000Y-63700000D01*
G75*
G02*
X144075000Y-63950000I-250000J0D01*
G01*
X142975000Y-63950000D01*
G75*
G02*
X142725000Y-63700000I0J250000D01*
G01*
X142725000Y-61550000D01*
G75*
G02*
X142975000Y-61300000I250000J0D01*
G01*
G37*
%TD*%
%TO.C,C7*%
G36*
G01*
X136925000Y-124175000D02*
X136925000Y-123075000D01*
G75*
G02*
X137175000Y-122825000I250000J0D01*
G01*
X140000000Y-122825000D01*
G75*
G02*
X140250000Y-123075000I0J-250000D01*
G01*
X140250000Y-124175000D01*
G75*
G02*
X140000000Y-124425000I-250000J0D01*
G01*
X137175000Y-124425000D01*
G75*
G02*
X136925000Y-124175000I0J250000D01*
G01*
G37*
G36*
G01*
X142000000Y-124175000D02*
X142000000Y-123075000D01*
G75*
G02*
X142250000Y-122825000I250000J0D01*
G01*
X145075000Y-122825000D01*
G75*
G02*
X145325000Y-123075000I0J-250000D01*
G01*
X145325000Y-124175000D01*
G75*
G02*
X145075000Y-124425000I-250000J0D01*
G01*
X142250000Y-124425000D01*
G75*
G02*
X142000000Y-124175000I0J250000D01*
G01*
G37*
%TD*%
D10*
%TO.C,D1*%
X138275000Y-118000000D03*
X138275000Y-113900000D03*
%TD*%
D11*
%TO.C,D3*%
X141825000Y-91775000D03*
X144625000Y-91775000D03*
%TD*%
%TO.C,D4*%
X141850000Y-70100000D03*
X144650000Y-70100000D03*
%TD*%
D12*
%TO.C,F1*%
X138200000Y-150610000D03*
X138200000Y-146690000D03*
%TD*%
D13*
%TO.C,L1*%
X142200000Y-114125000D03*
X142200000Y-109375000D03*
X144200000Y-114125000D03*
X144200000Y-109375000D03*
%TD*%
D14*
%TO.C,Q1*%
X138550000Y-108925000D03*
X139500000Y-111025000D03*
X137600000Y-111025000D03*
%TD*%
%TO.C,R1*%
G36*
G01*
X139375000Y-95900000D02*
X136475000Y-95900000D01*
G75*
G02*
X136225000Y-95650000I0J250000D01*
G01*
X136225000Y-95150000D01*
G75*
G02*
X136475000Y-94900000I250000J0D01*
G01*
X139375000Y-94900000D01*
G75*
G02*
X139625000Y-95150000I0J-250000D01*
G01*
X139625000Y-95650000D01*
G75*
G02*
X139375000Y-95900000I-250000J0D01*
G01*
G37*
G36*
G01*
X139375000Y-94400000D02*
X136475000Y-94400000D01*
G75*
G02*
X136225000Y-94150000I0J250000D01*
G01*
X136225000Y-93650000D01*
G75*
G02*
X136475000Y-93400000I250000J0D01*
G01*
X139375000Y-93400000D01*
G75*
G02*
X139625000Y-93650000I0J-250000D01*
G01*
X139625000Y-94150000D01*
G75*
G02*
X139375000Y-94400000I-250000J0D01*
G01*
G37*
%TD*%
M02*
