%TF.GenerationSoftware,KiCad,Pcbnew,(5.1.6-0-10_14)*%
%TF.CreationDate,2020-12-25T19:47:45+01:00*%
%TF.ProjectId,USBPowerSupplyEurorack,55534250-6f77-4657-9253-7570706c7945,rev?*%
%TF.SameCoordinates,Original*%
%TF.FileFunction,Copper,L1,Top*%
%TF.FilePolarity,Positive*%
%FSLAX46Y46*%
G04 Gerber Fmt 4.6, Leading zero omitted, Abs format (unit mm)*
G04 Created by KiCad (PCBNEW (5.1.6-0-10_14)) date 2020-12-25 19:47:45*
%MOMM*%
%LPD*%
G01*
G04 APERTURE LIST*
%TA.AperFunction,SMDPad,CuDef*%
%ADD10R,1.550000X2.200000*%
%TD*%
%TA.AperFunction,SMDPad,CuDef*%
%ADD11R,1.100000X1.100000*%
%TD*%
%TA.AperFunction,SMDPad,CuDef*%
%ADD12R,3.430000X1.530000*%
%TD*%
%TA.AperFunction,ComponentPad*%
%ADD13R,1.428000X1.428000*%
%TD*%
%TA.AperFunction,ComponentPad*%
%ADD14C,1.428000*%
%TD*%
%TA.AperFunction,ComponentPad*%
%ADD15C,3.316000*%
%TD*%
%TA.AperFunction,SMDPad,CuDef*%
%ADD16R,0.950000X1.250000*%
%TD*%
%TA.AperFunction,ComponentPad*%
%ADD17C,1.725000*%
%TD*%
%TA.AperFunction,SMDPad,CuDef*%
%ADD18R,0.600000X1.300000*%
%TD*%
%TA.AperFunction,ComponentPad*%
%ADD19C,1.400000*%
%TD*%
%TA.AperFunction,ComponentPad*%
%ADD20C,1.200000*%
%TD*%
%TA.AperFunction,Conductor*%
%ADD21C,0.300000*%
%TD*%
G04 APERTURE END LIST*
%TO.P,C1,1*%
%TO.N,Net-(C1-Pad1)*%
%TA.AperFunction,SMDPad,CuDef*%
G36*
G01*
X138825000Y-128250000D02*
X140425000Y-128250000D01*
G75*
G02*
X140675000Y-128500000I0J-250000D01*
G01*
X140675000Y-132500000D01*
G75*
G02*
X140425000Y-132750000I-250000J0D01*
G01*
X138825000Y-132750000D01*
G75*
G02*
X138575000Y-132500000I0J250000D01*
G01*
X138575000Y-128500000D01*
G75*
G02*
X138825000Y-128250000I250000J0D01*
G01*
G37*
%TD.AperFunction*%
%TO.P,C1,2*%
%TO.N,GND*%
%TA.AperFunction,SMDPad,CuDef*%
G36*
G01*
X138825000Y-135450000D02*
X140425000Y-135450000D01*
G75*
G02*
X140675000Y-135700000I0J-250000D01*
G01*
X140675000Y-139700000D01*
G75*
G02*
X140425000Y-139950000I-250000J0D01*
G01*
X138825000Y-139950000D01*
G75*
G02*
X138575000Y-139700000I0J250000D01*
G01*
X138575000Y-135700000D01*
G75*
G02*
X138825000Y-135450000I250000J0D01*
G01*
G37*
%TD.AperFunction*%
%TD*%
%TO.P,C2,1*%
%TO.N,Net-(C1-Pad1)*%
%TA.AperFunction,SMDPad,CuDef*%
G36*
G01*
X139550000Y-118475000D02*
X139550000Y-116325000D01*
G75*
G02*
X139800000Y-116075000I250000J0D01*
G01*
X140550000Y-116075000D01*
G75*
G02*
X140800000Y-116325000I0J-250000D01*
G01*
X140800000Y-118475000D01*
G75*
G02*
X140550000Y-118725000I-250000J0D01*
G01*
X139800000Y-118725000D01*
G75*
G02*
X139550000Y-118475000I0J250000D01*
G01*
G37*
%TD.AperFunction*%
%TO.P,C2,2*%
%TO.N,GND*%
%TA.AperFunction,SMDPad,CuDef*%
G36*
G01*
X142350000Y-118475000D02*
X142350000Y-116325000D01*
G75*
G02*
X142600000Y-116075000I250000J0D01*
G01*
X143350000Y-116075000D01*
G75*
G02*
X143600000Y-116325000I0J-250000D01*
G01*
X143600000Y-118475000D01*
G75*
G02*
X143350000Y-118725000I-250000J0D01*
G01*
X142600000Y-118725000D01*
G75*
G02*
X142350000Y-118475000I0J250000D01*
G01*
G37*
%TD.AperFunction*%
%TD*%
%TO.P,C3,1*%
%TO.N,0V*%
%TA.AperFunction,SMDPad,CuDef*%
G36*
G01*
X134875000Y-62100000D02*
X136125000Y-62100000D01*
G75*
G02*
X136375000Y-62350000I0J-250000D01*
G01*
X136375000Y-63100000D01*
G75*
G02*
X136125000Y-63350000I-250000J0D01*
G01*
X134875000Y-63350000D01*
G75*
G02*
X134625000Y-63100000I0J250000D01*
G01*
X134625000Y-62350000D01*
G75*
G02*
X134875000Y-62100000I250000J0D01*
G01*
G37*
%TD.AperFunction*%
%TO.P,C3,2*%
%TO.N,-12V*%
%TA.AperFunction,SMDPad,CuDef*%
G36*
G01*
X134875000Y-64900000D02*
X136125000Y-64900000D01*
G75*
G02*
X136375000Y-65150000I0J-250000D01*
G01*
X136375000Y-65900000D01*
G75*
G02*
X136125000Y-66150000I-250000J0D01*
G01*
X134875000Y-66150000D01*
G75*
G02*
X134625000Y-65900000I0J250000D01*
G01*
X134625000Y-65150000D01*
G75*
G02*
X134875000Y-64900000I250000J0D01*
G01*
G37*
%TD.AperFunction*%
%TD*%
%TO.P,C4,2*%
%TO.N,0V*%
%TA.AperFunction,SMDPad,CuDef*%
G36*
G01*
X134950000Y-88075000D02*
X136200000Y-88075000D01*
G75*
G02*
X136450000Y-88325000I0J-250000D01*
G01*
X136450000Y-89075000D01*
G75*
G02*
X136200000Y-89325000I-250000J0D01*
G01*
X134950000Y-89325000D01*
G75*
G02*
X134700000Y-89075000I0J250000D01*
G01*
X134700000Y-88325000D01*
G75*
G02*
X134950000Y-88075000I250000J0D01*
G01*
G37*
%TD.AperFunction*%
%TO.P,C4,1*%
%TO.N,+12V*%
%TA.AperFunction,SMDPad,CuDef*%
G36*
G01*
X134950000Y-85275000D02*
X136200000Y-85275000D01*
G75*
G02*
X136450000Y-85525000I0J-250000D01*
G01*
X136450000Y-86275000D01*
G75*
G02*
X136200000Y-86525000I-250000J0D01*
G01*
X134950000Y-86525000D01*
G75*
G02*
X134700000Y-86275000I0J250000D01*
G01*
X134700000Y-85525000D01*
G75*
G02*
X134950000Y-85275000I250000J0D01*
G01*
G37*
%TD.AperFunction*%
%TD*%
%TO.P,C5,1*%
%TO.N,+12V*%
%TA.AperFunction,SMDPad,CuDef*%
G36*
G01*
X141475000Y-83400000D02*
X142575000Y-83400000D01*
G75*
G02*
X142825000Y-83650000I0J-250000D01*
G01*
X142825000Y-85800000D01*
G75*
G02*
X142575000Y-86050000I-250000J0D01*
G01*
X141475000Y-86050000D01*
G75*
G02*
X141225000Y-85800000I0J250000D01*
G01*
X141225000Y-83650000D01*
G75*
G02*
X141475000Y-83400000I250000J0D01*
G01*
G37*
%TD.AperFunction*%
%TO.P,C5,2*%
%TO.N,0V*%
%TA.AperFunction,SMDPad,CuDef*%
G36*
G01*
X141475000Y-86750000D02*
X142575000Y-86750000D01*
G75*
G02*
X142825000Y-87000000I0J-250000D01*
G01*
X142825000Y-89150000D01*
G75*
G02*
X142575000Y-89400000I-250000J0D01*
G01*
X141475000Y-89400000D01*
G75*
G02*
X141225000Y-89150000I0J250000D01*
G01*
X141225000Y-87000000D01*
G75*
G02*
X141475000Y-86750000I250000J0D01*
G01*
G37*
%TD.AperFunction*%
%TD*%
%TO.P,C6,2*%
%TO.N,-12V*%
%TA.AperFunction,SMDPad,CuDef*%
G36*
G01*
X141625000Y-64650000D02*
X142725000Y-64650000D01*
G75*
G02*
X142975000Y-64900000I0J-250000D01*
G01*
X142975000Y-67050000D01*
G75*
G02*
X142725000Y-67300000I-250000J0D01*
G01*
X141625000Y-67300000D01*
G75*
G02*
X141375000Y-67050000I0J250000D01*
G01*
X141375000Y-64900000D01*
G75*
G02*
X141625000Y-64650000I250000J0D01*
G01*
G37*
%TD.AperFunction*%
%TO.P,C6,1*%
%TO.N,0V*%
%TA.AperFunction,SMDPad,CuDef*%
G36*
G01*
X141625000Y-61300000D02*
X142725000Y-61300000D01*
G75*
G02*
X142975000Y-61550000I0J-250000D01*
G01*
X142975000Y-63700000D01*
G75*
G02*
X142725000Y-63950000I-250000J0D01*
G01*
X141625000Y-63950000D01*
G75*
G02*
X141375000Y-63700000I0J250000D01*
G01*
X141375000Y-61550000D01*
G75*
G02*
X141625000Y-61300000I250000J0D01*
G01*
G37*
%TD.AperFunction*%
%TD*%
%TO.P,C7,1*%
%TO.N,Net-(C1-Pad1)*%
%TA.AperFunction,SMDPad,CuDef*%
G36*
G01*
X135575000Y-124175000D02*
X135575000Y-123075000D01*
G75*
G02*
X135825000Y-122825000I250000J0D01*
G01*
X138650000Y-122825000D01*
G75*
G02*
X138900000Y-123075000I0J-250000D01*
G01*
X138900000Y-124175000D01*
G75*
G02*
X138650000Y-124425000I-250000J0D01*
G01*
X135825000Y-124425000D01*
G75*
G02*
X135575000Y-124175000I0J250000D01*
G01*
G37*
%TD.AperFunction*%
%TO.P,C7,2*%
%TO.N,GND*%
%TA.AperFunction,SMDPad,CuDef*%
G36*
G01*
X140650000Y-124175000D02*
X140650000Y-123075000D01*
G75*
G02*
X140900000Y-122825000I250000J0D01*
G01*
X143725000Y-122825000D01*
G75*
G02*
X143975000Y-123075000I0J-250000D01*
G01*
X143975000Y-124175000D01*
G75*
G02*
X143725000Y-124425000I-250000J0D01*
G01*
X140900000Y-124425000D01*
G75*
G02*
X140650000Y-124175000I0J250000D01*
G01*
G37*
%TD.AperFunction*%
%TD*%
D10*
%TO.P,D1,1*%
%TO.N,Net-(C1-Pad1)*%
X136925000Y-118000000D03*
%TO.P,D1,2*%
%TO.N,GND*%
X136925000Y-113900000D03*
%TD*%
D11*
%TO.P,D3,1*%
%TO.N,+12V*%
X140475000Y-91775000D03*
%TO.P,D3,2*%
%TO.N,0V*%
X143275000Y-91775000D03*
%TD*%
%TO.P,D4,2*%
%TO.N,-12V*%
X140500000Y-70100000D03*
%TO.P,D4,1*%
%TO.N,0V*%
X143300000Y-70100000D03*
%TD*%
D12*
%TO.P,F1,1*%
%TO.N,Net-(F1-Pad1)*%
X136850000Y-150610000D03*
%TO.P,F1,2*%
%TO.N,+5VD*%
X136850000Y-146690000D03*
%TD*%
D13*
%TO.P,J1,1*%
%TO.N,Net-(F1-Pad1)*%
X140825000Y-152750000D03*
D14*
%TO.P,J1,2*%
%TO.N,Net-(J1-Pad2)*%
X140825000Y-150250000D03*
%TO.P,J1,3*%
%TO.N,Net-(J1-Pad3)*%
X140825000Y-148250000D03*
%TO.P,J1,4*%
%TO.N,GND*%
X140825000Y-145750000D03*
D15*
%TO.P,J1,SH1*%
%TO.N,Net-(J1-PadSH1)*%
X138115000Y-155820000D03*
%TO.P,J1,SH2*%
X138115000Y-142680000D03*
%TD*%
D16*
%TO.P,L1,1*%
%TO.N,Net-(C1-Pad1)*%
X140850000Y-114125000D03*
%TO.P,L1,4*%
%TO.N,+Vin*%
X140850000Y-109375000D03*
%TO.P,L1,2*%
%TO.N,GND*%
X142850000Y-114125000D03*
%TO.P,L1,3*%
%TO.N,-Vin*%
X142850000Y-109375000D03*
%TD*%
D17*
%TO.P,PS1,1*%
%TO.N,-Vin*%
X137800000Y-73175000D03*
%TO.P,PS1,2*%
%TO.N,+Vin*%
X137800000Y-75715000D03*
%TO.P,PS1,3*%
%TO.N,Net-(PS1-Pad3)*%
X137800000Y-78255000D03*
%TO.P,PS1,5*%
%TO.N,Net-(PS1-Pad5)*%
X137800000Y-83335000D03*
%TO.P,PS1,6*%
%TO.N,+12V*%
X137800000Y-85875000D03*
%TO.P,PS1,7*%
%TO.N,0V*%
X137800000Y-88415000D03*
%TO.P,PS1,8*%
%TO.N,Net-(PS1-Pad8)*%
X137800000Y-90955000D03*
%TD*%
%TO.P,PS2,8*%
%TO.N,Net-(PS2-Pad8)*%
X137850000Y-68030000D03*
%TO.P,PS2,7*%
%TO.N,-12V*%
X137850000Y-65490000D03*
%TO.P,PS2,6*%
%TO.N,0V*%
X137850000Y-62950000D03*
%TO.P,PS2,5*%
%TO.N,Net-(PS2-Pad5)*%
X137850000Y-60410000D03*
%TO.P,PS2,3*%
%TO.N,Net-(PS2-Pad3)*%
X137850000Y-55330000D03*
%TO.P,PS2,2*%
%TO.N,+Vin*%
X137850000Y-52790000D03*
%TO.P,PS2,1*%
%TO.N,-Vin*%
X137850000Y-50250000D03*
%TD*%
D18*
%TO.P,Q1,3*%
%TO.N,+5V*%
X137200000Y-108925000D03*
%TO.P,Q1,2*%
%TO.N,Net-(C1-Pad1)*%
X138150000Y-111025000D03*
%TO.P,Q1,1*%
%TO.N,GND*%
X136250000Y-111025000D03*
%TD*%
%TO.P,R1,1*%
%TO.N,Net-(R1-Pad1)*%
%TA.AperFunction,SMDPad,CuDef*%
G36*
G01*
X138025000Y-95900000D02*
X135125000Y-95900000D01*
G75*
G02*
X134875000Y-95650000I0J250000D01*
G01*
X134875000Y-95150000D01*
G75*
G02*
X135125000Y-94900000I250000J0D01*
G01*
X138025000Y-94900000D01*
G75*
G02*
X138275000Y-95150000I0J-250000D01*
G01*
X138275000Y-95650000D01*
G75*
G02*
X138025000Y-95900000I-250000J0D01*
G01*
G37*
%TD.AperFunction*%
%TO.P,R1,2*%
%TO.N,0V*%
%TA.AperFunction,SMDPad,CuDef*%
G36*
G01*
X138025000Y-94400000D02*
X135125000Y-94400000D01*
G75*
G02*
X134875000Y-94150000I0J250000D01*
G01*
X134875000Y-93650000D01*
G75*
G02*
X135125000Y-93400000I250000J0D01*
G01*
X138025000Y-93400000D01*
G75*
G02*
X138275000Y-93650000I0J-250000D01*
G01*
X138275000Y-94150000D01*
G75*
G02*
X138025000Y-94400000I-250000J0D01*
G01*
G37*
%TD.AperFunction*%
%TD*%
D19*
%TO.P,S1,1*%
%TO.N,+5VD*%
X137125000Y-104275000D03*
%TO.P,S1,2*%
X137125000Y-101775000D03*
%TO.P,S1,3*%
%TO.N,Net-(S1-Pad3)*%
X137125000Y-99275000D03*
%TO.P,S1,4*%
%TO.N,+5V*%
X142125000Y-104275000D03*
%TO.P,S1,5*%
X142125000Y-101775000D03*
%TO.P,S1,6*%
%TO.N,Net-(S1-Pad6)*%
X142125000Y-99275000D03*
D20*
%TO.P,S1,L1*%
%TO.N,+12V*%
X139625000Y-106775000D03*
%TO.P,S1,L2*%
%TO.N,Net-(R1-Pad1)*%
X139625000Y-96775000D03*
%TD*%
D21*
%TO.N,Net-(C1-Pad1)*%
X136925000Y-123312500D02*
X137237500Y-123625000D01*
X136925000Y-118000000D02*
X136925000Y-123312500D01*
X139575000Y-118000000D02*
X140175000Y-117400000D01*
X136925000Y-118000000D02*
X139575000Y-118000000D01*
X137237500Y-128112500D02*
X139625000Y-130500000D01*
X137237500Y-123625000D02*
X137237500Y-128112500D01*
X140850000Y-116725000D02*
X140175000Y-117400000D01*
X140850000Y-114125000D02*
X140850000Y-116725000D01*
X140850000Y-113725000D02*
X138150000Y-111025000D01*
X140850000Y-114125000D02*
X140850000Y-113725000D01*
%TO.N,+5V*%
X142125000Y-101775000D02*
X142125000Y-104275000D01*
X140718998Y-104275000D02*
X142125000Y-104275000D01*
X137200000Y-107793998D02*
X140718998Y-104275000D01*
X137200000Y-108925000D02*
X137200000Y-107793998D01*
%TO.N,0V*%
X137625000Y-62725000D02*
X137850000Y-62950000D01*
X135500000Y-62725000D02*
X137625000Y-62725000D01*
X143325010Y-63775010D02*
X142175000Y-62625000D01*
X143325010Y-70074990D02*
X143325010Y-63775010D01*
X143300000Y-70100000D02*
X143325010Y-70074990D01*
X141850000Y-62950000D02*
X142175000Y-62625000D01*
X137850000Y-62950000D02*
X141850000Y-62950000D01*
X135575000Y-92900000D02*
X136575000Y-93900000D01*
X135575000Y-88700000D02*
X135575000Y-92900000D01*
X137515000Y-88700000D02*
X137800000Y-88415000D01*
X135575000Y-88700000D02*
X137515000Y-88700000D01*
X142025000Y-90525000D02*
X143275000Y-91775000D01*
X142025000Y-88075000D02*
X142025000Y-90525000D01*
%TO.N,-12V*%
X137815000Y-65525000D02*
X137850000Y-65490000D01*
X135500000Y-65525000D02*
X137815000Y-65525000D01*
X140500000Y-67650000D02*
X142175000Y-65975000D01*
X140500000Y-70100000D02*
X140500000Y-67650000D01*
X140010000Y-67650000D02*
X140500000Y-67650000D01*
X137850000Y-65490000D02*
X140010000Y-67650000D01*
%TO.N,+12V*%
X135600000Y-85875000D02*
X135575000Y-85900000D01*
X137800000Y-85875000D02*
X135600000Y-85875000D01*
X140875000Y-85875000D02*
X142025000Y-84725000D01*
X137800000Y-85875000D02*
X140875000Y-85875000D01*
%TO.N,Net-(F1-Pad1)*%
X138990000Y-152750000D02*
X136850000Y-150610000D01*
X140825000Y-152750000D02*
X138990000Y-152750000D01*
%TO.N,+5VD*%
X135224990Y-106175010D02*
X137125000Y-104275000D01*
X135224990Y-145064990D02*
X135224990Y-106175010D01*
X136850000Y-146690000D02*
X135224990Y-145064990D01*
X137125000Y-101775000D02*
X137125000Y-104275000D01*
%TO.N,Net-(J1-PadSH1)*%
X138115000Y-144614722D02*
X138115000Y-142680000D01*
X140314279Y-146814001D02*
X138115000Y-144614722D01*
X140963723Y-146814001D02*
X140314279Y-146814001D01*
X141889001Y-147739279D02*
X140963723Y-146814001D01*
X141889001Y-154390765D02*
X141889001Y-147739279D01*
X140459766Y-155820000D02*
X141889001Y-154390765D01*
X138115000Y-155820000D02*
X140459766Y-155820000D01*
%TO.N,Net-(R1-Pad1)*%
X137950000Y-96775000D02*
X136575000Y-95400000D01*
X139625000Y-96775000D02*
X137950000Y-96775000D01*
%TO.N,GND*%
X139625000Y-137700000D02*
X139625000Y-140425000D01*
X140825000Y-141625000D02*
X140825000Y-145750000D01*
X139625000Y-140425000D02*
X140825000Y-141625000D01*
X142975000Y-122962500D02*
X142312500Y-123625000D01*
X142975000Y-117400000D02*
X142975000Y-122962500D01*
X142312500Y-135012500D02*
X142312500Y-123625000D01*
X139625000Y-137700000D02*
X142312500Y-135012500D01*
X142975000Y-114250000D02*
X142850000Y-114125000D01*
X142975000Y-117400000D02*
X142975000Y-114250000D01*
X136250000Y-113225000D02*
X136925000Y-113900000D01*
X136250000Y-111025000D02*
X136250000Y-113225000D01*
X136925000Y-110669998D02*
X136925000Y-113900000D01*
X137569999Y-110024999D02*
X136925000Y-110669998D01*
X138749999Y-110024999D02*
X137569999Y-110024999D01*
X142850000Y-114125000D02*
X138749999Y-110024999D01*
%TD*%
M02*
