%TF.GenerationSoftware,KiCad,Pcbnew,(5.1.6-0-10_14)*%
%TF.CreationDate,2020-12-30T18:05:34+01:00*%
%TF.ProjectId,USBPowerSupplyEurorack,55534250-6f77-4657-9253-7570706c7945,rev?*%
%TF.SameCoordinates,Original*%
%TF.FileFunction,Soldermask,Bot*%
%TF.FilePolarity,Negative*%
%FSLAX46Y46*%
G04 Gerber Fmt 4.6, Leading zero omitted, Abs format (unit mm)*
G04 Created by KiCad (PCBNEW (5.1.6-0-10_14)) date 2020-12-30 18:05:34*
%MOMM*%
%LPD*%
G01*
G04 APERTURE LIST*
%ADD10C,1.825000*%
%ADD11R,1.528000X1.528000*%
%ADD12C,1.528000*%
%ADD13C,3.416000*%
%ADD14C,1.500000*%
%ADD15C,1.300000*%
G04 APERTURE END LIST*
D10*
%TO.C,PS2*%
X140725000Y-79395000D03*
X140725000Y-81935000D03*
X140725000Y-84475000D03*
X140725000Y-87015000D03*
X140725000Y-92095000D03*
X140725000Y-94635000D03*
X140725000Y-97175000D03*
%TD*%
%TO.C,C1*%
G36*
G01*
X135125000Y-122284375D02*
X135125000Y-121115625D01*
G75*
G02*
X135390625Y-120850000I265625J0D01*
G01*
X138284375Y-120850000D01*
G75*
G02*
X138550000Y-121115625I0J-265625D01*
G01*
X138550000Y-122284375D01*
G75*
G02*
X138284375Y-122550000I-265625J0D01*
G01*
X135390625Y-122550000D01*
G75*
G02*
X135125000Y-122284375I0J265625D01*
G01*
G37*
G36*
G01*
X140200000Y-122284375D02*
X140200000Y-121115625D01*
G75*
G02*
X140465625Y-120850000I265625J0D01*
G01*
X143359375Y-120850000D01*
G75*
G02*
X143625000Y-121115625I0J-265625D01*
G01*
X143625000Y-122284375D01*
G75*
G02*
X143359375Y-122550000I-265625J0D01*
G01*
X140465625Y-122550000D01*
G75*
G02*
X140200000Y-122284375I0J265625D01*
G01*
G37*
%TD*%
%TO.C,C7*%
G36*
G01*
X136125000Y-131309375D02*
X136125000Y-130140625D01*
G75*
G02*
X136390625Y-129875000I265625J0D01*
G01*
X138734375Y-129875000D01*
G75*
G02*
X139000000Y-130140625I0J-265625D01*
G01*
X139000000Y-131309375D01*
G75*
G02*
X138734375Y-131575000I-265625J0D01*
G01*
X136390625Y-131575000D01*
G75*
G02*
X136125000Y-131309375I0J265625D01*
G01*
G37*
G36*
G01*
X140250000Y-131309375D02*
X140250000Y-130140625D01*
G75*
G02*
X140515625Y-129875000I265625J0D01*
G01*
X142859375Y-129875000D01*
G75*
G02*
X143125000Y-130140625I0J-265625D01*
G01*
X143125000Y-131309375D01*
G75*
G02*
X142859375Y-131575000I-265625J0D01*
G01*
X140515625Y-131575000D01*
G75*
G02*
X140250000Y-131309375I0J265625D01*
G01*
G37*
%TD*%
D11*
%TO.C,J1*%
X140725000Y-152300000D03*
D12*
X140725000Y-149800000D03*
X140725000Y-147800000D03*
X140725000Y-145300000D03*
D13*
X138015000Y-155370000D03*
X138015000Y-142230000D03*
%TD*%
D10*
%TO.C,PS1*%
X137850000Y-50900000D03*
X137850000Y-53440000D03*
X137850000Y-55980000D03*
X137850000Y-61060000D03*
X137850000Y-63600000D03*
X137850000Y-66140000D03*
X137850000Y-68680000D03*
%TD*%
D14*
%TO.C,S1*%
X136900000Y-109375000D03*
X136900000Y-106875000D03*
X136900000Y-104375000D03*
X141900000Y-109375000D03*
X141900000Y-106875000D03*
X141900000Y-104375000D03*
D15*
X139400000Y-111875000D03*
X139400000Y-101875000D03*
%TD*%
M02*
